<svg width="959" height="991" viewBox="0 0 959 991" fill="none" xmlns="http://www.w3.org/2000/svg">
<g opacity="0.3">
<path opacity="0.010101" d="M156.251 497.982C150.684 492.217 149.462 483.523 153.225 476.446L348.762 108.694C352.525 101.617 360.416 97.7685 368.309 99.1602L778.486 171.486C786.379 172.877 792.478 179.193 793.594 187.13L851.56 599.581C852.676 607.518 848.554 615.27 841.35 618.784L466.998 801.368C459.794 804.881 451.148 803.356 445.58 797.591L156.251 497.982Z" stroke="#0276FE" stroke-width="3"/>
<path opacity="0.020202" d="M151.759 492.916C146.293 487.054 145.223 478.34 149.108 471.33L350.64 107.757C354.525 100.748 362.483 97.0371 370.35 98.5664L778.405 177.884C786.272 179.413 792.26 185.835 793.237 193.79L843.897 606.383C844.874 614.338 840.617 622.017 833.353 625.404L456.608 801.083C449.345 804.47 440.726 802.795 435.26 796.934L151.759 492.916Z" stroke="#0276FE" stroke-width="3"/>
<path opacity="0.030303" d="M147.38 487.857C142.017 481.901 141.099 473.169 145.107 466.228L352.546 106.932C356.553 99.9913 364.574 96.4202 372.414 98.0865L778.227 184.345C786.066 186.011 791.941 192.536 792.779 200.507L836.145 613.113C836.983 621.083 832.593 628.687 825.272 631.947L446.261 800.693C438.939 803.953 430.351 802.128 424.988 796.172L147.38 487.857Z" stroke="#0276FE" stroke-width="3"/>
<path opacity="0.040404" d="M143.115 482.808C137.857 476.759 137.091 468.012 141.219 461.142L354.479 106.219C358.607 99.3488 366.689 95.9182 374.498 97.7211L777.951 190.866C785.761 192.668 791.521 199.295 792.219 207.279L828.308 619.769C829.006 627.753 824.484 635.279 817.107 638.411L435.957 800.199C428.579 803.331 420.024 801.356 414.766 795.307L143.115 482.808Z" stroke="#0276FE" stroke-width="3"/>
<path opacity="0.050505" d="M138.963 477.769C133.811 471.63 133.199 462.871 137.446 456.074L356.436 105.616C360.683 98.8192 368.824 95.5302 376.601 97.4691L777.578 197.444C785.355 199.383 790.998 206.109 791.557 214.104L820.384 626.35C820.943 634.345 816.291 641.791 808.86 644.793L425.699 799.6C418.267 802.603 409.748 800.479 404.597 794.339L138.963 477.769Z" stroke="#0276FE" stroke-width="3"/>
<path opacity="0.0606061" d="M134.924 472.743C129.88 466.514 129.42 457.746 133.786 451.024L358.416 105.123C362.781 98.4018 370.978 95.2553 378.72 97.3296L777.106 204.077C784.847 206.151 790.373 212.975 790.792 220.978L812.378 632.853C812.797 640.856 808.015 648.22 800.533 651.092L415.487 798.897C408.005 801.769 399.524 799.497 394.48 793.268L134.924 472.743Z" stroke="#0276FE" stroke-width="3"/>
<path opacity="0.0707071" d="M130.997 467.731C126.063 461.415 125.756 452.641 130.238 445.996L360.417 104.742C364.899 98.0978 373.149 95.0949 380.853 97.304L776.534 210.764C784.238 212.973 789.644 219.892 789.924 227.901L804.289 639.277C804.569 647.287 799.659 654.566 792.128 657.307L405.325 798.092C397.794 800.833 389.354 798.413 384.42 792.097L130.997 467.731Z" stroke="#0276FE" stroke-width="3"/>
<path opacity="0.0808081" d="M127.182 462.738C122.359 456.337 122.206 447.558 126.803 440.993L362.435 104.474C367.033 97.9092 375.334 95.0507 382.999 97.394L775.862 217.504C783.526 219.847 788.81 226.859 788.95 234.873L796.119 645.624C796.259 653.637 791.223 660.829 783.645 663.439L395.214 797.186C387.636 799.796 379.239 797.229 374.416 790.828L127.182 462.738Z" stroke="#0276FE" stroke-width="3"/>
<path opacity="0.0909091" d="M123.479 457.763C118.768 451.279 118.768 442.499 123.479 436.015L364.471 104.317C369.182 97.8333 377.532 95.1201 385.154 97.5968L775.088 224.294C782.71 226.771 787.871 233.874 787.871 241.888V651.889C787.871 659.903 782.71 667.007 775.088 669.483L385.154 796.18C377.532 798.657 369.182 795.944 364.471 789.46L123.479 457.763Z" stroke="#0276FE" stroke-width="3"/>
<path opacity="0.10101" d="M119.886 452.807C115.289 446.242 115.442 437.464 120.265 431.063L366.52 104.271C371.344 97.8704 379.74 95.3034 387.318 97.9127L774.212 231.131C781.79 233.74 786.826 240.933 786.687 248.946L779.545 658.071C779.405 666.084 774.121 673.096 766.457 675.44L375.149 795.074C367.485 797.418 359.183 794.559 354.586 787.994L119.886 452.807Z" stroke="#0276FE" stroke-width="3"/>
<path opacity="0.111111" d="M116.403 447.877C111.922 441.232 112.228 432.458 117.162 426.142L368.583 104.339C373.517 98.0232 381.957 95.6031 389.488 98.3443L773.234 238.016C780.766 240.758 785.675 248.037 785.396 256.046L771.144 664.172C770.864 672.182 765.458 679.1 757.754 681.31L365.2 793.873C357.496 796.082 349.245 793.079 344.763 786.434L116.403 447.877Z" stroke="#0276FE" stroke-width="3"/>
<path opacity="0.121212" d="M113.031 442.969C108.665 436.247 109.125 427.479 114.169 421.251L370.655 104.516C375.699 98.2876 384.18 96.0152 391.662 98.8874L772.153 244.944C779.636 247.816 784.418 255.18 783.998 263.184L762.668 670.186C762.249 678.19 756.723 685.013 748.982 687.088L355.308 792.572C347.566 794.646 339.369 791.5 335.004 784.778L113.031 442.969Z" stroke="#0276FE" stroke-width="3"/>
<path opacity="0.131313" d="M109.767 438.089C105.519 431.293 106.132 422.534 111.284 416.394L372.736 104.807C377.888 98.6676 386.407 96.5435 393.838 99.5459L770.969 251.916C778.4 254.919 783.052 262.365 782.493 270.36L754.12 676.117C753.561 684.112 747.917 690.838 740.141 692.777L345.475 791.178C337.698 793.117 329.557 789.828 325.31 783.031L109.767 438.089Z" stroke="#0276FE" stroke-width="3"/>
<path opacity="0.141414" d="M106.611 433.238C102.483 426.368 103.248 417.621 108.506 411.572L374.824 105.209C380.082 99.1606 388.637 97.1855 396.014 100.317L769.679 258.929C777.057 262.06 781.579 269.586 780.88 277.57L745.501 681.961C744.802 689.945 739.042 696.571 731.233 698.374L335.702 789.69C327.893 791.492 319.811 788.062 315.683 781.192L106.611 433.238Z" stroke="#0276FE" stroke-width="3"/>
<path opacity="0.151515" d="M103.562 428.416C99.5551 421.475 100.473 412.743 105.836 406.787L376.915 105.722C382.278 99.7664 390.866 97.9409 398.188 101.201L768.285 265.979C775.607 269.239 779.997 276.842 779.159 284.813L736.812 687.716C735.975 695.686 730.1 702.211 722.26 703.878L325.991 788.107C318.152 789.774 310.131 786.202 306.123 779.261L103.562 428.416Z" stroke="#0276FE" stroke-width="3"/>
<path opacity="0.161616" d="M100.621 423.626C96.7354 416.617 97.8055 407.902 103.271 402.04L379.009 106.348C384.475 100.486 393.094 98.8109 400.358 102.198L766.786 273.066C774.05 276.453 778.306 284.133 777.33 292.088L728.057 693.383C727.08 701.338 721.092 707.759 713.225 709.288L316.344 786.434C308.477 787.963 300.519 784.253 296.634 777.243L100.621 423.626Z" stroke="#0276FE" stroke-width="3"/>
<path opacity="0.171717" d="M97.7854 418.872C94.0228 411.795 95.2447 403.101 100.812 397.335L381.104 107.085C386.671 101.32 395.318 99.7949 402.521 103.308L765.181 280.189C772.385 283.703 776.507 291.455 775.391 299.392L719.235 698.96C718.12 706.897 712.021 713.213 704.128 714.605L306.762 784.671C298.869 786.063 290.978 782.214 287.215 775.137L97.7854 418.872Z" stroke="#0276FE" stroke-width="3"/>
<path opacity="0.181818" d="M95.0551 414.152C91.4166 407.011 92.79 398.339 98.4573 392.672L383.197 107.932C388.864 102.265 397.536 100.891 404.677 104.53L763.47 287.344C770.611 290.983 774.597 298.806 773.343 306.722L710.35 704.447C709.096 712.363 702.888 718.571 694.972 719.825L297.247 782.818C289.331 784.072 281.508 780.086 277.869 772.945L95.0551 414.152Z" stroke="#0276FE" stroke-width="3"/>
<path opacity="0.191919" d="M92.4289 409.471C88.9155 402.267 90.4402 393.62 96.2054 388.053L385.286 108.891C391.052 103.323 399.746 102.101 406.823 105.864L761.652 294.53C768.729 298.293 772.578 306.185 771.186 314.077L701.402 709.842C700.01 717.735 693.695 723.834 685.758 724.949L287.799 780.879C279.863 781.994 272.11 777.872 268.597 770.669L92.4289 409.471Z" stroke="#0276FE" stroke-width="3"/>
<path opacity="0.20202" d="M89.9063 404.826C86.5191 397.563 88.1944 388.944 94.056 383.478L387.37 109.958C393.232 104.492 401.946 103.422 408.956 107.308L759.728 301.744C766.738 305.629 770.448 313.587 768.919 321.454L692.394 715.142C690.865 723.009 684.443 728.997 676.488 729.974L278.421 778.851C270.466 779.827 262.787 775.571 259.4 768.307L89.9063 404.826Z" stroke="#0276FE" stroke-width="3"/>
<path opacity="0.212121" d="M87.4862 400.226C84.2264 392.904 86.0518 384.316 92.0079 378.953L389.447 111.138C395.403 105.775 404.135 104.858 411.076 108.865L757.697 308.987C764.637 312.994 768.209 321.015 766.542 328.855L683.327 720.352C681.661 728.191 675.136 734.066 667.165 734.904L269.114 776.741C261.144 777.579 253.54 773.189 250.28 765.867L87.4862 400.226Z" stroke="#0276FE" stroke-width="3"/>
<path opacity="0.222222" d="M85.1676 395.667C82.0361 388.289 84.0111 379.734 90.0599 374.476L391.514 112.426C397.563 107.168 406.309 106.403 413.179 110.531L755.558 316.253C762.428 320.38 765.858 328.463 764.055 336.272L674.203 725.465C672.4 733.274 665.774 739.034 657.79 739.733L259.879 774.545C251.895 775.244 244.369 770.722 241.238 763.344L85.1676 395.667Z" stroke="#0276FE" stroke-width="3"/>
<path opacity="0.232323" d="M82.9497 391.153C79.9473 383.722 82.0714 375.203 88.211 370.051L393.57 113.825C399.709 108.673 408.468 108.061 415.265 112.308L753.311 323.543C760.108 327.79 763.397 335.931 761.458 343.707L665.024 730.484C663.085 738.261 656.359 743.904 648.364 744.463L250.718 772.27C242.723 772.829 235.277 768.176 232.274 760.745L82.9497 391.153Z" stroke="#0276FE" stroke-width="3"/>
<path opacity="0.242424" d="M80.8313 386.686C77.9591 379.204 80.2316 370.723 86.4601 365.679L395.612 115.333C401.841 110.289 410.609 109.83 417.33 114.195L750.957 330.855C757.679 335.22 760.825 343.417 758.751 351.158L655.791 735.407C653.717 743.149 646.894 748.674 638.89 749.094L241.631 769.913C233.627 770.333 226.264 765.551 223.392 758.069L80.8313 386.686Z" stroke="#0276FE" stroke-width="3"/>
<path opacity="0.252525" d="M78.8115 382.266C76.0703 374.735 78.4904 366.295 84.8061 361.36L397.639 116.948C403.955 112.014 412.73 111.708 419.374 116.189L748.495 338.184C755.139 342.666 758.142 350.916 755.933 358.62L646.507 740.233C644.298 747.937 637.379 753.342 629.37 753.622L232.62 767.477C224.611 767.757 217.332 762.847 214.59 755.316L78.8115 382.266Z" stroke="#0276FE" stroke-width="3"/>
<path opacity="0.262626" d="M76.8892 377.895C74.2799 370.317 76.8469 361.921 83.2477 357.097L399.65 118.672C406.05 113.848 414.829 113.695 421.394 118.292L745.924 345.53C752.49 350.127 755.348 358.429 753.005 366.094L637.173 744.96C634.83 752.625 627.818 757.909 619.805 758.049L223.687 764.963C215.674 765.103 208.481 760.067 205.872 752.489L76.8892 377.895Z" stroke="#0276FE" stroke-width="3"/>
<path opacity="0.272727" d="M75.0632 373.577C72.5866 365.954 75.2997 357.604 81.7837 352.893L401.641 120.503C408.125 115.793 416.905 115.793 423.389 120.503L743.246 352.893C749.73 357.604 752.443 365.954 749.966 373.577L627.792 749.591C625.315 757.214 618.212 762.374 610.197 762.374L214.832 762.374C206.818 762.374 199.714 757.214 197.238 749.591L75.0632 373.577Z" stroke="#0276FE" stroke-width="3"/>
<path opacity="0.282828" d="M73.333 369.311C70.9897 361.646 73.8482 353.345 80.4134 348.748L403.611 122.442C410.177 117.845 418.955 117.998 425.356 122.822L740.459 360.269C746.86 365.092 749.427 373.489 746.818 381.067L618.364 754.123C615.755 761.701 608.563 766.737 600.549 766.597L206.058 759.711C198.044 759.571 191.032 754.287 188.689 746.623L73.333 369.311Z" stroke="#0276FE" stroke-width="3"/>
<path opacity="0.292929" d="M71.6967 365.1C69.4876 357.396 72.4905 349.146 79.135 344.664L405.559 124.488C412.204 120.006 420.978 120.313 427.294 125.247L737.564 367.657C743.88 372.591 746.3 381.031 743.559 388.562L608.892 758.556C606.151 766.087 598.872 770.997 590.862 770.717L197.363 756.976C189.354 756.696 182.435 751.291 180.226 743.586L71.6967 365.1Z" stroke="#0276FE" stroke-width="3"/>
<path opacity="0.30303" d="M70.1533 360.944C68.0789 353.202 71.2254 345.006 77.9471 340.64L407.482 126.638C414.204 122.273 422.972 122.732 429.201 127.776L734.561 375.052C740.79 380.096 743.062 388.577 740.19 396.059L599.378 762.887C596.506 770.369 589.142 775.151 581.139 774.732L188.751 754.168C180.748 753.748 173.924 748.223 171.85 740.481L70.1533 360.944Z" stroke="#0276FE" stroke-width="3"/>
<path opacity="0.313131" d="M68.7019 356.847C66.763 349.07 70.0521 340.93 76.8489 336.683L409.379 128.895C416.176 124.648 424.935 125.26 431.074 130.412L731.45 382.457C737.59 387.609 739.714 396.128 736.711 403.559L589.823 767.119C586.821 774.55 579.375 779.203 571.38 778.644L180.223 751.292C172.227 750.733 165.502 745.089 163.563 737.312L68.7019 356.847Z" stroke="#0276FE" stroke-width="3"/>
<path opacity="0.323232" d="M67.3411 352.807C65.5382 344.998 68.9688 336.916 75.8388 332.788L411.248 131.254C418.118 127.126 426.864 127.891 432.913 133.149L728.231 389.865C734.28 395.123 736.255 403.678 733.123 411.055L580.23 771.249C577.099 778.626 569.573 783.148 561.588 782.45L171.778 748.346C163.794 747.647 157.167 741.887 155.364 734.078L67.3411 352.807Z" stroke="#0276FE" stroke-width="3"/>
<path opacity="0.333333" d="M66.0698 348.829C64.4035 340.99 67.9746 332.969 74.9155 328.962L413.087 133.718C420.028 129.711 428.76 130.629 434.716 135.992L724.904 397.278C730.86 402.641 732.685 411.229 729.425 418.551L570.6 775.278C567.34 782.6 559.737 786.99 551.766 786.152L163.418 745.335C155.448 744.497 148.923 738.622 147.257 730.783L66.0698 348.829Z" stroke="#0276FE" stroke-width="3"/>
<path opacity="0.343434" d="M64.8864 344.913C63.3571 337.045 67.0677 329.088 74.0775 325.202L414.894 136.285C421.903 132.399 430.618 133.469 436.479 138.935L721.469 404.692C727.33 410.158 729.005 418.777 725.618 426.04L560.935 779.204C557.548 786.468 549.869 790.725 541.914 789.748L155.145 742.259C147.19 741.282 140.769 735.294 139.24 727.427L64.8864 344.913Z" stroke="#0276FE" stroke-width="3"/>
<path opacity="0.353535" d="M63.7899 341.061C62.3982 333.168 66.2471 325.277 73.3237 321.514L416.667 138.955C423.743 135.192 432.438 136.414 438.203 141.982L717.926 412.107C723.691 417.674 725.216 426.321 721.703 433.525L551.237 783.03C547.724 790.233 539.972 794.355 532.035 793.24L146.959 739.121C139.022 738.006 132.707 731.907 131.315 724.014L63.7899 341.061Z" stroke="#0276FE" stroke-width="3"/>
<path opacity="0.363636" d="M62.7789 337.273C61.5251 329.357 65.5111 321.533 72.6523 317.895L418.405 141.725C425.546 138.087 434.218 139.46 439.885 145.127L714.276 419.518C719.943 425.185 721.317 433.857 717.678 440.998L541.508 786.751C537.87 793.892 530.047 797.878 522.131 796.624L138.861 735.92C130.945 734.667 124.737 728.458 123.483 720.542L62.7789 337.273Z" stroke="#0276FE" stroke-width="3"/>
<path opacity="0.373737" d="M61.8522 333.552C60.7368 325.615 64.8588 317.863 72.0623 314.349L420.106 144.597C427.31 141.084 435.956 142.608 441.524 148.374L710.519 426.927C716.087 432.692 717.309 441.387 713.546 448.463L531.751 790.371C527.988 797.447 520.096 801.296 512.204 799.904L130.852 732.662C122.959 731.27 116.86 724.954 115.745 717.018L61.8522 333.552Z" stroke="#0276FE" stroke-width="3"/>
<path opacity="0.383838" d="M61.0085 329.897C60.0318 321.942 64.2884 314.263 71.5522 310.876L421.769 147.567C429.032 144.18 437.651 145.856 443.117 151.717L706.656 434.328C712.122 440.189 713.192 448.904 709.306 455.914L521.965 793.885C518.08 800.895 510.122 804.605 502.255 803.076L122.934 729.344C115.066 727.814 109.078 721.393 108.101 713.438L61.0085 329.897Z" stroke="#0276FE" stroke-width="3"/>
<path opacity="0.393939" d="M60.2459 326.313C59.4082 318.342 63.7982 310.738 71.12 307.478L423.39 150.637C430.712 147.378 439.3 149.203 444.663 155.159L702.685 441.722C708.048 447.678 708.966 456.41 704.959 463.351L512.155 797.297C508.147 804.238 500.126 807.809 492.287 806.143L115.105 725.97C107.266 724.304 101.391 717.779 100.553 709.808L60.2459 326.313Z" stroke="#0276FE" stroke-width="3"/>
<path opacity="0.40404" d="M59.5638 322.797C58.8653 314.812 63.3873 307.287 70.7649 304.155L424.971 153.804C432.348 150.672 440.903 152.647 446.161 158.696L698.609 449.104C703.867 455.153 704.633 463.9 700.505 470.77L502.321 800.603C498.193 807.473 490.111 810.904 482.302 809.101L107.369 722.541C99.5597 720.738 93.7994 714.111 93.1009 706.127L59.5638 322.797Z" stroke="#0276FE" stroke-width="3"/>
<path opacity="0.414141" d="M58.9599 319.354C58.4009 311.359 63.0536 303.913 70.4847 300.911L426.506 157.069C433.937 154.066 442.457 156.191 447.608 162.33L694.427 456.477C699.579 462.617 700.191 471.376 695.944 478.172L492.465 803.807C488.218 810.604 480.077 813.893 472.301 811.954L99.7245 719.061C91.9479 717.122 86.3042 710.396 85.7452 702.401L58.9599 319.354Z" stroke="#0276FE" stroke-width="3"/>
<path opacity="0.424242" d="M58.4334 315.984C58.0139 307.981 62.7959 300.617 70.2782 297.745L427.997 160.429C435.479 157.557 443.96 159.83 449.004 166.058L690.14 463.836C695.184 470.065 695.643 478.833 691.278 485.555L482.59 806.907C478.224 813.629 470.028 816.775 462.286 814.701L92.1734 715.529C84.4318 713.455 78.9064 706.632 78.4869 698.628L58.4334 315.984Z" stroke="#0276FE" stroke-width="3"/>
<path opacity="0.434343" d="M57.9828 312.688C57.7031 304.678 62.6128 297.399 70.1442 294.658L429.441 163.884C436.972 161.143 445.412 163.563 450.347 169.879L685.748 471.179C690.683 477.495 690.989 486.27 686.507 492.914L472.697 809.901C468.215 816.546 459.964 819.549 452.26 817.34L84.7163 711.948C77.0121 709.739 71.6065 702.82 71.3268 694.81L57.9828 312.688Z" stroke="#0276FE" stroke-width="3"/>
<path opacity="0.444444" d="M57.6063 309.467C57.4665 301.453 62.5025 294.261 70.0805 291.652L430.836 167.434C438.414 164.824 446.811 167.391 451.634 173.792L681.252 478.506C686.075 484.907 686.229 493.685 681.632 500.25L462.788 812.792C458.191 819.357 449.889 822.216 442.225 819.872L77.3535 708.32C69.689 705.977 64.405 698.965 64.2652 690.951L57.6063 309.467Z" stroke="#0276FE" stroke-width="3"/>
<path opacity="0.454545" d="M57.3026 306.323C57.3026 298.308 62.4634 291.205 70.0858 288.728L432.181 171.077C439.803 168.6 448.154 171.313 452.865 177.797L676.652 485.814C681.363 492.298 681.363 501.078 676.652 507.562L452.865 815.578C448.154 822.062 439.804 824.776 432.181 822.299L70.0858 704.647C62.4634 702.17 57.3026 695.067 57.3026 687.053L57.3026 306.323Z" stroke="#0276FE" stroke-width="3"/>
<path opacity="0.464646" d="M57.0701 303.256C57.21 295.242 62.494 288.23 70.1585 285.887L433.474 174.81C441.139 172.467 449.441 175.326 454.038 181.891L671.949 493.1C676.546 499.665 676.392 508.444 671.569 514.845L442.93 818.26C438.106 824.66 429.71 827.227 422.132 824.618L62.9138 700.929C55.3358 698.32 50.2998 691.128 50.4397 683.114L57.0701 303.256Z" stroke="#0276FE" stroke-width="3"/>
<path opacity="0.474747" d="M56.9075 300.267C57.1872 292.257 62.5927 285.338 70.2969 283.129L434.714 178.634C442.419 176.425 450.669 179.428 455.151 186.072L667.143 500.363C671.625 507.008 671.318 515.782 666.384 522.098L432.985 820.835C428.05 827.151 419.61 829.571 412.079 826.83L55.8383 697.169C48.307 694.428 43.3972 687.149 43.677 679.139L56.9075 300.267Z" stroke="#0276FE" stroke-width="3"/>
<path opacity="0.484848" d="M56.8128 297.358C57.2323 289.354 62.7577 282.531 70.4993 280.456L435.9 182.548C443.641 180.473 451.838 183.62 456.203 190.341L662.235 507.602C666.6 514.324 666.14 523.092 661.097 529.32L423.031 823.307C417.987 829.536 409.506 831.808 402.024 828.936L48.8595 693.369C41.3771 690.497 36.5952 683.133 37.0146 675.13L56.8128 297.358Z" stroke="#0276FE" stroke-width="3"/>
<path opacity="0.494949" d="M56.7849 294.529C57.3439 286.533 62.9876 279.808 70.7642 277.869L437.029 186.549C444.805 184.61 452.946 187.899 457.193 194.696L657.226 514.815C661.473 521.611 660.86 530.37 655.709 536.51L413.071 825.674C407.919 831.814 399.4 833.938 391.969 830.935L41.9781 689.53C34.547 686.527 29.8943 679.082 30.4534 671.086L56.7849 294.529Z" stroke="#0276FE" stroke-width="3"/>
<path opacity="0.50505" d="M56.8221 291.783C57.5207 283.799 63.2809 277.173 71.0901 275.37L438.1 190.639C445.91 188.836 453.992 192.267 458.12 199.136L652.116 522.001C656.244 528.871 655.479 537.617 650.221 543.666L403.107 827.938C397.849 833.987 389.294 835.962 381.916 832.83L35.1948 685.656C27.8172 682.524 23.2952 674.998 23.9937 667.014L56.8221 291.783Z" stroke="#0276FE" stroke-width="3"/>
<path opacity="0.515152" d="M56.9224 289.12C57.7602 281.149 63.6352 274.624 71.4747 272.958L439.113 194.814C446.952 193.148 454.973 196.719 458.98 203.66L646.906 529.157C650.913 536.097 649.995 544.829 644.633 550.785L393.139 830.097C387.776 836.053 379.188 837.879 371.866 834.619L28.5093 681.746C21.1875 678.487 16.7975 670.883 17.6353 662.912L56.9224 289.12Z" stroke="#0276FE" stroke-width="3"/>
<path opacity="0.525253" d="M57.0848 286.54C58.0615 278.585 64.0495 272.164 71.9169 270.634L440.064 199.074C447.932 197.544 455.889 201.255 459.775 208.265L641.597 536.28C645.482 543.29 644.412 552.005 638.946 557.866L383.171 832.152C377.705 838.013 369.086 839.689 361.823 836.301L21.9228 677.804C14.6591 674.416 10.4024 666.737 11.3792 658.782L57.0848 286.54Z" stroke="#0276FE" stroke-width="3"/>
<path opacity="0.535354" d="M57.3075 284.045C58.4229 276.108 64.522 269.792 72.4149 268.401L440.955 203.417C448.847 202.025 456.739 205.874 460.502 212.951L636.189 543.372C639.952 550.448 638.73 559.143 633.163 564.908L373.204 834.103C367.637 839.868 358.99 841.393 351.787 837.88L15.4355 673.83C8.23196 670.317 4.10998 662.564 5.22541 654.628L57.3075 284.045Z" stroke="#0276FE" stroke-width="3"/>
<path opacity="0.545455" d="M57.5884 281.635C58.8422 273.719 65.0506 267.511 72.9666 266.257L441.781 207.842C449.697 206.589 457.52 210.575 461.159 217.716L630.684 550.428C634.323 557.569 632.949 566.241 627.282 571.908L363.24 835.95C357.573 841.618 348.901 842.991 341.76 839.353L9.04735 669.827C1.90621 666.189 -2.07983 658.365 -0.826046 650.449L57.5884 281.635Z" stroke="#0276FE" stroke-width="3"/>
<path opacity="0.555556" d="M57.9265 279.311C59.3183 271.418 65.6341 265.319 73.5708 264.204L442.543 212.348C450.48 211.232 458.232 215.354 461.746 222.558L625.082 557.447C628.596 564.651 627.071 573.298 621.306 578.865L353.281 837.694C347.515 843.261 338.821 844.483 331.744 840.721L2.75915 665.796C-4.31739 662.034 -8.16631 654.142 -6.77457 646.249L57.9265 279.311Z" stroke="#0276FE" stroke-width="3"/>
<path opacity="0.565657" d="M58.3199 277.076C59.8492 269.208 66.2705 263.22 74.2254 262.243L443.24 216.934C451.195 215.957 458.874 220.214 462.261 227.478L619.385 564.43C622.772 571.694 621.096 580.312 615.235 585.778L343.328 839.336C337.466 844.802 328.752 845.872 321.742 841.986L-3.42904 661.741C-10.4388 657.855 -14.1494 649.898 -12.6201 642.03L58.3199 277.076Z" stroke="#0276FE" stroke-width="3"/>
<path opacity="0.575758" d="M58.7666 274.927C60.433 267.087 66.9578 261.212 74.9286 260.374L443.869 221.597C451.84 220.759 459.443 225.149 462.703 232.471L613.592 571.371C616.851 578.693 615.026 587.281 609.07 592.644L333.383 840.873C327.427 846.236 318.695 847.154 311.755 843.147L-9.51717 657.66C-16.4581 653.653 -20.0293 645.632 -18.3629 637.792L58.7666 274.927Z" stroke="#0276FE" stroke-width="3"/>
<path opacity="0.585859" d="M59.2656 272.868C61.0685 265.058 67.6948 259.298 75.679 258.6L444.43 226.338C452.414 225.64 459.94 230.162 463.072 237.539L607.705 578.273C610.836 585.651 608.861 594.206 602.812 599.464L323.449 842.31C317.401 847.568 308.654 848.333 301.784 844.206L-15.5046 653.559C-22.3745 649.431 -25.8052 641.349 -24.0022 633.54L59.2656 272.868Z" stroke="#0276FE" stroke-width="3"/>
<path opacity="0.59596" d="M59.8143 270.897C61.7532 263.121 68.4791 257.477 76.4742 256.918L444.921 231.154C452.916 230.595 460.362 235.247 463.364 242.678L601.724 585.131C604.726 592.562 602.602 601.081 596.463 606.233L313.527 843.644C307.387 848.796 298.629 849.408 291.832 845.161L-21.3918 649.437C-28.1886 645.19 -31.4776 637.049 -29.5387 629.273L59.8143 270.897Z" stroke="#0276FE" stroke-width="3"/>
<path opacity="0.606061" d="M60.4119 269.018C62.4862 261.276 69.3096 255.751 77.3133 255.331L445.342 236.044C453.345 235.624 460.709 240.406 463.581 247.889L595.652 591.944C598.524 599.427 596.251 607.907 590.023 612.951L303.619 844.877C297.39 849.921 288.622 850.38 281.9 846.015L-27.1778 645.297C-33.8994 640.932 -37.0459 632.735 -34.9716 624.994L60.4119 269.018Z" stroke="#0276FE" stroke-width="3"/>
<path opacity="0.616162" d="M61.0561 267.229C63.2653 259.524 70.184 254.119 78.1938 253.839L445.69 241.006C453.7 240.726 460.979 245.636 463.72 253.167L589.488 598.711C592.229 606.243 589.809 614.683 583.493 619.617L293.726 846.008C287.41 850.942 278.635 851.249 271.991 846.767L-32.8631 641.141C-39.5075 636.659 -42.5105 628.408 -40.3013 620.704L61.0561 267.229Z" stroke="#0276FE" stroke-width="3"/>
<path opacity="0.626263" d="M61.7454 265.532C64.0886 257.867 71.1007 252.584 79.1141 252.444L445.965 246.04C453.979 245.9 461.171 250.936 463.78 258.514L583.234 605.432C585.843 613.01 583.276 621.406 576.875 626.23L283.85 847.04C277.449 851.863 268.671 852.017 262.105 847.42L-38.4474 636.97C-45.0127 632.373 -47.8712 624.072 -45.5279 616.407L61.7454 265.532Z" stroke="#0276FE" stroke-width="3"/>
<path opacity="0.636364" d="M62.4778 263.927C64.9545 256.305 72.0577 251.144 80.0724 251.144L446.167 251.144C454.181 251.144 461.284 256.305 463.761 263.927L576.89 612.104C579.367 619.726 576.654 628.076 570.17 632.787L273.993 847.972C267.509 852.683 258.729 852.683 252.245 847.972L-43.931 632.787C-50.415 628.076 -53.1281 619.726 -50.6515 612.104L62.4778 263.927Z" stroke="#0276FE" stroke-width="3"/>
<path opacity="0.646465" d="M63.252 262.415C65.8613 254.837 73.0535 249.801 81.067 249.94L446.292 256.315C454.306 256.455 461.318 261.739 463.661 269.404L570.459 618.724C572.802 626.388 569.944 634.69 563.379 639.287L264.158 848.803C257.593 853.401 248.814 853.247 242.413 848.424L-49.3133 628.592C-55.7141 623.769 -58.2812 615.373 -55.6719 607.795L63.252 262.415Z" stroke="#0276FE" stroke-width="3"/>
<path opacity="0.656566" d="M64.066 260.996C66.8072 253.464 74.0862 248.555 82.096 248.834L446.342 261.554C454.352 261.834 461.27 267.239 463.48 274.943L563.941 625.293C566.15 632.997 563.147 641.247 556.502 645.729L254.345 849.537C247.7 854.019 238.926 853.712 232.61 848.778L-54.5947 624.389C-60.9104 619.455 -63.3305 611.015 -60.5893 603.484L64.066 260.996Z" stroke="#0276FE" stroke-width="3"/>
<path opacity="0.666667" d="M64.9182 259.669C67.7905 252.186 75.154 247.405 83.1577 247.824L446.314 266.856C454.318 267.276 461.141 272.801 463.216 280.543L557.336 631.806C559.411 639.548 556.264 647.745 549.543 652.11L244.556 850.171C237.834 854.536 229.066 854.076 222.838 849.032L-59.7752 620.177C-66.0038 615.133 -68.2762 606.652 -65.404 599.17L64.9182 259.669Z" stroke="#0276FE" stroke-width="3"/>
<path opacity="0.676768" d="M65.8065 258.438C68.8089 251.007 76.2547 246.354 84.2499 246.913L446.208 272.224C454.203 272.783 460.929 278.426 462.868 286.203L550.647 638.267C552.586 646.043 549.297 654.184 542.5 658.431L234.793 850.708C227.996 854.955 219.237 854.343 213.098 849.191L-64.8551 615.961C-70.9947 610.809 -73.1188 602.29 -70.1164 594.859L65.8065 258.438Z" stroke="#0276FE" stroke-width="3"/>
<path opacity="0.686869" d="M66.7296 257.301C69.8612 249.923 77.3872 245.401 85.3714 246.1L446.023 277.652C454.007 278.351 460.633 284.111 462.436 291.92L543.875 644.67C545.678 652.48 542.247 660.562 535.377 664.69L225.058 851.148C218.188 855.276 209.441 854.511 203.393 849.253L-69.834 611.74C-75.8828 606.482 -77.8578 597.927 -74.7263 590.55L66.7296 257.301Z" stroke="#0276FE" stroke-width="3"/>
<path opacity="0.69697" d="M67.6855 256.258C70.9454 248.936 78.5491 244.546 86.5199 245.384L445.757 283.142C453.727 283.979 460.252 289.854 461.919 297.694L537.02 651.016C538.686 658.856 535.115 666.877 528.174 670.884L215.352 851.492C208.411 855.499 199.679 854.581 193.723 849.218L-74.7125 607.518C-80.6685 602.155 -82.494 593.567 -79.2341 586.245L67.6855 256.258Z" stroke="#0276FE" stroke-width="3"/>
<path opacity="0.707071" d="M68.6723 255.313C72.0594 248.049 79.7386 243.793 87.6935 244.769L445.41 288.691C453.365 289.668 459.786 295.656 461.315 303.523L530.083 657.304C531.613 665.172 527.902 673.129 520.892 677.015L205.677 851.741C198.667 855.627 189.953 854.557 184.091 849.091L-79.4907 603.297C-85.3523 597.831 -87.0276 589.212 -83.6404 581.949L68.6723 255.313Z" stroke="#0276FE" stroke-width="3"/>
<path opacity="0.717172" d="M69.6885 254.461C73.2019 247.258 80.9542 243.136 88.8909 244.251L444.981 294.296C452.918 295.412 459.233 301.511 460.625 309.404L523.067 663.531C524.459 671.423 520.61 679.315 513.533 683.078L196.035 851.895C188.958 855.657 180.264 854.435 174.498 848.868L-84.1686 599.076C-89.9339 593.508 -91.4585 584.862 -87.9451 577.658L69.6885 254.461Z" stroke="#0276FE" stroke-width="3"/>
<path opacity="0.727273" d="M70.732 253.707C74.3705 246.566 82.1936 242.58 90.1096 243.834L444.469 299.959C452.385 301.213 458.593 307.421 459.847 315.337L515.972 669.696C517.226 677.612 513.24 685.435 506.099 689.074L186.427 851.955C179.285 855.594 170.613 854.22 164.946 848.553L-88.747 594.86C-94.4142 589.193 -95.7877 580.521 -92.1491 573.379L70.732 253.707Z" stroke="#0276FE" stroke-width="3"/>
<path opacity="0.737374" d="M71.8015 253.049C75.5642 245.972 83.4556 242.123 91.3485 243.515L443.874 305.675C451.767 307.067 457.866 313.382 458.981 321.319L508.8 675.799C509.915 683.735 505.793 691.488 498.59 695.001L176.855 851.922C169.651 855.435 161.004 853.911 155.437 848.145L-93.2254 590.648C-98.7928 584.883 -100.015 576.188 -96.2521 569.112L71.8015 253.049Z" stroke="#0276FE" stroke-width="3"/>
<path opacity="0.747475" d="M72.8946 252.488C76.7802 245.478 84.7376 241.768 92.6051 243.297L443.193 311.445C451.061 312.974 457.049 319.395 458.026 327.35L501.551 681.838C502.528 689.793 498.271 697.472 491.008 700.86L167.32 851.798C160.056 855.185 151.437 853.51 145.971 847.648L-97.6048 586.445C-103.071 580.583 -104.141 571.869 -100.255 564.859L72.8946 252.488Z" stroke="#0276FE" stroke-width="3"/>
<path opacity="0.757576" d="M74.0102 252.022C78.0175 245.081 86.0384 241.51 93.878 243.177L442.428 317.263C450.268 318.93 456.143 325.454 456.981 333.425L494.228 687.81C495.066 695.781 490.676 703.385 483.354 706.645L157.824 851.58C150.502 854.84 141.914 853.014 136.551 847.058L-101.885 582.248C-107.248 576.292 -108.166 567.56 -104.158 560.619L74.0102 252.022Z" stroke="#0276FE" stroke-width="3"/>
<path opacity="0.767677" d="M75.146 251.655C79.2739 244.785 87.3559 241.354 95.1652 243.157L441.577 323.133C449.386 324.935 455.147 331.562 455.845 339.546L486.831 693.717C487.53 701.701 483.008 709.227 475.63 712.359L148.368 851.273C140.991 854.405 132.436 852.43 127.178 846.381L-106.067 578.064C-111.325 572.015 -112.09 563.268 -107.962 556.398L75.146 251.655Z" stroke="#0276FE" stroke-width="3"/>
<path opacity="0.777778" d="M76.3004 251.385C80.5475 244.588 88.6882 241.299 96.4648 243.238L440.639 329.05C448.416 330.989 454.06 337.715 454.619 345.71L479.362 699.557C479.921 707.552 475.268 714.998 467.837 718L138.955 850.878C131.524 853.88 123.005 851.756 117.853 845.616L-110.151 573.892C-115.302 567.752 -115.915 558.994 -111.668 552.197L76.3004 251.385Z" stroke="#0276FE" stroke-width="3"/>
<path opacity="0.787879" d="M77.4717 251.212C81.8368 244.49 90.0337 241.344 97.7753 243.418L439.615 335.014C447.356 337.088 452.882 343.912 453.301 351.915L471.823 705.328C472.242 713.332 467.46 720.695 459.978 723.568L129.585 850.393C122.103 853.266 113.622 850.993 108.578 844.765L-114.137 569.734C-119.181 563.506 -119.64 554.738 -115.275 548.016L77.4717 251.212Z" stroke="#0276FE" stroke-width="3"/>
<path opacity="0.79798" d="M78.6579 251.135C83.1397 244.491 91.3902 241.488 99.0944 243.697L438.501 341.02C446.206 343.229 451.611 350.148 451.891 358.158L464.213 711.028C464.493 719.038 459.583 726.316 452.052 729.058L120.261 849.82C112.729 852.561 104.289 850.141 99.3551 843.825L-118.026 565.591C-122.96 559.275 -123.266 550.5 -118.785 543.856L78.6579 251.135Z" stroke="#0276FE" stroke-width="3"/>
<path opacity="0.808081" d="M79.8575 251.157C84.4546 244.592 92.7562 241.733 100.421 244.077L437.3 347.071C444.964 349.414 450.248 356.426 450.388 364.44L456.536 716.658C456.676 724.671 451.64 731.864 444.062 734.473L110.982 849.161C103.404 851.771 95.0081 849.204 90.1847 842.803L-121.818 561.466C-126.641 555.065 -126.794 546.287 -122.197 539.721L79.8575 251.157Z" stroke="#0276FE" stroke-width="3"/>
<path opacity="0.818182" d="M81.0685 251.275C85.7794 244.791 94.1296 242.078 101.752 244.555L436.009 353.161C443.632 355.638 448.792 362.741 448.792 370.756L448.792 722.215C448.792 730.229 443.632 737.333 436.009 739.809L101.752 848.416C94.1297 850.893 85.7794 848.179 81.0685 841.695L-125.514 557.359C-130.225 550.875 -130.225 542.095 -125.514 535.611L81.0685 251.275Z" stroke="#0276FE" stroke-width="3"/>
<path opacity="0.828283" d="M82.2893 251.491C87.1126 245.091 95.509 242.524 103.087 245.133L434.629 359.292C442.207 361.901 447.243 369.093 447.103 377.107L440.984 727.699C440.844 735.713 435.56 742.725 427.895 745.068L92.5712 847.587C84.9067 849.93 76.605 847.072 72.008 840.506L-129.114 553.274C-133.711 546.709 -133.558 537.93 -128.735 531.53L82.2893 251.491Z" stroke="#0276FE" stroke-width="3"/>
<path opacity="0.838384" d="M83.5183 251.804C88.4527 245.488 96.8925 243.068 104.424 245.81L433.159 365.459C440.69 368.201 445.6 375.479 445.32 383.489L433.111 733.109C432.832 741.119 427.426 748.037 419.722 750.246L83.4413 846.673C75.737 848.883 67.4865 845.88 63.0048 839.235L-132.619 549.211C-137.101 542.566 -136.794 533.792 -131.86 527.476L83.5183 251.804Z" stroke="#0276FE" stroke-width="3"/>
<path opacity="0.848485" d="M84.7533 252.216C89.7971 245.987 98.2779 243.715 105.76 246.587L431.598 371.664C439.08 374.536 443.862 381.9 443.443 389.904L425.177 738.445C424.757 746.448 419.232 753.272 411.49 755.346L74.3632 845.679C66.6216 847.753 58.4247 844.607 54.0596 837.885L-136.03 545.173C-140.395 538.451 -139.936 529.683 -134.892 523.455L84.7533 252.216Z" stroke="#0276FE" stroke-width="3"/>
<path opacity="0.858586" d="M85.9928 252.722C91.1445 246.583 99.6637 244.459 107.095 247.461L429.946 377.902C437.377 380.904 442.03 388.35 441.471 396.345L417.181 743.703C416.622 751.698 410.978 758.424 403.202 760.363L65.3386 844.602C57.562 846.541 49.4213 843.252 45.1742 836.455L-139.347 541.159C-143.594 534.362 -142.982 525.604 -137.83 519.464L85.9928 252.722Z" stroke="#0276FE" stroke-width="3"/>
<path opacity="0.868687" d="M87.2349 253.327C92.493 247.279 101.048 245.303 108.426 248.435L428.203 384.172C435.58 387.304 440.102 394.83 439.404 402.814L409.127 748.886C408.428 756.87 402.668 763.496 394.859 765.299L56.3689 843.446C48.5596 845.248 40.4776 841.818 36.3497 834.948L-142.571 537.174C-146.699 530.304 -145.934 521.557 -140.676 515.508L87.2349 253.327Z" stroke="#0276FE" stroke-width="3"/>
<path opacity="0.878788" d="M88.4782 254.03C93.8411 248.073 102.429 246.248 109.751 249.508L426.368 390.475C433.69 393.735 438.08 401.338 437.242 409.309L401.014 753.991C400.177 761.962 394.302 768.486 386.462 770.153L47.4554 842.211C39.6159 843.877 31.5949 840.306 27.5876 833.365L-145.703 533.218C-149.71 526.277 -148.792 517.545 -143.429 511.589L88.4782 254.03Z" stroke="#0276FE" stroke-width="3"/>
<path opacity="0.888889" d="M89.7205 254.827C95.1865 248.966 103.805 247.291 111.069 250.678L424.441 396.805C431.704 400.192 435.961 407.872 434.984 415.827L392.846 759.016C391.869 766.971 385.881 773.393 378.014 774.922L38.5991 840.897C30.7317 842.427 22.7743 838.716 18.8887 831.706L-148.743 529.292C-152.628 522.282 -151.558 513.567 -146.092 507.706L89.7205 254.827Z" stroke="#0276FE" stroke-width="3"/>
<path opacity="0.89899" d="M90.9604 255.722C96.5279 249.957 105.175 248.432 112.378 251.946L422.421 403.163C429.624 406.677 433.746 414.429 432.631 422.366L384.623 763.963C383.507 771.9 377.408 778.215 369.515 779.607L29.8016 839.508C21.9087 840.9 14.0172 837.051 10.2546 829.974L-151.692 525.398C-155.454 518.321 -154.232 509.627 -148.665 503.861L90.9604 255.722Z" stroke="#0276FE" stroke-width="3"/>
<path opacity="0.909091" d="M92.1963 256.714C97.8635 251.047 106.535 249.674 113.677 253.312L420.308 409.549C427.45 413.187 431.436 421.011 430.182 428.927L376.346 768.831C375.093 776.747 368.884 782.955 360.968 784.209L21.064 838.044C13.148 839.298 5.32497 835.312 1.68639 828.171L-154.55 521.539C-158.189 514.398 -156.815 505.726 -151.148 500.059L92.1963 256.714Z" stroke="#0276FE" stroke-width="3"/>
<path opacity="0.919192" d="M93.4262 257.8C99.1915 252.232 107.886 251.01 114.963 254.773L418.103 415.956C425.18 419.718 429.029 427.61 427.637 435.503L368.019 773.615C366.627 781.508 360.311 787.607 352.374 788.722L12.3877 836.504C4.45098 837.62 -3.30131 833.498 -6.81471 826.294L-157.32 517.713C-160.833 510.509 -159.309 501.863 -153.543 496.295L93.4262 257.8Z" stroke="#0276FE" stroke-width="3"/>
<path opacity="0.929293" d="M94.6483 258.982C100.51 253.516 109.224 252.446 116.234 256.332L415.805 422.386C422.814 426.272 426.525 434.229 424.996 442.097L359.641 778.318C358.111 786.186 351.69 792.174 343.735 793.151L3.77347 834.893C-4.18149 835.869 -11.8607 831.613 -15.2478 824.349L-160.001 513.925C-163.388 506.661 -161.713 498.043 -155.851 492.577L94.6483 258.982Z" stroke="#0276FE" stroke-width="3"/>
<path opacity="0.939394" d="M95.8612 260.259C101.817 254.897 110.549 253.979 117.49 257.986L413.413 428.837C420.353 432.844 423.925 440.865 422.258 448.705L351.215 782.94C349.548 790.779 343.023 796.654 335.053 797.492L-4.77738 833.21C-12.7482 834.047 -20.3519 829.657 -23.6117 822.336L-162.594 510.175C-165.854 502.854 -164.029 494.265 -158.073 488.903L95.8612 260.259Z" stroke="#0276FE" stroke-width="3"/>
<path opacity="0.949495" d="M97.0631 261.633C103.112 256.375 111.858 255.61 118.728 259.738L410.927 435.308C417.797 439.436 421.228 447.518 419.425 455.328L342.741 787.479C340.939 795.289 334.312 801.049 326.328 801.747L-13.2636 831.458C-21.2477 832.156 -28.7737 827.634 -31.9053 820.257L-165.101 506.467C-168.233 499.089 -166.258 490.534 -160.209 485.276L97.0631 261.633Z" stroke="#0276FE" stroke-width="3"/>
<path opacity="0.959596" d="M98.2525 263.099C104.392 257.947 113.151 257.335 119.948 261.582L408.348 441.794C415.145 446.041 418.434 454.182 416.495 461.959L334.223 791.933C332.284 799.709 325.558 805.353 317.563 805.912L-21.6839 829.635C-29.6791 830.194 -37.1249 825.541 -40.1273 818.11L-167.522 502.797C-170.524 495.366 -168.4 486.847 -162.261 481.695L98.2525 263.099Z" stroke="#0276FE" stroke-width="3"/>
<path opacity="0.969697" d="M99.4274 264.66C105.656 259.616 114.424 259.157 121.146 263.522L405.675 448.297C412.397 452.662 415.543 460.859 413.469 468.601L325.661 796.303C323.587 804.045 316.764 809.57 308.76 809.99L-30.0377 827.745C-38.0414 828.165 -45.4049 823.383 -48.2771 815.901L-169.858 499.172C-172.73 491.689 -170.458 483.208 -164.229 478.165L99.4274 264.66Z" stroke="#0276FE" stroke-width="3"/>
<path opacity="0.979798" d="M100.586 266.312C106.902 261.378 115.677 261.071 122.321 265.553L402.909 454.812C409.553 459.293 412.556 467.544 410.347 475.248L317.058 800.587C314.848 808.291 307.93 813.696 299.92 813.976L-38.3235 825.788C-46.3333 826.068 -53.6122 821.158 -56.3534 813.627L-172.11 495.588C-174.851 488.057 -172.431 479.617 -166.115 474.682L100.586 266.312Z" stroke="#0276FE" stroke-width="3"/>
<path opacity="0.989899" d="M101.728 268.059C108.129 263.236 116.907 263.083 123.472 267.68L400.048 461.34C406.613 465.937 409.472 474.239 407.129 481.903L308.413 804.787C306.07 812.451 299.058 817.735 291.044 817.875L-46.5406 823.768C-54.554 823.907 -61.7462 818.871 -64.3555 811.293L-174.279 492.052C-176.889 484.474 -174.321 476.077 -167.921 471.254L101.728 268.059Z" stroke="#0276FE" stroke-width="3"/>
<path d="M102.85 269.899C109.334 265.188 118.114 265.188 124.598 269.899L397.094 467.879C403.578 472.589 406.291 480.94 403.814 488.562L299.73 808.9C297.254 816.523 290.15 821.683 282.136 821.683H-54.6876C-62.7022 821.683 -69.8054 816.523 -72.2821 808.9L-176.366 488.562C-178.843 480.94 -176.13 472.59 -169.646 467.879L102.85 269.899Z" stroke="#0276FE" stroke-width="3"/>
</g>
</svg>
