<?xml version="1.0" standalone="no"?>
<!DOCTYPE svg PUBLIC "-//W3C//DTD SVG 20010904//EN"
 "http://www.w3.org/TR/2001/REC-SVG-20010904/DTD/svg10.dtd">
<svg version="1.0" xmlns="http://www.w3.org/2000/svg"
 width="1708.000000pt" height="728.000000pt" viewBox="0 0 1708.000000 728.000000"
 preserveAspectRatio="xMidYMid meet">

<g transform="translate(0.000000,728.000000) scale(0.100000,-0.100000)"
fill="#000000" stroke="none">
<path d="M11218 7243 c12 -2 32 -2 45 0 12 2 2 4 -23 4 -25 0 -35 -2 -22 -4z"/>
<path d="M11493 7243 c26 -2 67 -2 90 0 23 2 2 3 -48 3 -49 0 -68 -1 -42 -3z"/>
<path d="M10823 7233 c9 -2 23 -2 30 0 6 3 -1 5 -18 5 -16 0 -22 -2 -12 -5z"/>
<path d="M11843 7233 c15 -2 39 -2 55 0 15 2 2 4 -28 4 -30 0 -43 -2 -27 -4z"/>
<path d="M13215 7218 c-22 -11 -44 -27 -48 -34 -6 -10 -33 -14 -100 -15 l-92
-1 140 -13 c77 -8 174 -16 215 -19 l75 -6 -40 19 c-22 11 -34 20 -27 20 6 1
12 14 12 30 0 24 -5 29 -31 35 -45 9 -59 6 -104 -16z"/>
<path d="M10018 7225 c-3 -3 -399 -8 -880 -9 -899 -3 -1037 -8 -1418 -51 -367
-42 -527 -90 -780 -235 -53 -30 -137 -66 -213 -90 -94 -30 -145 -53 -204 -93
-71 -46 -117 -70 -218 -111 -52 -22 -170 -79 -175 -86 -12 -15 -102 -71 -185
-116 -180 -95 -259 -134 -272 -134 -8 0 -12 -4 -9 -9 7 -10 -22 -24 -34 -16
-4 3 -39 -12 -77 -33 -121 -69 -265 -142 -278 -142 -14 0 -161 -76 -185 -95
-8 -7 -82 -54 -165 -105 -170 -106 -587 -384 -747 -498 -58 -43 -168 -122
-245 -176 -76 -55 -151 -112 -168 -127 -50 -44 -84 -55 -220 -69 -71 -7 -179
-25 -240 -40 -166 -42 -240 -53 -725 -110 -41 -5 -106 -14 -145 -19 -38 -6
-117 -18 -175 -26 -220 -30 -389 -65 -750 -152 -220 -53 -341 -96 -549 -195
-46 -22 -93 -44 -105 -49 -70 -30 -201 -117 -257 -171 -10 -9 -20 -14 -23 -10
-3 3 -6 -2 -6 -10 0 -9 -7 -29 -15 -44 -8 -16 -15 -25 -15 -21 0 4 -10 -2 -23
-14 -12 -11 -38 -31 -57 -44 -19 -12 -53 -39 -75 -58 -22 -20 -46 -37 -52 -37
-17 0 -17 -17 0 -23 6 -3 3 -6 -8 -7 -27 -2 -57 -43 -83 -113 -26 -69 -29
-117 -7 -117 13 0 58 51 117 133 12 17 18 17 85 3 80 -17 399 -48 728 -70 676
-47 1052 -75 1070 -82 18 -7 30 -48 19 -66 -6 -9 -2 -8 13 2 12 8 56 39 99 69
42 30 99 63 128 73 l51 20 -25 -27 c-13 -14 -43 -35 -65 -45 -64 -30 -135 -73
-236 -142 -148 -103 -143 -101 -314 -106 -230 -6 -1149 44 -1420 78 -111 14
-145 11 -55 -5 85 -15 562 -59 814 -75 159 -10 706 -33 770 -32 l28 0 -30 -31
c-28 -28 -35 -30 -94 -28 -82 2 -266 18 -348 31 -36 5 -189 19 -340 30 -151
11 -370 27 -486 35 -116 9 -230 13 -255 10 -32 -4 -38 -3 -24 4 16 8 9 10 -30
10 -27 1 -79 8 -115 17 -36 8 -75 12 -87 9 -19 -4 -23 -1 -24 17 0 13 -3 18
-5 11 -3 -7 -11 -10 -18 -7 -27 10 -105 -131 -125 -226 -4 -19 -14 -52 -21
-72 -11 -30 -11 -47 -1 -92 9 -41 10 -65 2 -91 -6 -19 -16 -51 -22 -70 -10
-36 -1 -84 25 -130 7 -13 13 -120 18 -290 7 -293 16 -374 47 -416 25 -34 15
-80 -23 -110 -45 -36 -34 -46 53 -47 43 0 195 -14 337 -31 142 -16 282 -32
309 -35 28 -2 70 -7 95 -10 25 -3 95 -11 155 -16 61 -6 157 -17 215 -25 58 -8
137 -16 175 -19 568 -45 658 -65 686 -149 10 -31 30 -54 83 -96 71 -57 143
-121 116 -104 -8 6 -60 44 -115 85 -115 86 -182 123 -263 143 -31 8 -205 30
-387 50 -478 52 -830 97 -1290 165 -33 5 -84 14 -114 20 -29 5 -58 10 -62 10
-52 0 -90 -304 -54 -426 11 -39 29 -63 89 -121 93 -90 130 -108 231 -117 71
-5 191 -31 354 -74 43 -11 64 -25 110 -72 63 -64 47 -59 319 -104 127 -20 136
-23 180 -61 26 -22 74 -73 107 -114 85 -107 197 -200 281 -234 38 -16 85 -35
104 -44 102 -44 413 -91 680 -101 151 -5 377 21 470 54 125 45 259 123 410
237 l64 49 172 -4 c171 -4 173 -4 214 -33 23 -16 61 -48 84 -71 37 -37 51 -43
153 -68 114 -28 312 -41 341 -23 7 5 12 31 12 68 0 64 18 112 47 124 10 3 54
9 98 11 72 4 83 2 107 -18 15 -13 42 -52 61 -88 125 -237 116 -223 223 -362
102 -132 270 -257 440 -328 27 -11 58 -25 69 -32 23 -13 89 -32 195 -55 98
-21 653 -31 727 -13 26 6 100 20 163 30 63 10 155 33 204 49 113 40 336 154
401 205 71 56 171 162 216 227 31 46 137 256 237 469 12 25 34 60 49 78 38 45
120 61 344 66 197 3 417 19 594 41 207 26 405 44 545 50 375 15 490 24 521 41
25 12 71 17 223 20 105 2 241 8 303 13 62 6 181 13 265 17 135 6 163 4 238
-14 47 -11 146 -25 220 -32 74 -7 146 -16 160 -20 73 -25 471 -18 605 11 76
16 196 69 235 103 45 40 64 50 142 78 54 19 86 22 231 24 93 1 187 5 210 8 23
3 105 10 182 16 77 5 199 14 270 19 72 6 213 13 313 16 101 3 187 7 192 10 13
8 494 -14 545 -25 33 -7 51 -8 59 0 15 15 26 12 26 -8 0 -10 16 -34 36 -53 20
-18 44 -51 55 -71 11 -21 26 -38 34 -38 15 0 88 -48 155 -101 19 -16 89 -68
155 -117 166 -123 191 -148 228 -220 37 -73 54 -85 191 -127 85 -26 99 -27
305 -28 122 0 253 5 301 12 47 7 112 15 145 18 78 7 245 87 300 143 22 22 46
40 53 40 8 0 34 18 58 40 24 22 52 40 63 40 23 0 108 86 135 138 37 69 60 104
104 156 23 28 57 80 74 116 28 57 32 74 30 135 -2 76 14 138 55 210 18 33 23
52 18 78 -7 36 16 107 34 107 22 0 204 96 237 124 43 39 125 176 164 279 30
77 31 79 40 367 5 160 12 296 17 303 20 31 31 461 13 522 -5 17 -14 66 -20
110 -9 67 -34 163 -90 341 -6 17 -10 41 -10 55 0 13 -7 42 -15 64 -8 22 -14
63 -15 92 0 28 -5 64 -11 80 -9 24 -18 111 -21 208 0 17 7 61 16 100 9 42 16
113 16 176 0 98 -2 110 -31 167 -17 34 -35 62 -41 62 -6 0 -8 6 -5 14 3 7 0
19 -6 25 -6 6 -11 39 -12 74 0 45 -7 72 -22 97 -33 53 -176 184 -273 250 -75
51 -132 104 -152 144 -12 22 -21 44 -20 49 1 4 -3 7 -8 7 -6 0 -10 7 -10 15 0
9 -12 20 -26 25 -14 6 -71 54 -127 109 -104 101 -271 251 -319 288 -63 48
-190 170 -208 201 -23 39 -28 163 -8 235 10 38 9 48 -13 91 -30 61 -52 69
-232 91 -317 39 -699 105 -747 129 -16 8 -38 12 -49 9 -10 -2 -36 4 -57 15
-88 45 -220 74 -459 101 -520 60 -1321 127 -1950 163 -350 20 -1272 17 -1530
-5 -115 -10 -212 -21 -215 -24 -3 -3 29 -3 70 1 233 20 622 36 880 36 388 0
1099 -32 1545 -70 656 -55 1146 -104 1360 -135 112 -17 245 -53 245 -67 0 -5
-8 -7 -17 -4 -10 3 -90 12 -178 21 -88 9 -169 18 -180 20 -48 11 -596 68 -845
90 -669 57 -1320 87 -1875 88 -523 1 -758 -14 -1165 -74 -162 -24 -413 -85
-514 -125 -14 -5 -17 -4 -12 4 4 7 -15 -1 -41 -18 -26 -16 -61 -32 -78 -36
-26 -7 -23 -2 28 39 123 101 261 174 392 207 77 20 357 68 413 72 45 2 -115
17 -258 24 -74 3 -138 3 -142 -1z m-148 -99 c0 -2 -19 -11 -42 -19 -78 -27
-84 -28 -33 -3 47 23 75 31 75 22z m2400 -66 c324 -17 644 -40 830 -60 237
-24 403 -38 615 -50 94 -6 177 -12 185 -15 8 -2 78 -9 155 -15 76 -5 178 -16
225 -24 47 -8 121 -19 165 -26 44 -6 107 -18 140 -27 54 -13 118 -23 257 -39
54 -7 75 -28 125 -129 57 -112 61 -108 -69 -74 -342 89 -966 197 -1508 263
-341 42 -535 61 -1015 98 -232 18 -1253 18 -1460 0 -491 -43 -826 -117 -1118
-248 -386 -172 -881 -530 -1412 -1020 -180 -167 -570 -556 -712 -711 -57 -62
-103 -109 -103 -105 0 4 15 23 33 43 55 61 102 122 100 130 -2 5 5 5 14 2 10
-4 14 -2 10 4 -5 8 556 572 639 642 97 82 233 215 227 224 -3 6 -1 7 5 3 14
-8 140 93 141 113 1 8 4 12 7 8 5 -5 105 70 170 128 6 6 64 50 128 98 69 52
114 93 110 99 -4 6 -3 9 2 5 10 -5 40 12 42 26 1 4 4 6 7 5 2 -2 10 5 17 15 7
10 23 19 35 20 12 0 20 4 17 8 -5 9 88 82 156 123 49 30 108 70 127 86 7 5 15
10 18 10 4 0 21 11 38 24 18 13 64 38 102 56 68 31 79 36 120 57 11 6 31 15
45 20 14 6 52 22 85 36 33 14 94 36 135 48 41 11 86 25 100 30 14 4 63 15 108
24 46 8 88 17 92 20 14 9 278 43 375 49 50 3 191 11 315 17 124 6 227 13 229
15 9 8 782 3 951 -6z m-879 -141 c-3 -3 -121 -13 -261 -22 -738 -47 -1111
-146 -1570 -415 -312 -182 -724 -503 -1126 -875 -102 -95 -249 -231 -327 -303
-118 -109 -143 -128 -145 -111 -3 16 28 52 122 145 69 68 130 121 134 118 5
-3 18 4 28 17 l19 22 -25 -20 c-14 -11 -7 -1 14 22 22 23 44 39 49 36 6 -3 7
-1 4 4 -4 6 46 60 111 120 621 578 1174 953 1637 1111 230 78 553 132 975 162
376 27 355 26 361 10 4 -8 4 -18 0 -21z m679 21 c365 -17 664 -39 975 -71 251
-26 763 -97 785 -109 9 -5 22 -16 30 -24 17 -21 28 -22 -262 19 -627 88 -1419
155 -1848 155 -96 0 -212 3 -257 7 -74 5 -83 8 -83 26 0 20 4 20 223 13 122
-3 319 -11 437 -16z m-442 -56 c25 -5 34 -14 46 -48 l15 -41 -2 35 c-2 33 0
35 33 39 35 3 339 -11 645 -30 305 -19 1028 -89 1197 -116 45 -7 54 -16 210
-218 136 -177 162 -214 154 -222 -20 -21 -1228 -68 -1575 -61 -91 1 -93 2 -31
7 124 11 32 21 -211 22 -131 1 -242 5 -244 10 -3 4 -12 6 -19 3 -16 -6 -31 29
-50 116 -31 141 -38 170 -43 170 -3 0 -3 -17 1 -37 17 -98 34 -218 31 -221 -2
-2 -6 6 -10 19 -7 20 -11 21 -69 14 -33 -5 -78 -9 -99 -9 -31 -1 -37 -4 -33
-18 2 -10 0 -18 -5 -18 -5 0 -11 10 -13 23 -2 12 -19 99 -37 192 -17 94 -44
221 -59 283 l-27 112 82 0 c45 0 96 -3 113 -6z m-223 -14 c7 -11 61 -270 80
-385 33 -204 37 -236 31 -242 -3 -3 -6 7 -6 23 0 53 -1 53 -132 46 -31 -2 -38
-6 -38 -22 0 -11 -7 -20 -15 -20 -8 0 -15 9 -15 20 0 11 -5 20 -11 20 -6 0 -9
-8 -7 -18 3 -10 0 -22 -7 -28 -8 -8 -14 13 -24 85 -7 53 -28 188 -47 300 -19
112 -34 207 -34 212 0 16 215 25 225 9z m-272 -47 c62 -416 67 -469 45 -491
-13 -13 -70 -17 -81 -5 -11 10 -69 14 -81 5 -13 -10 -59 -9 -295 7 -96 7 -182
16 -191 21 -9 5 -26 7 -38 4 -11 -3 -28 -1 -38 4 -12 6 -25 7 -36 1 -10 -5
-19 -5 -22 0 -10 15 -64 -17 -118 -71 l-51 -50 -55 11 c-31 6 -77 11 -103 11
-26 0 -49 5 -51 10 -2 6 -29 14 -61 17 -32 3 -60 10 -63 14 -3 5 -18 9 -33 9
-16 0 -46 8 -68 18 -42 19 -47 45 -12 70 24 17 25 51 2 59 -10 4 -24 15 -31
25 -13 19 -51 20 -97 3 -11 -4 -5 3 14 15 18 11 40 19 48 16 8 -3 11 -1 8 4
-6 10 108 67 241 121 241 97 666 179 1049 202 123 8 112 11 118 -30z m3821
-50 c3 -4 14 -8 24 -9 84 -10 151 -30 277 -83 88 -38 117 -56 126 -78 5 -14
17 -23 31 -23 14 -1 -20 -21 -81 -52 l-105 -51 -73 37 c-40 20 -80 36 -89 36
-9 0 -28 29 -49 74 -19 41 -45 93 -60 115 -22 35 -23 55 -1 34z m-843 -43
c326 -54 441 -79 830 -178 162 -42 229 -65 229 -79 0 -5 21 -15 48 -22 49 -14
191 -96 327 -189 194 -133 762 -569 753 -578 -2 -2 -35 3 -72 11 -108 23 -654
112 -836 137 l-165 22 -55 50 c-30 28 -111 105 -180 171 -140 135 -506 460
-581 517 -36 26 -44 37 -32 40 9 2 -91 21 -222 42 -223 37 -275 51 -275 78 0
13 35 10 231 -22z m-305 -30 c54 -11 101 -24 104 -28 3 -4 33 -38 66 -77 85
-99 223 -271 268 -332 l37 -52 -58 25 c-72 32 -169 64 -195 64 -23 0 -17 -6
-212 238 -106 132 -140 182 -127 182 10 0 63 -9 117 -20z m342 -40 l173 -29
101 -88 c56 -48 138 -123 182 -165 l81 -77 -40 9 c-22 5 -86 10 -143 10 -120
0 -118 6 -24 -100 35 -38 59 -70 53 -70 -12 0 -76 61 -134 128 l-38 43 -64 -3
c-35 -1 -65 0 -67 2 -60 78 -169 215 -226 283 -64 76 -71 87 -50 87 13 0 101
-13 196 -30z m1275 -122 c-13 -21 -12 -37 3 -49 8 -6 14 -23 14 -37 0 -13 8
-32 18 -41 10 -9 21 -24 25 -33 5 -15 2 -16 -18 -8 -14 5 -25 6 -25 1 0 -5 14
-11 31 -15 17 -3 28 -10 25 -14 -3 -5 6 -15 19 -22 14 -7 25 -17 25 -22 0 -5
-26 8 -57 28 -32 21 -98 61 -147 91 l-89 52 64 29 c35 15 75 33 89 39 33 15
32 15 23 1z m-4136 -335 c-3 -10 -5 -4 -5 12 0 17 2 24 5 18 2 -7 2 -21 0 -30z
m781 0 c-10 -2 -26 -2 -35 0 -10 3 -2 5 17 5 19 0 27 -2 18 -5z m105 0 c-7 -2
-19 -2 -25 0 -7 3 -2 5 12 5 14 0 19 -2 13 -5z m3007 -333 c14 -10 23 -21 20
-23 -3 -2 -104 -48 -224 -101 l-219 -97 -23 23 -23 23 157 69 c86 38 184 82
217 97 33 15 62 28 65 28 3 0 16 -8 30 -19z m109 -46 c2 -2 -14 -4 -36 -4 -41
0 -173 -54 -173 -70 0 -5 18 -9 40 -8 23 0 46 -6 55 -15 11 -12 23 -13 45 -7
22 6 34 5 44 -5 12 -13 85 -16 96 -5 15 15 52 30 60 25 13 -8 135 -25 240 -33
108 -9 218 4 199 22 -4 5 -168 35 -229 43 -143 17 -325 44 -329 48 -10 10 67
4 198 -16 226 -34 493 -79 551 -93 l55 -12 6 -45 c7 -54 19 -89 30 -89 5 0 39
-29 76 -66 42 -40 93 -77 133 -96 36 -18 73 -42 83 -55 10 -13 23 -23 29 -23
19 0 105 -100 94 -109 -15 -12 -154 -28 -406 -46 -118 -9 -269 -20 -335 -25
-66 -5 -208 -14 -315 -20 -107 -6 -211 -12 -231 -15 -36 -5 -37 -4 -69 61 -37
76 -108 155 -247 273 -115 99 -201 194 -181 200 7 2 42 17 78 34 36 16 108 48
160 72 52 23 117 53 145 67 37 19 59 24 90 20 22 -2 42 -6 44 -8z m-576 -158
c16 -24 16 -24 -26 -41 -209 -85 -473 -148 -759 -180 -133 -15 -575 -59 -903
-90 -319 -31 -772 -75 -870 -86 -237 -25 -450 -47 -452 -46 -1 1 -4 14 -8 28
-7 30 -25 26 255 54 85 8 198 19 250 25 52 5 145 14 205 20 61 6 151 15 200
20 79 9 625 62 915 90 646 62 812 91 1075 193 50 19 93 35 96 36 4 1 14 -10
22 -23z m222 -227 c158 -136 275 -272 275 -320 0 -20 -9 -21 -345 -44 -364
-25 -1068 -80 -1160 -90 -50 -5 -339 -30 -695 -60 -102 -8 -228 -19 -280 -25
-83 -9 -373 -36 -769 -72 -134 -12 -141 -10 -141 42 0 33 -45 200 -67 247 -26
57 -26 60 -3 34 19 -22 22 -22 38 -8 9 8 28 17 42 19 14 1 28 7 32 13 4 5 17
4 33 -5 23 -12 28 -12 35 0 9 13 10 13 10 0 0 -10 3 -11 11 -3 6 6 28 9 50 6
35 -5 39 -4 39 17 0 17 4 21 17 16 9 -4 19 -2 23 4 3 6 39 12 80 15 40 3 76 8
79 11 3 4 -41 4 -99 1 -91 -4 -96 -4 -35 4 184 23 959 96 1535 144 102 8 214
17 250 20 36 3 88 10 115 15 134 26 211 42 225 45 8 3 56 15 105 28 105 28
339 105 375 124 23 12 28 9 100 -61 41 -40 98 -93 125 -117z m-5997 149 c26
-5 56 -10 66 -12 11 -1 21 -7 23 -13 3 -7 -11 -8 -39 -2 -24 4 -113 9 -198 9
-141 1 -152 2 -120 15 40 15 195 17 268 3z m-208 -163 c174 -15 265 -36 298
-69 12 -12 12 -18 1 -42 -25 -51 -46 -53 -623 -68 -83 -2 -101 -6 -112 -21
-13 -17 -14 -15 -14 23 0 53 18 98 58 143 25 28 39 35 73 38 24 1 45 3 46 5 9
8 120 5 273 -9z m698 -35 c21 -25 49 -83 57 -117 l7 -33 -55 0 c-46 0 -63 6
-111 37 -35 23 -59 47 -63 62 -6 26 0 33 76 77 38 23 49 20 89 -26z m2247
-140 c0 -20 -5 -26 -30 -28 -47 -4 -736 -78 -1095 -118 -627 -68 -1055 -112
-1059 -108 -2 2 -1 14 3 27 5 22 13 24 113 35 115 13 978 106 1128 122 319 34
687 73 785 85 149 16 155 16 155 -15z m-2145 -45 c0 -19 -5 -25 -23 -25 -17 0
-23 6 -25 25 -1 21 3 25 23 25 20 0 25 -5 25 -25z m2458 18 c-10 -2 -28 -2
-40 0 -13 2 -5 4 17 4 22 1 32 -1 23 -4z m-95 -10 c-7 -2 -21 -2 -30 0 -10 3
-4 5 12 5 17 0 24 -2 18 -5z m-94 -7 c-2 -2 -24 -6 -49 -9 -30 -4 -38 -3 -25
3 19 8 83 14 74 6z m-279 -26 c0 -5 -15 -10 -32 -9 -31 1 -32 1 -8 9 35 11 40
11 40 0z m99 6 c-8 -8 -78 -10 -85 -3 -4 4 14 7 41 7 27 0 46 -2 44 -4z m83
-45 c-3 -8 -1 -12 5 -8 19 12 86 -175 99 -274 l6 -46 -73 -6 c-102 -9 -242
-23 -459 -46 -102 -11 -250 -27 -330 -35 -80 -8 -185 -20 -235 -26 -49 -6
-232 -26 -405 -45 -173 -19 -414 -46 -535 -60 -121 -14 -337 -39 -480 -55
-143 -16 -290 -34 -327 -40 -37 -5 -94 -10 -128 -10 -57 0 -60 1 -50 19 5 11
10 32 10 48 1 32 30 98 45 99 10 0 55 19 86 34 9 5 52 16 95 25 44 8 102 22
129 30 28 8 67 17 88 20 20 3 37 11 37 17 0 7 20 9 56 6 30 -3 78 1 107 9 28
7 66 13 83 13 18 0 40 8 49 17 19 18 83 31 157 32 29 1 53 7 63 18 11 10 32
16 61 15 31 0 44 4 44 14 0 8 9 14 19 14 11 0 21 5 23 11 5 15 112 32 116 19
2 -6 31 -9 65 -9 54 1 57 3 27 9 l-35 7 38 2 c21 0 51 8 67 16 17 9 30 11 30
5 0 -5 21 -9 48 -9 46 2 46 2 12 9 -28 6 -30 8 -10 9 14 0 40 -3 58 -8 18 -6
30 -6 27 -2 -6 11 89 32 136 31 19 0 64 6 100 14 91 21 128 27 179 33 25 3 49
9 55 14 5 5 22 9 38 9 16 0 26 4 22 10 -6 9 15 12 145 15 25 1 50 3 55 5 17 5
37 7 95 9 67 2 50 20 -20 22 l-45 2 55 7 c30 5 71 8 90 8 l35 0 -30 -7 -30 -7
35 -7 c64 -13 279 -6 291 9 6 8 27 14 46 14 21 0 36 6 39 15 6 14 8 13 19 -2
7 -9 10 -24 7 -32z m-2749 25 c7 -18 -41 -32 -56 -17 -8 8 -6 11 7 11 9 0 14
5 11 10 -3 6 3 10 13 10 11 0 22 -6 25 -14z m2480 3 c-11 -11 -103 -18 -103
-7 0 4 21 9 48 11 26 2 51 4 57 5 5 1 4 -3 -2 -9z m-3512 -28 c-6 -30 -134
-181 -153 -181 -10 0 3 17 92 121 25 29 38 49 30 44 -8 -4 -4 4 9 18 14 15 25
27 26 27 2 0 0 -13 -4 -29z m3125 -10 c-3 -4 -36 -11 -74 -14 -38 -4 -84 -10
-103 -13 -20 -4 -31 -3 -26 2 5 5 52 14 105 20 53 6 98 12 100 13 2 0 1 -3 -2
-8z m62 2 c-10 -2 -26 -2 -35 0 -10 3 -2 5 17 5 19 0 27 -2 18 -5z m5415 -40
c-37 -7 -26 -22 13 -19 24 3 37 -1 41 -10 4 -11 29 -14 107 -14 84 -1 105 -4
124 -19 29 -25 29 -37 0 -17 -13 9 -40 15 -63 15 -22 -1 -30 -4 -18 -6 12 -2
41 -23 64 -45 38 -37 40 -42 25 -53 -16 -12 -15 -14 8 -33 l25 -19 -19 -54
c-32 -92 -40 -112 -45 -107 -3 3 5 37 18 76 13 39 19 68 14 65 -5 -3 -6 4 -2
18 6 16 -14 2 -61 -46 -37 -39 -67 -73 -66 -77 3 -11 -16 -10 -22 1 -3 5 3 20
14 34 11 14 20 28 20 32 0 3 12 22 26 41 l26 34 -28 0 c-16 0 -46 -11 -67 -26
-21 -14 -51 -27 -67 -29 -29 -3 -29 -3 -14 20 15 23 15 23 -38 27 -29 2 -69
-1 -88 -8 -33 -11 -38 -9 -65 13 -20 17 -24 23 -11 19 19 -7 19 -6 1 14 -19
21 -41 28 -29 8 4 -7 3 -8 -5 -4 -6 4 -9 12 -6 17 4 5 1 9 -4 9 -6 0 -11 5
-11 10 0 6 22 10 49 10 57 0 105 15 96 30 -3 5 -32 10 -63 11 -70 1 -97 9 -97
29 0 10 -18 19 -55 26 -63 13 -52 22 35 27 89 5 263 5 238 0z m-5880 -10 c-13
-2 -33 -2 -45 0 -13 2 -3 4 22 4 25 0 35 -2 23 -4z m-123 -13 c-14 -4 -41 -8
-60 -8 l-35 1 40 7 c57 10 87 10 55 0z m5804 -220 c65 -58 125 -111 132 -118
8 -7 44 -38 81 -69 40 -32 67 -61 65 -70 -2 -11 2 -14 12 -10 9 3 19 0 23 -6
5 -7 29 -28 56 -47 26 -18 47 -39 47 -47 0 -7 6 -13 13 -13 16 -1 52 -50 36
-50 -9 0 -10 -21 -4 -77 11 -125 6 -182 -25 -273 -22 -67 -31 -118 -41 -239
l-12 -154 -45 49 c-32 36 -38 40 -20 14 38 -55 65 -131 57 -160 -3 -14 -4 -35
-2 -47 3 -13 0 -23 -6 -23 -11 0 -15 13 -12 38 1 6 -9 12 -22 12 -15 0 -43 19
-78 53 -30 29 -65 61 -79 70 -14 10 -18 15 -10 12 8 -4 3 5 -12 19 -16 14 -28
33 -29 43 0 11 -3 13 -6 5 -4 -10 -9 -8 -21 5 -10 10 -42 34 -72 53 -30 19
-57 37 -60 40 -16 18 -106 70 -131 75 -16 4 -31 11 -35 16 -8 14 -73 39 -99
39 -13 0 -25 7 -29 15 -3 8 -13 15 -23 15 -15 0 -16 -2 -3 -10 22 -14 11 -12
-56 9 -118 37 -420 58 -584 40 -217 -23 -302 -39 -316 -56 -20 -26 -17 -2 6
49 18 42 22 44 52 41 25 -3 29 -2 18 6 -8 6 -23 11 -34 11 -15 0 -16 2 -6 15
7 9 19 14 27 11 7 -3 13 -1 13 5 0 6 4 8 9 5 5 -3 23 2 41 11 18 8 52 18 76
21 24 2 44 8 44 12 0 4 19 10 43 14 23 3 78 13 122 21 162 30 442 14 580 -32
28 -10 52 -18 55 -18 43 -7 251 -104 280 -131 39 -36 132 -105 136 -101 3 2
-12 17 -33 33 -21 16 -42 32 -48 36 -114 90 -297 186 -408 214 -222 55 -229
56 -392 56 -179 0 -300 -17 -432 -61 -46 -15 -83 -25 -83 -22 0 3 11 40 24 81
49 153 75 320 92 591 l6 96 121 11 c67 7 239 21 382 32 143 11 294 24 335 28
l75 7 45 -45 c25 -25 99 -92 164 -150z m-6120 180 c-6 -6 -21 -6 -39 -1 -30 9
-30 9 10 10 25 1 36 -2 29 -9z m-1651 -47 c-7 -2 -19 -2 -25 0 -7 3 -2 5 12 5
14 0 19 -2 13 -5z m6633 -35 c-3 -13 -8 -63 -11 -113 -14 -205 -53 -451 -92
-580 l-19 -60 -140 -70 c-77 -38 -151 -78 -166 -88 -31 -21 -65 -29 -73 -16
-4 5 -15 9 -26 9 -10 0 -19 7 -19 15 0 8 -4 15 -8 15 -5 0 -19 9 -32 20 -15
13 -31 18 -46 14 -13 -3 -24 -2 -24 2 0 11 -71 34 -107 34 -16 1 -55 7 -88 15
-72 18 -686 20 -1067 5 -130 -5 -305 -12 -390 -15 -84 -3 -180 -7 -213 -10
-79 -6 -196 -16 -237 -21 -18 -2 -89 -8 -158 -14 -69 -5 -165 -14 -215 -19
-49 -5 -119 -11 -155 -12 l-65 -3 -6 125 c-4 68 -10 180 -14 249 l-8 126 84
11 c46 6 158 23 249 38 339 54 896 134 1150 164 418 51 1082 123 1087 117 2
-2 -20 -15 -49 -30 -81 -40 -128 -84 -138 -131 -19 -83 12 -109 155 -130 22
-4 58 -15 80 -26 90 -45 270 -33 323 21 15 15 50 36 77 46 28 10 62 31 78 47
25 26 27 34 24 88 -2 35 -9 65 -18 73 -14 13 -111 48 -179 64 -39 10 -49 8
200 33 63 6 142 15 175 19 33 4 66 8 73 9 8 1 11 -7 8 -21z m-394 -83 c76 -16
139 -44 101 -45 -25 0 -36 -13 -39 -48 -2 -13 -5 -26 -8 -29 -3 -3 -85 -12
-183 -19 -98 -8 -196 -18 -218 -24 -49 -12 -88 -13 -81 -2 3 5 -17 15 -44 22
-28 8 -50 19 -50 25 0 14 217 55 292 55 88 0 159 12 165 27 3 8 -3 23 -12 33
-22 24 -15 25 77 5z m-367 -49 c6 -2 -4 -5 -22 -8 -18 -2 -30 -1 -27 4 3 4
-10 8 -28 8 -23 0 -29 3 -19 9 11 7 35 4 96 -13z m-208 -108 c-3 -8 -6 -5 -6
6 -1 11 2 17 5 13 3 -3 4 -12 1 -19z m-9252 -84 c-29 -11 -142 -30 -155 -25
-8 3 12 11 45 17 57 11 131 17 110 8z m-201 -36 c-3 -4 -21 -8 -40 -8 -19 0
-42 -4 -52 -10 -22 -13 -182 -38 -182 -29 0 4 25 10 55 14 30 3 55 11 55 16 0
5 12 9 28 9 15 0 33 4 41 9 18 11 102 11 95 -1z m9775 -24 c2 -2 -7 -4 -22 -4
-14 0 -29 5 -32 10 -6 10 42 4 54 -6z m-2914 -23 l30 -8 -37 -18 c-21 -10 -38
-22 -38 -27 0 -4 -9 -8 -20 -8 -11 0 -20 -4 -20 -9 0 -13 -53 -28 -120 -36
-30 -3 -77 -10 -105 -15 -27 -5 -89 -12 -137 -16 -79 -5 -88 -4 -107 15 -38
38 -37 38 220 66 151 17 159 20 159 52 l0 26 73 -7 c39 -3 86 -10 102 -15z
m173 -148 c7 -87 12 -202 12 -255 0 -86 -2 -97 -17 -96 -10 0 -61 -5 -113 -11
-52 -6 -174 -18 -270 -26 -169 -15 -239 -22 -440 -45 -52 -5 -124 -13 -160
-15 -36 -3 -94 -10 -130 -15 -65 -9 -159 -21 -322 -40 -101 -12 -346 -37 -503
-51 -60 -5 -160 -16 -221 -24 -61 -8 -160 -18 -220 -22 -60 -3 -112 -10 -115
-15 -10 -15 -434 -24 -443 -9 -4 6 -18 11 -31 11 -13 0 -27 5 -30 10 -3 6 -1
10 5 10 13 0 60 45 60 57 0 5 9 16 20 26 19 16 20 16 20 -1 0 -13 2 -14 9 -4
4 8 11 13 15 13 3 -1 6 2 5 6 -1 14 100 53 158 61 34 5 68 16 78 25 9 9 29 17
44 17 15 0 31 4 37 10 5 5 38 16 74 25 36 9 79 23 96 30 16 8 46 16 65 19 49
7 79 17 79 27 0 5 15 9 33 9 17 0 61 9 97 20 36 11 86 23 113 26 26 4 47 11
47 17 0 6 2 8 5 5 6 -5 102 13 185 35 30 8 87 18 125 22 39 4 75 10 80 15 6 4
48 13 95 19 47 7 114 20 150 29 36 8 78 15 93 14 16 -1 26 2 23 7 -3 4 15 9
39 9 25 1 53 5 62 11 10 5 42 8 72 8 41 -1 59 -6 76 -23 22 -22 151 -52 179
-41 7 3 33 -11 57 -30 l44 -35 95 6 c132 8 167 19 187 60 12 25 26 37 57 46
66 20 154 68 167 91 6 12 16 40 23 63 12 42 21 47 107 55 13 1 17 -24 27 -156z
m-7323 137 c-3 -6 -14 -10 -23 -10 -24 0 -377 -90 -573 -145 -90 -26 -267 -81
-393 -123 -304 -102 -326 -110 -298 -111 13 -1 33 4 44 10 12 6 55 15 97 19
162 17 351 42 456 61 61 11 128 19 150 19 22 0 72 7 112 15 39 8 108 16 151
17 47 2 75 7 69 11 -8 6 -5 7 6 3 10 -3 26 -6 35 -6 16 -1 16 -1 0 -10 -9 -6
-29 -12 -45 -14 -15 -2 -73 -13 -128 -24 -108 -22 -111 -22 -260 -51 -354 -70
-941 -199 -1293 -286 -163 -40 -200 -42 -574 -25 -123 5 -344 14 -493 20 -326
13 -506 25 -770 50 -204 20 -312 36 -265 40 23 1 23 2 5 10 -17 7 -15 9 12 9
17 1 34 5 37 10 21 33 415 52 931 44 226 -3 547 -6 715 -6 329 0 303 -3 575
64 22 6 54 12 70 15 44 7 289 88 293 97 2 4 14 7 26 7 12 0 60 14 106 31 47
17 105 35 130 40 25 6 81 21 125 34 126 36 192 53 305 76 58 11 132 28 165 36
33 8 96 21 140 28 44 8 104 18 134 24 29 6 78 11 108 11 30 0 52 3 50 8 -3 4
13 8 34 9 24 2 38 -1 34 -7z m3585 -41 c13 -47 30 -138 30 -158 0 -22 -94 -42
-355 -77 -187 -24 -208 -25 -325 -14 -179 17 -183 18 -202 25 -12 5 -18 2 -18
-8 0 -8 23 -25 53 -38 70 -32 184 -31 455 5 112 14 215 26 230 25 25 0 25 -1
-8 -12 -24 -8 -35 -18 -35 -32 0 -11 -7 -20 -15 -20 -8 0 -39 -10 -69 -22 -29
-13 -57 -20 -62 -18 -9 6 -85 -29 -111 -52 -9 -8 -22 -12 -29 -7 -7 4 -10 3
-6 -3 4 -6 -9 -23 -27 -37 -36 -27 -66 -34 -66 -15 0 5 -5 7 -10 4 -6 -4 -3
-16 9 -31 20 -25 20 -25 0 -45 -10 -10 -23 -19 -28 -19 -10 0 -21 -48 -21 -91
0 -16 -3 -29 -7 -29 -5 0 -17 -20 -27 -45 -26 -58 -48 -62 -127 -24 -152 74
-359 134 -569 165 -89 13 -158 15 -305 11 -376 -10 -663 -90 -1035 -288 -38
-20 -161 -108 -193 -138 l-27 -25 -53 26 c-91 45 -232 128 -219 128 7 0 30 11
52 25 22 14 49 25 60 25 24 0 120 48 120 61 0 4 27 16 60 25 33 9 60 20 60 24
0 5 18 11 40 15 22 4 40 12 40 19 0 12 12 16 58 17 12 1 22 5 22 9 0 4 13 10
30 13 16 4 47 18 70 32 22 14 45 25 52 25 19 0 78 23 78 31 0 4 17 10 38 14
20 4 42 11 48 16 6 5 33 12 60 15 28 4 57 15 67 25 11 12 32 19 53 19 19 0 54
9 76 20 23 11 50 20 60 20 10 0 26 8 37 19 10 10 30 21 44 25 14 3 33 13 41
22 9 8 20 12 26 9 6 -4 35 5 65 19 130 61 162 74 192 81 17 3 37 13 44 21 6 8
22 14 34 14 13 0 25 5 27 10 2 6 14 12 28 15 14 3 39 8 57 11 18 3 37 12 44
20 6 8 19 14 28 14 9 0 32 8 51 19 19 10 51 21 71 25 21 4 42 13 49 21 7 8 24
15 39 15 14 1 44 8 66 16 56 21 305 44 535 49 107 3 209 9 225 15 17 5 94 8
173 7 l143 -2 9 -36z m215 -23 c17 -9 48 -16 70 -17 47 -2 43 -2 -94 -24 -57
-9 -110 -19 -117 -22 -9 -3 -15 -22 -15 -47 -2 -38 -2 -37 -9 14 -4 30 -10 71
-13 90 l-7 36 77 -7 c43 -4 92 -14 108 -23z m-3295 -136 c0 -5 -15 -9 -32 -9
l-33 1 30 8 c17 4 31 8 33 9 1 0 2 -3 2 -9z m-165 -31 c-217 -42 -860 -170
-1040 -208 -385 -81 -478 -102 -859 -196 -213 -53 -390 -94 -393 -91 -14 13
84 57 177 79 136 33 438 104 515 122 323 75 1024 211 1395 270 91 15 185 30
210 35 25 4 56 8 70 8 14 0 -20 -9 -75 -19z m25 -68 c0 -15 -23 -28 -60 -34
-43 -7 -937 -188 -1070 -217 -52 -11 -162 -34 -245 -51 -82 -17 -152 -32 -155
-34 -3 -2 -42 -8 -87 -15 -45 -6 -121 -24 -168 -40 -48 -16 -91 -27 -96 -24
-12 7 -91 -15 -109 -31 -16 -14 -46 -24 -169 -56 -81 -21 -193 -77 -184 -93 3
-5 1 -6 -5 -2 -12 7 -179 -93 -265 -159 -50 -38 -55 -40 -130 -41 -42 -1 -79
2 -82 6 -6 10 56 60 104 85 19 9 87 59 150 110 124 99 173 128 242 144 24 6
91 21 149 35 397 95 922 212 1075 241 50 9 122 23 161 31 39 7 116 18 170 24
55 6 232 35 394 65 162 29 311 55 330 58 19 2 38 5 43 5 4 1 7 -2 7 -7z m220
-17 c0 -25 -296 -309 -417 -400 -64 -48 -206 -101 -242 -89 -29 9 -69 -4 -50
-16 10 -6 5 -9 -16 -9 -16 0 -57 -7 -90 -14 -82 -20 -244 -43 -465 -66 -102
-11 -246 -26 -320 -35 -74 -8 -209 -22 -300 -30 -91 -9 -223 -22 -295 -30
-261 -29 -548 -48 -540 -35 2 4 29 22 59 40 30 19 53 37 51 40 -3 4 5 16 18
26 l22 19 -19 -22 c-11 -13 -16 -23 -12 -23 4 0 53 26 109 58 148 85 240 123
417 172 25 7 54 16 65 20 11 5 32 11 47 14 14 3 34 9 44 13 11 4 15 3 11 -4
-4 -6 -19 -13 -34 -16 -16 -3 -41 -11 -58 -18 -16 -7 -34 -11 -40 -10 -6 1 -6
-2 1 -9 8 -8 36 -8 100 0 108 12 187 13 180 2 -3 -5 -33 -17 -68 -26 -112 -32
-116 -36 -42 -29 42 3 74 1 77 -4 6 -10 -80 -43 -109 -43 -7 0 -16 -5 -19 -11
-5 -7 5 -8 29 -4 20 4 48 4 63 0 l28 -7 -39 -14 c-48 -17 -219 -50 -309 -59
-37 -4 -70 -11 -73 -16 -3 -5 18 -7 48 -4 29 2 112 7 183 10 130 5 461 33 480
40 6 2 -19 4 -55 6 l-65 2 55 7 c76 11 203 11 170 0 -25 -8 -25 -8 -2 -9 13
-1 53 3 90 9 37 5 148 18 247 30 99 11 203 26 230 32 51 11 195 73 195 84 0 3
-34 3 -75 1 -68 -4 -77 -2 -90 16 -17 25 -19 74 -5 111 l10 26 -61 0 c-33 0
-69 -5 -81 -11 -11 -6 -22 -8 -25 -6 -14 15 48 26 167 30 74 3 135 6 135 7 0
1 16 3 35 6 19 2 62 9 95 14 33 5 77 10 97 10 33 0 46 9 121 83 46 46 89 92
95 103 10 19 30 22 220 41 12 2 22 0 22 -3z m9950 -111 c0 -17 -19 -37 -27
-29 -4 5 -2 11 5 13 6 3 10 9 6 14 -3 5 0 9 5 9 6 0 11 -3 11 -7z m-36 -93
c-14 -34 -19 -39 -26 -26 -6 11 -3 25 13 47 28 40 34 31 13 -21z m-10827 34
c-3 -3 -12 -4 -19 -1 -8 3 -5 6 6 6 11 1 17 -2 13 -5z m-93 -22 c-6 -4 -13
-56 -17 -125 -4 -99 -8 -121 -24 -132 -21 -16 -38 1 -22 22 6 7 7 18 3 24 -5
9 -2 10 9 6 15 -6 17 3 19 61 2 73 5 133 7 145 0 4 9 7 19 7 10 0 13 -3 6 -8z
m11711 -8 c92 -11 209 -44 306 -87 237 -107 413 -273 532 -505 60 -116 105
-231 83 -212 -9 7 -16 21 -16 32 0 10 -4 17 -9 14 -5 -3 -14 15 -22 41 -9 35
-14 42 -19 28 -5 -15 -17 -5 -65 56 -54 68 -151 169 -161 169 -3 0 -16 12 -30
28 -14 15 -30 28 -35 28 -5 1 -13 2 -19 3 -5 0 -10 7 -10 14 0 8 -12 19 -26
25 -14 7 -23 16 -19 21 8 14 -14 27 -50 30 -8 0 -15 8 -15 17 0 11 -6 14 -20
9 -16 -5 -19 -3 -13 11 5 13 2 15 -16 9 -14 -4 -21 -3 -19 6 3 13 -57 59 -112
86 -19 9 -48 27 -63 40 -16 13 -37 23 -48 23 -12 0 -19 7 -19 20 0 16 -5 19
-28 14 -16 -3 -48 -1 -71 6 -37 10 -42 15 -39 34 4 21 1 23 -45 22 -33 -1 -51
3 -55 12 -3 9 -14 12 -32 8 -15 -3 -40 -1 -56 4 -31 9 121 5 211 -6z m-11783
-42 l-4 -29 -140 0 c-77 -1 -138 1 -136 3 3 2 38 10 79 18 41 8 85 19 99 25
14 5 43 10 66 10 39 1 40 0 36 -27z m23 -102 c0 -17 -56 -26 -80 -13 -9 5 -58
4 -118 -4 -56 -7 -106 -12 -112 -13 -11 0 -13 -95 -2 -106 4 -4 7 -18 7 -32
l0 -24 -96 4 c-80 3 -99 7 -110 23 -20 28 -18 105 4 122 15 12 6 14 -72 10
-76 -3 -86 -2 -70 10 13 10 60 13 179 13 88 0 212 6 275 14 144 17 195 16 195
-4z m-31 -59 c3 -5 0 -8 -7 -7 -6 0 -13 -3 -14 -8 -1 -5 -7 -13 -15 -17 -10
-7 -9 -9 5 -9 9 0 17 -4 17 -9 0 -4 -33 -11 -72 -14 -57 -5 -76 -3 -88 8 -9 9
-10 15 -3 15 6 0 13 -6 16 -12 3 -7 4 -3 4 10 -1 12 -8 22 -16 22 -8 0 -11 3
-7 8 4 4 38 10 74 13 37 3 75 7 84 7 9 1 19 -2 22 -7z m2816 -15 c212 -42 410
-117 521 -199 23 -17 23 -17 -15 -2 -21 8 -51 15 -67 15 -16 0 -29 5 -29 10 0
6 -6 10 -12 8 -7 -1 -24 4 -36 11 -13 7 -35 10 -48 7 -14 -4 -46 1 -72 9 -26
9 -60 17 -77 17 -16 0 -34 4 -40 8 -36 25 -394 35 -585 16 -107 -11 -198 -27
-237 -41 -23 -8 -49 -12 -58 -9 -9 4 -23 0 -33 -9 -9 -8 -35 -19 -56 -23 -22
-4 -51 -13 -65 -20 -14 -8 -34 -14 -43 -14 -9 0 -19 -4 -23 -10 -3 -5 -21 -8
-40 -6 -29 2 -33 0 -22 -13 10 -12 9 -14 -5 -8 -10 4 -18 2 -18 -4 0 -6 -7 -9
-15 -5 -8 3 -15 1 -15 -3 0 -5 -9 -7 -20 -4 -11 3 -20 1 -20 -5 0 -5 -16 -13
-36 -17 -20 -3 -53 -16 -73 -28 -20 -13 -45 -28 -56 -35 -11 -7 -29 -16 -40
-21 -12 -5 -27 -16 -34 -25 -7 -9 -26 -16 -41 -16 -16 0 -30 -6 -32 -14 -2
-10 -15 -6 -50 17 -51 34 -61 49 -28 40 13 -4 22 1 27 13 9 26 47 57 99 83 24
13 44 27 44 32 0 5 20 14 44 21 25 6 43 15 40 20 -3 4 6 8 20 8 14 0 28 5 31
10 3 6 14 10 24 10 10 0 26 9 36 20 10 11 30 20 45 20 14 0 30 4 36 9 28 29
328 110 499 136 123 19 459 13 575 -9z m-2560 -65 c-30 -3 -89 -3 -130 0 -61
5 -50 6 55 6 83 0 110 -2 75 -6z m787 -201 l119 -62 -131 -132 c-130 -130
-208 -224 -300 -363 -50 -76 -61 -87 -50 -52 5 13 2 25 -6 29 -19 13 -13 232
9 277 13 27 14 40 5 63 -9 24 -9 30 2 30 8 0 13 11 12 28 -1 15 0 48 1 73 2
43 4 47 42 64 22 10 42 27 46 37 9 30 44 60 61 54 10 -4 13 -2 10 8 -7 18 11
26 39 15 12 -4 75 -35 141 -69z m-1270 34 c-3 -3 -12 -4 -19 -1 -8 3 -5 6 6 6
11 1 17 -2 13 -5z m1488 -124 c3 -5 1 -10 -4 -10 -6 0 -11 5 -11 10 0 6 2 10
4 10 3 0 8 -4 11 -10z m-4830 -19 c44 -7 96 -17 115 -22 19 -5 46 -11 60 -14
14 -2 43 -9 65 -14 22 -5 81 -12 130 -15 50 -3 124 -10 165 -16 95 -14 1263
-21 1375 -8 44 5 139 16 210 24 72 8 168 19 215 25 274 32 567 39 627 14 19
-8 48 -15 63 -15 16 0 30 -5 32 -11 2 -7 29 -12 61 -14 31 -1 60 -4 63 -8 6
-6 -6 -10 -101 -28 -27 -6 -70 -14 -95 -19 -83 -17 -506 -77 -740 -105 -69 -8
-154 -19 -190 -25 -315 -48 -371 -53 -595 -46 -215 6 -401 20 -661 50 -71 8
-181 20 -244 26 -419 41 -733 98 -815 146 -44 25 -45 26 -27 49 32 45 117 52
287 26z m4785 9 c0 -5 -2 -10 -4 -10 -3 0 -8 5 -11 10 -3 6 -1 10 4 10 6 0 11
-4 11 -10z m83 -53 c26 -17 47 -34 47 -39 0 -5 -13 -11 -30 -14 -16 -4 -30
-10 -30 -15 0 -5 -9 -9 -20 -9 -11 0 -20 -7 -20 -15 0 -8 -4 -15 -10 -15 -5 0
-10 9 -10 19 0 14 -5 18 -20 14 -24 -6 -29 24 -5 33 8 4 15 12 15 20 0 8 5 14
11 14 7 0 9 10 7 25 -6 27 -7 27 65 -18z m7836 -106 c43 -4 76 -12 79 -19 2
-7 10 -12 18 -12 8 0 14 -4 14 -10 0 -5 -7 -10 -15 -10 -21 0 -19 -20 3 -21
15 -1 15 -2 0 -6 -9 -2 -21 -17 -26 -33 -10 -26 -45 -70 -57 -70 -6 0 -24 -14
-56 -42 -10 -10 -22 -18 -26 -18 -5 0 -23 -14 -42 -30 -23 -21 -48 -32 -83
-36 -41 -6 -54 -12 -67 -35 -11 -20 -29 -31 -60 -39 -25 -6 -64 -20 -87 -31
-24 -10 -54 -19 -67 -19 -14 0 -30 -7 -37 -15 -6 -7 -33 -17 -58 -21 -74 -11
-78 -12 -111 -28 -16 -9 -39 -16 -50 -16 -10 0 -36 -8 -58 -19 -83 -41 -141
-61 -203 -71 -36 -5 -105 -21 -155 -35 -49 -14 -102 -25 -117 -25 -22 0 -28
-5 -28 -22 0 -12 -3 -18 -6 -15 -4 4 -12 68 -19 144 -7 76 -21 212 -30 301
-16 160 -15 199 5 187 5 -3 73 3 150 15 93 13 194 20 298 20 86 0 216 5 287
11 322 27 484 32 604 20z m2411 -50 c0 -31 11 -50 25 -45 7 3 16 1 20 -5 3 -7
-3 -11 -16 -11 -20 0 -21 -3 -15 -47 3 -27 9 -89 12 -139 7 -88 6 -92 -17
-107 -13 -10 -27 -17 -30 -17 -4 0 -10 44 -14 98 -8 127 -24 245 -33 253 -11
11 -142 -34 -205 -70 -31 -17 -70 -45 -87 -61 -31 -29 -32 -32 -26 -87 8 -82
15 -216 22 -453 4 -131 11 -216 19 -236 11 -26 26 -36 84 -59 54 -22 71 -33
71 -48 0 -14 -4 -17 -17 -12 -30 12 -177 67 -189 70 -7 2 -15 85 -23 227 -7
122 -17 282 -22 353 -15 212 -18 198 49 250 120 96 218 138 385 164 4 0 7 -8
7 -18z m-3745 -526 c4 -66 3 -115 -2 -108 -6 9 -23 8 -68 -4 -33 -8 -79 -18
-102 -20 -24 -3 -43 -9 -43 -14 0 -5 -12 -9 -27 -9 -16 0 -61 -9 -102 -20 -41
-11 -92 -20 -113 -20 -22 0 -48 -5 -58 -10 -13 -7 -21 -7 -25 0 -4 7 -12 7
-18 2 -21 -15 -105 -32 -240 -47 -21 -3 -43 -8 -49 -11 -6 -4 -38 -11 -72 -15
-33 -4 -99 -15 -144 -23 -46 -8 -100 -17 -120 -20 -56 -7 -382 -54 -522 -76
-69 -10 -165 -24 -214 -30 -49 -6 -92 -13 -96 -15 -3 -2 -53 -9 -110 -15 -58
-6 -143 -17 -190 -25 -90 -15 -261 -33 -370 -40 -36 -2 -67 -4 -70 -5 -9 -3
-95 0 -143 6 -40 5 -57 14 -95 50 -25 24 -49 44 -54 44 -4 0 -8 13 -8 29 0 16
-4 40 -9 53 -7 19 -3 34 22 74 18 27 41 59 53 70 11 11 27 29 35 40 14 19 83
74 93 74 3 0 15 9 26 20 11 11 29 20 40 20 11 0 20 4 20 10 0 5 27 17 60 27
33 9 60 20 60 24 0 4 19 10 43 14 64 10 77 15 77 31 0 8 8 14 18 15 66 2 108
12 124 29 10 10 37 21 63 24 25 3 66 9 93 12 26 3 81 14 122 24 41 10 98 22
125 25 28 4 61 8 75 10 14 2 36 6 50 9 40 9 120 25 180 37 57 10 86 15 285 48
66 10 161 26 210 35 210 36 294 49 365 57 40 5 90 13 110 19 19 5 91 16 160
25 69 9 166 23 216 31 50 8 109 14 130 14 22 0 62 6 91 14 28 8 54 11 57 8 3
-3 7 1 7 9 3 32 48 -396 54 -506z m-8130 355 c15 -24 8 -106 -11 -135 -34 -54
-68 -95 -78 -95 -5 0 -20 -9 -32 -21 -22 -20 -34 -21 -326 -24 -167 -2 -393
-11 -503 -19 -110 -8 -241 -18 -291 -22 -61 -5 -93 -3 -98 4 -3 6 4 14 16 18
13 3 41 15 63 25 44 20 113 45 160 59 123 36 272 72 367 90 62 12 140 28 173
37 33 8 80 19 105 23 25 5 88 18 140 30 178 40 302 52 315 30z m12365 -15 c0
-2 -10 -9 -22 -15 -22 -11 -22 -10 -4 4 21 17 26 19 26 11z m-1 -32 c-10 -2
-19 -13 -22 -23 -4 -17 -2 -18 15 -9 10 6 24 9 30 7 12 -4 -179 -115 -358
-208 -66 -34 -126 -71 -133 -81 -12 -21 -31 -116 -52 -261 -8 -59 -17 -89 -27
-93 -8 -3 -16 -4 -18 -2 -2 1 10 83 26 181 17 98 30 195 30 216 0 37 1 38 98
90 335 181 347 187 387 187 22 0 33 -2 24 -4z m-9493 -224 c99 -17 164 -41
163 -58 0 -9 -17 -97 -37 -196 l-37 -180 -37 -3 c-45 -4 -44 -4 -22 100 39
186 54 281 44 293 -29 35 -326 45 -393 14 -32 -14 -25 5 -82 -244 -25 -110
-66 -279 -90 -375 -25 -97 -45 -188 -45 -203 0 -44 22 -75 119 -171 70 -70 88
-93 79 -103 -9 -11 -38 13 -142 114 -72 71 -132 136 -134 146 -2 9 6 54 16
100 75 306 133 557 153 652 6 33 17 66 23 73 35 38 296 64 422 41z m-76 -59
c0 -5 -2 -10 -4 -10 -3 0 -8 5 -11 10 -3 6 -1 10 4 10 6 0 11 -4 11 -10z
m9210 -51 c16 -18 30 -39 29 -48 0 -14 -1 -14 -6 -1 -12 33 -37 50 -72 50 -34
1 -35 2 -17 15 27 21 32 19 66 -16z m-15103 -8 c15 13 16 12 9 -6 -5 -11 -12
-33 -16 -50 l-7 -30 -8 38 c-4 20 -11 40 -16 43 -5 3 -9 11 -9 17 0 7 7 3 15
-7 13 -17 17 -17 32 -5z m63 -71 c15 0 20 9 23 43 3 40 4 40 5 -10 2 -45 -1
-53 -15 -53 -38 0 -61 42 -46 83 7 18 9 15 11 -20 3 -34 7 -43 22 -43z m99 39
c6 -18 11 -41 11 -53 -1 -19 -2 -19 -11 -3 -11 18 -39 24 -39 7 0 -5 -4 -10
-9 -10 -4 0 -4 20 2 45 12 53 31 58 46 14z m41 -34 l-8 -40 -1 50 c-1 29 3 45
8 40 5 -6 6 -28 1 -50z m48 -22 l-3 -28 -18 32 c-21 39 -22 55 -2 29 14 -19
15 -18 16 15 2 30 3 31 6 7 2 -16 3 -40 1 -55z m103 50 c0 -11 3 -13 6 -5 9
24 22 12 25 -25 2 -31 7 -39 26 -41 12 -2 22 -8 22 -13 0 -12 -53 1 -62 15 -4
6 -8 20 -9 31 0 11 -3 14 -6 8 -2 -7 -15 -13 -28 -13 -14 0 -25 -7 -28 -17 -3
-10 -5 3 -6 30 -1 46 0 47 29 47 22 0 30 -5 31 -17z m129 -78 c10 0 17 14 21
40 l6 40 2 -48 1 -48 -32 3 c-32 3 -33 4 -35 53 l-2 50 12 -45 c7 -28 18 -45
27 -45z m98 64 c9 -1 1 -5 -18 -8 l-35 -7 33 -17 c46 -25 44 -57 -3 -57 -19 0
-35 5 -35 11 0 7 10 9 25 7 17 -4 25 -1 25 8 0 8 -6 14 -14 14 -7 0 -19 7 -26
15 -16 19 -5 49 16 41 9 -3 23 -7 32 -7z m15066 -51 c-5 -9 -2 -9 9 1 10 8 17
9 17 3 0 -6 -8 -16 -17 -21 -15 -9 -13 -10 12 -11 27 0 28 -1 13 -16 -9 -9
-49 -36 -89 -60 l-73 -43 -19 30 c-11 16 -18 31 -16 33 12 11 155 96 162 96 5
0 5 -6 1 -12z m-15916 -173 c-7 -7 -105 18 -122 31 -21 15 -23 10 29 105 6 12
23 19 50 21 l40 3 3 -79 c2 -43 2 -80 0 -81z m5522 122 c0 -2 -10 -12 -22 -23
l-23 -19 19 23 c18 21 26 27 26 19z m-3495 -43 c-73 -64 -249 -194 -295 -217
-60 -30 -187 -34 -400 -13 -90 9 -165 18 -167 20 -2 2 4 17 13 33 17 29 69 53
115 53 11 0 32 9 46 20 14 11 39 20 54 20 16 0 37 4 47 9 22 12 130 29 262 41
114 11 306 46 330 60 35 21 32 7 -5 -26z m13665 -23 c0 -10 8 -29 18 -42 24
-31 222 -365 222 -374 0 -4 -8 -1 -17 6 -11 10 -14 10 -9 2 4 -8 2 -13 -8 -13
-11 0 -8 -10 12 -41 15 -23 28 -45 28 -50 1 -5 3 -11 4 -14 1 -3 3 -9 4 -14 0
-5 4 -13 9 -17 4 -4 7 -14 7 -23 0 -9 -19 18 -42 59 -22 41 -57 102 -78 135
-21 33 -64 105 -96 160 -65 111 -94 145 -123 145 -11 0 -78 -25 -149 -55 -139
-59 -152 -62 -152 -42 0 8 46 33 103 57 207 87 256 112 250 126 -3 8 0 14 6
14 6 0 11 -8 11 -19z m-962 -77 c29 -12 32 -18 32 -55 0 -34 -3 -40 -17 -35
-10 2 -62 18 -117 35 -97 31 -146 38 -146 24 -1 -5 -3 -24 -6 -43 -2 -19 -9
-69 -14 -110 l-9 -75 5 95 c6 111 8 127 17 136 4 4 7 20 7 35 0 15 6 30 13 33
10 5 10 7 0 12 -7 3 -13 11 -13 18 0 12 165 -34 248 -70z m-9337 5 c-12 -13
-21 -27 -21 -33 0 -5 -3 -7 -6 -3 -3 3 4 20 16 37 12 17 24 29 27 26 3 -2 -4
-15 -16 -27z m-5514 -61 c-17 -9 -17 -11 -2 -28 9 -10 23 -16 31 -13 16 6 18
-14 5 -36 -7 -11 -15 -11 -45 -1 -19 6 -39 16 -42 22 -7 11 56 81 65 72 3 -3
-2 -10 -12 -16z m15715 9 c-6 -7 -12 -30 -14 -50 l-2 -37 -81 -1 c-44 0 -98
-2 -120 -4 l-40 -4 45 18 c25 10 79 34 120 54 81 38 110 46 92 24z m-337 -29
c19 -18 37 -46 40 -63 l5 -30 -14 30 c-16 35 -53 71 -63 62 -4 -4 2 -14 13
-23 18 -14 18 -15 -3 -4 -12 5 -26 18 -32 27 -8 16 -11 15 -28 -6 -11 -13 -29
-25 -41 -26 -12 -1 -29 -10 -37 -21 -9 -13 -14 -14 -15 -5 0 7 17 31 39 52 50
51 87 52 136 7z m-7991 -4 c3 -8 2 -12 -4 -9 -6 3 -10 10 -10 16 0 14 7 11 14
-7z m-1796 -159 l92 -70 -5 -40 c-4 -22 -9 -43 -13 -47 -4 -3 -69 41 -146 98
-76 57 -142 104 -147 104 -11 0 -55 -96 -88 -197 -35 -104 -66 -275 -54 -296
10 -16 140 -126 354 -297 206 -166 212 -170 224 -170 5 0 -3 11 -20 24 -80 64
-90 75 -72 82 11 4 32 -9 66 -41 28 -26 48 -51 46 -55 -3 -4 1 -13 9 -19 18
-15 38 3 130 122 44 57 73 103 69 110 -4 7 1 6 10 -2 9 -7 17 -19 17 -25 0
-16 -119 -177 -192 -259 -59 -67 -60 -67 -83 -50 -12 10 -81 65 -151 123 -71
57 -167 135 -214 173 -47 38 -84 74 -82 79 1 5 -1 7 -6 4 -5 -3 -18 3 -29 13
-11 10 -39 31 -63 46 l-43 27 6 87 c8 112 49 307 82 396 15 39 45 107 67 152
l40 81 52 -41 c29 -23 93 -73 144 -112z m1437 113 c-1 -28 -6 -34 -31 -39 -24
-6 -21 -7 18 -8 26 0 50 -6 54 -13 4 -7 3 -8 -5 -4 -11 7 -615 -10 -656 -19
-41 -8 -63 -46 -129 -214 -44 -110 -73 -171 -82 -171 -8 0 -14 4 -14 10 0 5
33 96 74 202 41 107 77 210 81 231 6 31 11 37 34 38 173 8 403 16 517 17 l140
2 -1 -32z m-6892 -7 c15 -15 -12 -23 -54 -16 -33 6 -38 9 -28 21 12 14 66 11
82 -5z m15037 15 c0 -11 -19 -15 -25 -6 -3 5 1 10 9 10 9 0 16 -2 16 -4z
m-14770 -66 c63 -14 -3 -10 -125 7 -132 18 -129 18 -121 31 4 7 127 -11 246
-38z m14797 -42 c-2 -13 -4 -3 -4 22 0 25 2 35 4 23 2 -13 2 -33 0 -45z m83
22 c0 -5 -9 -10 -20 -10 -11 0 -20 5 -20 10 0 6 9 10 20 10 11 0 20 -4 20 -10z
m-14667 -17 c-7 -2 -21 -2 -30 0 -10 3 -4 5 12 5 17 0 24 -2 18 -5z m160 -20
c-7 -2 -19 -2 -25 0 -7 3 -2 5 12 5 14 0 19 -2 13 -5z m14504 -85 c3 6 12 12
21 12 15 0 15 -2 2 -10 -12 -8 -11 -10 8 -10 12 0 22 6 22 13 0 9 2 9 8 -1 7
-10 15 -6 36 14 15 16 24 20 20 11 -8 -22 -66 -57 -93 -57 -18 0 -21 -4 -16
-20 3 -10 -1 -48 -9 -82 -9 -35 -22 -94 -31 -131 -14 -66 -52 -167 -62 -167
-12 0 -566 181 -573 187 -3 3 4 12 15 20 16 13 17 15 3 10 -14 -5 -18 -1 -18
15 0 17 3 18 15 8 8 -6 20 -10 26 -8 7 2 -2 10 -19 17 -18 8 -32 18 -32 23 0
5 3 7 8 5 21 -13 512 -168 540 -171 45 -5 55 13 86 164 30 145 30 143 14 134
-7 -4 -10 -4 -6 1 4 4 -4 21 -17 37 -38 45 -30 51 12 10 23 -23 38 -32 40 -24z
m-687 38 c0 -3 -4 -8 -10 -11 -5 -3 -10 -1 -10 4 0 6 5 11 10 11 6 0 10 -2 10
-4z m-11897 -13 c-18 -2 -48 -2 -65 0 -18 2 -4 4 32 4 36 0 50 -2 33 -4z
m-1103 -7 c0 -3 -4 -8 -10 -11 -5 -3 -10 -1 -10 4 0 6 5 11 10 11 6 0 10 -2
10 -4z m244 -18 c-33 -7 -84 -7 -145 -1 l-94 10 145 0 c123 0 137 -1 94 -9z
m13711 -101 c55 -61 116 -128 135 -147 22 -22 34 -43 31 -55 -6 -37 -256 -559
-302 -633 -11 -18 -23 -22 -65 -22 -71 0 -194 33 -275 75 -75 38 -84 41 -73
24 4 -8 1 -8 -13 -1 -22 12 -49 42 -38 42 4 0 3 6 -3 13 -9 10 7 48 63 158 41
79 75 152 75 162 0 9 2 17 3 17 9 0 67 -32 67 -37 0 -3 -31 -71 -70 -151 -38
-80 -70 -150 -70 -157 0 -25 154 -93 228 -100 37 -4 43 -3 33 9 -6 7 -26 17
-44 21 -35 8 -44 11 -52 15 -3 1 -8 3 -12 5 -5 1 -15 5 -23 8 -8 4 -27 11 -42
16 -16 6 -28 15 -28 21 0 6 -4 9 -9 6 -5 -3 -14 1 -20 8 -22 27 45 12 69 -15
l22 -24 -21 32 c-15 22 -28 31 -41 28 -11 -2 -22 0 -25 6 -6 8 8 13 28 10 5
-1 6 3 2 9 -3 6 -11 8 -16 5 -5 -4 -4 5 2 19 7 14 16 23 22 19 6 -3 7 -1 3 5
-12 20 4 34 22 20 15 -11 15 -11 4 3 -10 13 -10 22 -1 42 l12 26 17 -22 c9
-12 23 -33 30 -46 10 -19 10 -22 -2 -15 -23 14 -34 12 -34 -7 0 -10 2 -16 5
-14 2 3 11 -1 20 -7 13 -10 14 -10 4 2 -18 19 -16 35 1 21 10 -9 16 -9 21 -1
5 8 11 8 21 -1 8 -6 14 -8 14 -4 0 4 8 1 17 -6 15 -12 16 -12 8 1 -4 8 -5 12
-1 8 4 -3 20 -3 36 2 20 6 32 4 45 -9 14 -12 16 -13 9 -1 -7 13 -6 13 10 1 9
-8 15 -20 12 -28 -3 -8 -2 -11 3 -8 5 3 12 1 16 -5 8 -13 -24 -72 -35 -65 -6
4 -7 -1 -3 -11 5 -13 3 -15 -7 -9 -9 5 -11 4 -6 -4 4 -6 0 -23 -9 -38 -14 -21
-15 -27 -4 -34 9 -6 19 -3 28 9 25 32 291 577 297 610 8 40 3 48 -120 184 -53
59 -96 112 -96 117 0 28 33 1 125 -102z m-2733 96 c-47 -6 -35 -27 19 -34 24
-3 35 -7 24 -8 -11 0 -144 -10 -295 -21 -288 -20 -368 -27 -719 -60 -118 -11
-218 -17 -222 -13 -4 5 -11 20 -14 36 -5 19 -3 27 6 27 8 0 59 5 114 10 55 6
150 15 210 20 61 6 160 14 220 20 61 5 160 13 220 16 61 4 112 8 114 10 2 2
83 3 180 2 97 0 161 -3 143 -5z m117 -12 c10 -6 -1 -8 -30 -4 -24 3 -46 7 -48
9 -10 9 65 3 78 -5z m1658 -33 c-3 -7 -5 -2 -5 12 0 14 2 19 5 13 2 -7 2 -19
0 -25z m1503 -28 c0 -5 -7 -7 -15 -4 -8 4 -12 10 -9 15 6 11 24 2 24 -11z
m-4514 -31 c11 -23 13 -34 5 -39 -7 -4 -71 -12 -144 -19 -73 -6 -213 -20 -312
-31 -99 -11 -265 -28 -370 -39 -1065 -114 -1733 -198 -1875 -237 -30 -8 -79
-22 -109 -30 -64 -17 -246 -88 -353 -138 -43 -19 -85 -33 -93 -29 -10 3 -15 1
-13 -7 2 -7 -10 -16 -25 -21 -23 -6 -26 -5 -17 6 6 8 27 23 45 34 30 17 33 18
29 3 -3 -10 0 -8 6 3 14 25 15 26 170 108 179 94 308 136 475 157 85 11 104
13 200 30 155 26 565 76 1185 145 223 25 484 54 580 65 96 11 270 31 385 44
116 13 211 24 212 25 1 1 10 -13 19 -30z m-9873 -26 c-7 -2 -21 -2 -30 0 -10
3 -4 5 12 5 17 0 24 -2 18 -5z m42 -3 c3 -6 -1 -7 -9 -4 -18 7 -21 14 -7 14 6
0 13 -4 16 -10z m246 -22 c7 -11 214 -26 389 -29 l115 -2 -84 -8 c-51 -5 -90
-14 -100 -23 -10 -9 -26 -16 -36 -16 -10 0 -32 -16 -50 -35 l-33 -35 -78 60
c-43 33 -85 60 -94 60 -9 0 -19 3 -23 6 -3 4 -32 8 -64 10 -32 2 -80 10 -108
18 -49 14 -48 14 55 9 58 -3 108 -10 111 -15z m12766 -14 c-3 -3 -12 -4 -19
-1 -8 3 -5 6 6 6 11 1 17 -2 13 -5z m-12124 -31 c-7 -2 -19 -2 -25 0 -7 3 -2
5 12 5 14 0 19 -2 13 -5z m13067 -13 c0 -5 -5 -10 -11 -10 -5 0 -7 5 -4 10 3
6 8 10 11 10 2 0 4 -4 4 -10z m-8663 -32 c-3 -8 -6 -5 -6 6 -1 11 2 17 5 13 3
-3 4 -12 1 -19z m10 -50 c-3 -8 -6 -5 -6 6 -1 11 2 17 5 13 3 -3 4 -12 1 -19z
m-826 -19 c26 -18 70 -86 69 -106 -1 -4 -8 6 -17 22 -30 57 -83 98 -83 65 0
-5 -12 -10 -27 -10 -51 0 -108 -26 -107 -49 0 -11 -3 -18 -8 -15 -33 21 32 95
93 104 24 4 46 8 47 9 2 0 17 -8 33 -20z m4 -47 c-3 -3 -11 0 -18 7 -9 10 -8
11 6 5 10 -3 15 -9 12 -12z m-596 -104 c-1 -102 -2 -108 -11 -63 -9 45 -3 175
8 175 2 0 3 -51 3 -112z m1526 103 c-23 -5 -31 -13 -36 -39 l-6 -32 46 -1 c25
-1 -8 -7 -74 -15 -189 -20 -180 -21 -197 30 -17 52 -19 51 98 55 38 1 71 4 73
7 2 2 32 3 65 3 44 -1 53 -3 31 -8z m-360 -11 c-4 -6 9 -61 28 -123 51 -161
114 -380 157 -545 l38 -143 -58 -81 c-78 -109 -186 -216 -284 -282 -82 -55
-133 -83 -140 -75 -2 2 -27 87 -55 188 l-52 185 30 30 c17 16 33 27 36 24 3
-3 27 -77 52 -164 25 -88 51 -164 59 -170 8 -6 11 -14 7 -17 -3 -4 -1 -7 4 -7
44 0 306 244 319 297 9 35 -144 644 -195 775 -18 47 -39 52 -227 45 -149 -6
-173 -5 -178 8 -3 9 0 17 7 19 6 2 106 9 221 15 116 6 214 15 220 21 13 13 19
13 11 0z m9021 -82 c31 -51 70 -108 86 -126 28 -33 28 -33 11 -63 -34 -57 -36
-55 -117 78 l-77 128 17 37 c9 21 18 38 20 38 1 0 28 -42 60 -92z m-11916 21
c-21 -38 -83 -100 -147 -145 -71 -52 -111 -66 -138 -51 -17 9 -16 11 6 23 13
7 35 13 48 14 13 0 39 11 57 25 18 14 37 25 42 25 5 0 37 29 73 65 35 36 65
65 67 65 1 0 -2 -9 -8 -21z m1635 -80 c1 -16 -2 -29 -5 -29 -4 0 -24 15 -45
33 -36 31 -37 34 -21 50 17 16 19 16 44 -4 18 -14 27 -31 27 -50z m585 46 c0
-8 -9 -15 -20 -15 -11 0 -20 7 -20 15 0 8 9 15 20 15 11 0 20 -7 20 -15z m113
8 c-7 -2 -19 -2 -25 0 -7 3 -2 5 12 5 14 0 19 -2 13 -5z m0 -20 c-7 -2 -19 -2
-25 0 -7 3 -2 5 12 5 14 0 19 -2 13 -5z m-6088 -52 c353 -69 1069 -163 1850
-241 116 -12 219 -23 230 -25 11 -2 23 -4 28 -4 4 -1 7 -5 7 -9 0 -4 -53 -2
-117 4 -65 7 -212 22 -328 34 -956 97 -1804 218 -1830 260 -8 14 -9 14 160
-19z m3165 -2 c30 -6 120 -14 200 -18 80 -5 123 -9 97 -9 -26 -1 -73 -13 -105
-26 -31 -13 -72 -27 -90 -31 -18 -4 -40 -14 -49 -23 -14 -15 -51 -17 -292 -20
-260 -4 -410 2 -397 16 20 20 230 79 380 107 48 9 98 20 109 24 12 4 37 4 57
-1 19 -4 60 -13 90 -19z m11600 11 c17 -9 17 -11 -3 -55 -11 -25 -24 -45 -27
-45 -3 0 -25 20 -49 44 l-44 45 34 9 c45 13 67 14 89 2z m-8813 -83 c21 -9 27
-9 31 1 4 14 62 17 62 2 0 -15 21 -12 45 8 11 9 8 5 -7 -10 -17 -17 -44 -30
-68 -34 -22 -4 -37 -10 -34 -15 3 -5 -2 -9 -11 -9 -9 0 -15 6 -13 12 3 7 -6
21 -19 31 -13 10 -30 32 -38 47 -22 42 -18 50 5 12 11 -18 32 -38 47 -45z
m174 50 c-10 -9 -11 -8 -5 6 3 10 9 15 12 12 3 -3 0 -11 -7 -18z m-2553 -4
c-10 -2 -28 -2 -40 0 -13 2 -5 4 17 4 22 1 32 -1 23 -4z m2631 -259 c45 -96
91 -199 101 -229 l19 -54 -192 -184 c-293 -280 -378 -357 -394 -357 -21 0
-123 53 -192 99 -78 53 -184 159 -244 242 -26 37 -47 69 -47 73 0 5 76 80 213
207 31 30 57 59 57 66 0 6 17 -5 37 -23 l37 -34 -132 -133 c-73 -73 -132 -138
-132 -145 0 -22 149 -169 223 -220 118 -81 114 -81 253 45 66 59 191 178 278
264 l159 156 -5 39 c-3 22 -38 107 -78 191 -64 137 -75 173 -52 173 4 0 45
-79 91 -176z m-1744 146 c3 -5 1 -10 -4 -10 -6 0 -11 5 -11 10 0 6 2 10 4 10
3 0 8 -4 11 -10z m10895 -175 c0 -9 -6 -12 -15 -9 -8 4 -15 10 -15 15 0 5 7 9
15 9 8 0 15 -7 15 -15z m-9010 -35 c0 -9 -20 -60 -28 -70 -2 -2 -7 2 -12 10
-6 9 -3 24 8 42 16 28 32 37 32 18z m8820 -91 c25 -6 18 -6 -25 -2 -33 3 -67
9 -75 14 -16 10 36 4 100 -12z m-8517 -96 c-7 -2 -19 -2 -25 0 -7 3 -2 5 12 5
14 0 19 -2 13 -5z m-136 -19 c-3 -3 -12 -4 -19 -1 -8 3 -5 6 6 6 11 1 17 -2
13 -5z m-924 -24 c3 -12 1 -18 -5 -14 -7 5 -9 -3 -4 -22 5 -22 4 -26 -4 -14
-9 12 -10 7 -6 -20 l6 -35 -15 39 c-16 41 -11 92 6 65 7 -11 9 -10 9 4 0 23 6
22 13 -3z m-303 -29 c0 -6 -4 -13 -10 -16 -5 -3 -10 1 -10 9 0 9 5 16 10 16 6
0 10 -4 10 -9z m268 -66 c0 -5 -5 3 -13 19 l-13 30 -7 -33 c-5 -25 -10 -30
-16 -20 -5 8 -9 21 -9 29 0 13 1 13 11 0 9 -12 10 -11 6 8 -3 12 -1 20 4 16 5
-3 9 3 10 13 1 18 28 -43 27 -62z m1049 39 c-3 -3 -12 -4 -19 -1 -8 3 -5 6 6
6 11 1 17 -2 13 -5z m-1124 -43 c-4 -17 -8 -20 -15 -9 -6 8 -7 1 -4 -22 5 -30
5 -32 -4 -11 -11 26 -4 65 11 56 5 -4 9 -1 9 6 0 7 2 10 5 8 2 -3 2 -15 -2
-28z m71 -41 c5 -17 4 -20 -2 -10 -5 8 -13 26 -16 40 -5 17 -4 20 2 10 5 -8
13 -26 16 -40z m-34 5 l1 20 9 -20 c12 -27 12 -43 0 -25 -13 20 -13 -1 0 -36
6 -15 9 -29 6 -31 -2 -2 -12 20 -21 49 -25 75 -28 87 -11 53 12 -24 15 -26 16
-10z m1013 18 c-7 -2 -21 -2 -30 0 -10 3 -4 5 12 5 17 0 24 -2 18 -5z m144 1
c-3 -3 -12 -4 -19 -1 -8 3 -5 6 6 6 11 1 17 -2 13 -5z m-1227 -39 c0 -5 -5 -3
-10 5 -8 12 -10 12 -10 1 0 -8 -2 -12 -5 -9 -3 3 -2 13 1 22 5 14 9 15 15 4 5
-7 9 -17 9 -23z m1173 28 c-7 -2 -19 -2 -25 0 -7 3 -2 5 12 5 14 0 19 -2 13
-5z m-64 -7 c-2 -2 -22 -6 -44 -10 -29 -5 -36 -4 -25 3 13 10 79 16 69 7z
m126 -6 c-11 -5 -33 -8 -50 -8 l-30 0 30 8 c17 4 39 8 50 8 l20 1 -20 -9z m64
-14 c-2 -2 -31 -7 -64 -10 l-60 -5 60 12 c56 12 74 13 64 3z m-194 -6 c-16 -4
-41 -8 -55 -8 -22 0 -22 1 5 8 17 4 41 8 55 8 22 0 22 -1 -5 -8z m-1065 -45
c0 -5 -5 -3 -10 5 -5 8 -10 20 -10 25 0 6 5 3 10 -5 5 -8 10 -19 10 -25z
m1108 28 c-10 -2 -26 -2 -35 0 -10 3 -2 5 17 5 19 0 27 -2 18 -5z m127 -3 c-3
-5 -21 -9 -38 -9 l-32 1 30 8 c43 11 47 11 40 0z m-1116 -49 c6 -19 9 -36 7
-38 -2 -2 -11 17 -20 44 -9 26 -12 43 -7 38 4 -6 13 -25 20 -44z m924 42 c-7
-2 -19 -2 -25 0 -7 3 -2 5 12 5 14 0 19 -2 13 -5z m-1129 -19 c3 -8 2 -12 -4
-9 -6 3 -10 10 -10 16 0 14 7 11 14 -7z m1191 6 c-16 -4 -41 -8 -55 -8 -22 0
-22 1 5 8 17 4 41 8 55 8 22 0 22 -1 -5 -8z m-1031 -67 c-7 -25 -8 -25 -15 -8
-11 29 -10 42 2 25 8 -11 9 -8 5 15 -5 24 -4 26 4 13 6 -10 7 -30 4 -45z m116
47 c0 13 1 13 10 0 5 -8 10 -19 10 -25 0 -5 -5 -3 -10 5 -8 12 -10 12 -11 -5
l0 -20 -9 20 c-12 27 -12 43 0 25 9 -13 10 -13 10 0z m39 -12 c5 -13 11 -34
15 -48 6 -19 5 -21 -3 -10 -9 13 -11 12 -12 -5 l0 -20 -9 20 c-12 27 -12 43 0
25 13 -20 13 1 0 34 -5 14 -7 26 -5 26 3 0 9 -10 14 -22z m781 18 c0 -2 -18
-6 -39 -8 -22 -2 -37 0 -35 4 5 8 74 11 74 4z m115 -6 c-16 -4 -43 -8 -60 -8
-29 1 -29 1 5 8 19 4 46 7 60 8 22 0 22 -1 -5 -8z m-955 -35 c0 -5 -5 -3 -10
5 -5 8 -10 20 -10 25 0 6 5 3 10 -5 5 -8 10 -19 10 -25z m114 -15 c6 -19 5
-21 -3 -10 -9 13 -11 12 -12 -5 l0 -20 -9 20 c-12 28 -12 43 1 25 8 -11 9 -8
5 15 -7 35 7 15 18 -25z m-334 30 c0 -5 -2 -10 -4 -10 -3 0 -8 5 -11 10 -3 6
-1 10 4 10 6 0 11 -4 11 -10z m1079 6 c-2 -2 -26 -6 -54 -10 -34 -4 -43 -3
-30 3 19 9 93 15 84 7z m74 -13 c-7 -2 -19 -2 -25 0 -7 3 -2 5 12 5 14 0 19
-2 13 -5z m-78 -13 c-16 -4 -43 -8 -60 -8 -29 0 -29 0 -5 8 14 4 41 8 60 8
l35 0 -30 -8z m140 0 c-3 -5 -18 -10 -33 -9 l-27 1 25 8 c35 11 42 11 35 0z
m-1181 -15 c3 -8 1 -15 -4 -15 -6 0 -10 7 -10 15 0 8 2 15 4 15 2 0 6 -7 10
-15z m120 -45 c5 -17 4 -21 -2 -12 -7 11 -10 9 -15 -7 -6 -24 -27 -29 -27 -6
0 9 -6 12 -15 9 -10 -4 -15 0 -15 12 0 16 2 17 10 4 8 -12 10 -12 10 5 1 16 4
14 16 -10 l14 -30 -5 30 c-4 24 -3 27 6 15 8 -12 9 -8 5 15 -7 35 7 15 18 -25z
m106 15 c0 -5 -5 -3 -10 5 -5 8 -10 20 -10 25 0 6 5 3 10 -5 5 -8 10 -19 10
-25z m825 24 c-22 -4 -51 -8 -65 -7 -35 1 34 15 75 16 25 0 23 -2 -10 -9z
m-861 -49 c5 -17 4 -20 -2 -10 -5 8 -13 26 -16 40 -5 17 -4 20 2 10 5 -8 13
-26 16 -40z m966 46 c0 -2 -7 -7 -16 -10 -8 -3 -12 -2 -9 4 6 10 25 14 25 6z
m-1010 -41 c0 -5 -5 -3 -10 5 -5 8 -10 20 -10 25 0 6 5 3 10 -5 5 -8 10 -19
10 -25z m920 26 c-38 -12 -103 -21 -96 -14 7 7 72 21 101 21 15 0 14 -1 -5 -7z
m-799 -72 c-17 -16 -20 -16 -25 -3 -9 23 -7 31 3 15 6 -10 11 -4 16 20 7 33 8
33 17 10 6 -19 4 -28 -11 -42z m39 50 c0 8 2 12 5 9 3 -3 2 -13 -1 -22 -5 -14
-9 -15 -15 -4 -5 7 -9 18 -9 23 0 6 5 3 10 -5 8 -12 10 -12 10 -1z m807 5 c-3
-3 -12 -4 -19 -1 -8 3 -5 6 6 6 11 1 17 -2 13 -5z m-59 -11 c-10 -2 -26 -2
-35 0 -10 3 -2 5 17 5 19 0 27 -2 18 -5z m-829 -43 c0 -10 -3 -8 -9 5 -12 27
-12 43 0 25 5 -8 9 -22 9 -30z m861 30 c0 -5 -15 -9 -32 -9 l-33 1 30 8 c17 4
31 8 33 9 1 0 2 -3 2 -9z m-940 -20 c1 11 3 11 11 -3 6 -10 8 -21 5 -24 -3 -4
-6 0 -7 8 0 8 -4 6 -9 -6 -7 -17 -9 -17 -9 -3 -1 11 -6 15 -16 12 -8 -4 -15
-1 -15 6 0 6 5 8 10 5 6 -3 10 0 10 7 0 9 3 9 10 -2 9 -13 10 -13 10 0z m900
-10 c0 -5 -15 -9 -32 -9 l-33 1 30 8 c17 4 31 8 33 9 1 0 2 -3 2 -9z m-820
-31 c0 8 3 11 7 7 8 -8 -23 -36 -39 -36 -4 0 -8 8 -8 18 0 14 2 15 10 2 8 -12
10 -12 10 5 0 17 2 17 10 5 8 -12 10 -12 10 -1z m-155 -49 c3 -5 1 -10 -4 -10
-6 0 -11 5 -11 10 0 6 2 10 4 10 3 0 8 -4 11 -10z m375 -40 c0 -5 -7 -10 -15
-10 -8 0 -15 5 -15 10 0 6 7 10 15 10 8 0 15 -4 15 -10z m-220 -50 c8 -5 11
-10 5 -10 -5 0 -17 5 -25 10 -8 5 -10 10 -5 10 6 0 17 -5 25 -10z m116 -34
c77 -27 71 -35 -9 -10 -71 21 -96 32 -76 33 8 1 46 -10 85 -23z"/>
<path d="M11721 6654 c0 -11 3 -14 6 -6 3 7 2 16 -1 19 -3 4 -6 -2 -5 -13z"/>
<path d="M11731 6610 c0 -8 4 -24 9 -35 l9 -20 0 20 c0 11 -4 27 -9 35 -9 13
-10 13 -9 0z"/>
<path d="M14478 6613 c7 -3 16 -2 19 1 4 3 -2 6 -13 5 -11 0 -14 -3 -6 -6z"/>
<path d="M14578 6593 c7 -3 16 -2 19 1 4 3 -2 6 -13 5 -11 0 -14 -3 -6 -6z"/>
<path d="M13813 5453 c9 -2 23 -2 30 0 6 3 -1 5 -18 5 -16 0 -22 -2 -12 -5z"/>
<path d="M13733 5443 c9 -2 25 -2 35 0 9 3 1 5 -18 5 -19 0 -27 -2 -17 -5z"/>
<path d="M13638 5433 c12 -2 30 -2 40 0 9 3 -1 5 -23 4 -22 0 -30 -2 -17 -4z"/>
<path d="M13533 5423 c9 -2 25 -2 35 0 9 3 1 5 -18 5 -19 0 -27 -2 -17 -5z"/>
<path d="M12498 5323 c7 -3 16 -2 19 1 4 3 -2 6 -13 5 -11 0 -14 -3 -6 -6z"/>
<path d="M16668 5023 c6 -2 18 -2 25 0 6 3 1 5 -13 5 -14 0 -19 -2 -12 -5z"/>
<path d="M15040 4070 c0 -5 5 -10 10 -10 6 0 10 5 10 10 0 6 -4 10 -10 10 -5
0 -10 -4 -10 -10z"/>
<path d="M2405 3640 l-30 -8 32 -1 c17 0 35 4 38 9 7 11 3 11 -40 0z"/>
<path d="M4550 3960 c-25 -5 -98 -12 -162 -16 -122 -7 -157 -23 -43 -20 36 1
65 -1 65 -6 0 -4 -27 -8 -59 -8 -67 0 -79 -8 -50 -33 23 -20 25 -47 4 -47 -8
0 -15 -7 -15 -15 0 -20 70 -16 87 5 10 13 12 13 18 -2 4 -10 15 -18 24 -17 10
0 11 2 4 6 -7 2 -13 11 -13 19 0 12 4 12 20 4 16 -8 26 -7 45 7 29 21 31 30 8
36 -10 3 -3 5 15 6 34 1 44 16 15 24 -10 3 -2 5 18 6 23 1 43 9 57 24 22 24
28 38 15 36 -5 -1 -28 -5 -53 -9z m-164 -97 c-10 -10 -19 5 -10 18 6 11 8 11
12 0 2 -7 1 -15 -2 -18z"/>
<path d="M4246 3874 c-4 -9 -4 -19 -1 -22 2 -3 7 3 11 12 4 9 4 19 1 22 -2 3
-7 -3 -11 -12z"/>
<path d="M4250 3826 c0 -9 7 -16 16 -16 9 0 14 5 12 12 -6 18 -28 21 -28 4z"/>
<path d="M2935 3765 c-39 -18 -11 -18 35 0 22 8 28 13 15 13 -11 0 -33 -6 -50
-13z"/>
<path d="M2805 3717 c-81 -33 -197 -93 -282 -148 -47 -29 -47 -29 -16 -29 67
0 154 13 141 21 -7 5 -25 6 -40 3 -16 -3 -28 -3 -28 0 0 10 79 57 205 123 134
70 139 78 20 30z"/>
<path d="M3573 3827 c42 -7 62 -6 70 2 8 8 -7 11 -58 10 l-70 -2 58 -10z"/>
<path d="M3663 3816 c0 -14 3 -26 8 -26 11 0 11 21 0 39 -6 9 -8 5 -8 -13z"/>
<path d="M3595 3801 c-20 -4 -26 -9 -17 -14 18 -12 15 -54 -5 -66 -10 -5 -15
-13 -11 -17 7 -6 22 -6 91 -1 11 1 17 10 17 25 0 13 -4 20 -10 17 -28 -17 -48
-13 -55 12 -3 14 -5 26 -3 28 2 1 12 7 23 13 22 12 16 13 -30 3z"/>
<path d="M4857 3589 c7 -7 15 -10 18 -7 3 3 -2 9 -12 12 -14 6 -15 5 -6 -5z"/>
<path d="M15945 2980 c3 -5 8 -10 11 -10 2 0 4 5 4 10 0 6 -5 10 -11 10 -5 0
-7 -4 -4 -10z"/>
<path d="M680 2621 c0 -12 5 -21 10 -21 6 0 10 6 10 14 0 8 -4 18 -10 21 -5 3
-10 -3 -10 -14z"/>
<path d="M850 2616 c0 -10 9 -16 21 -16 24 0 21 23 -4 28 -10 2 -17 -3 -17
-12z"/>
<path d="M14801 2406 c2 -2 15 -9 29 -15 24 -11 24 -11 6 3 -16 13 -49 24 -35
12z"/>
<path d="M14950 2350 c-8 -5 -10 -10 -5 -10 6 0 17 5 25 10 8 5 11 10 5 10 -5
0 -17 -5 -25 -10z"/>
<path d="M14900 2330 c8 -5 22 -9 30 -9 10 0 8 3 -5 9 -27 12 -43 12 -25 0z"/>
<path d="M15415 2280 c-3 -6 1 -7 9 -4 18 7 21 14 7 14 -6 0 -13 -4 -16 -10z"/>
<path d="M5370 1621 c0 -31 14 -49 25 -31 4 7 13 7 26 -1 12 -6 23 -8 26 -5 3
2 16 -7 30 -22 13 -15 23 -20 20 -12 -4 15 -105 99 -119 100 -5 0 -8 -13 -8
-29z"/>
<path d="M14838 1833 c7 -3 16 -2 19 1 4 3 -2 6 -13 5 -11 0 -14 -3 -6 -6z"/>
<path d="M14898 1813 c7 -3 16 -2 19 1 4 3 -2 6 -13 5 -11 0 -14 -3 -6 -6z"/>
<path d="M15424 1312 c4 -3 14 -7 22 -8 9 -1 13 0 10 4 -4 3 -14 7 -22 8 -9 1
-13 0 -10 -4z"/>
<path d="M15284 1292 c4 -3 14 -7 22 -8 9 -1 13 0 10 4 -4 3 -14 7 -22 8 -9 1
-13 0 -10 -4z"/>
<path d="M15337 1279 c12 -15 55 -20 68 -8 3 3 -7 5 -22 4 -16 -1 -35 3 -43 9
-13 9 -13 9 -3 -5z"/>
<path d="M15286 1258 c3 -5 10 -6 15 -3 13 9 11 12 -6 12 -8 0 -12 -4 -9 -9z"/>
<path d="M15364 1242 c4 -3 14 -7 22 -8 9 -1 13 0 10 4 -4 3 -14 7 -22 8 -9 1
-13 0 -10 -4z"/>
<path d="M15304 1232 c4 -3 14 -7 22 -8 9 -1 13 0 10 4 -4 3 -14 7 -22 8 -9 1
-13 0 -10 -4z"/>
<path d="M15350 1226 c0 -2 8 -10 18 -17 15 -13 16 -12 3 4 -13 16 -21 21 -21
13z"/>
<path d="M15120 1205 c7 -8 17 -15 22 -15 6 0 5 7 -2 15 -7 8 -17 15 -22 15
-6 0 -5 -7 2 -15z"/>
<path d="M15305 1202 c4 -4 11 -8 16 -8 5 -1 11 -3 14 -4 3 -1 10 -4 15 -5 6
-1 11 -4 13 -5 5 -5 57 -6 51 -1 -3 3 -14 7 -25 7 -10 1 -21 3 -24 4 -3 1 -9
4 -15 5 -5 1 -11 3 -12 5 -8 5 -39 7 -33 2z"/>
<path d="M6300 1710 c0 -5 9 -10 21 -10 11 0 17 5 14 10 -3 6 -13 10 -21 10
-8 0 -14 -4 -14 -10z"/>
<path d="M6260 1700 c-8 -5 -12 -12 -9 -15 4 -3 12 1 19 10 14 17 11 19 -10 5z"/>
<path d="M7198 1633 c7 -3 16 -2 19 1 4 3 -2 6 -13 5 -11 0 -14 -3 -6 -6z"/>
<path d="M7108 1593 c6 -2 18 -2 25 0 6 3 1 5 -13 5 -14 0 -19 -2 -12 -5z"/>
<path d="M6300 1420 c0 -5 9 -10 20 -10 11 0 20 5 20 10 0 6 -9 10 -20 10 -11
0 -20 -4 -20 -10z"/>
<path d="M5861 894 c0 -11 3 -14 6 -6 3 7 2 16 -1 19 -3 4 -6 -2 -5 -13z"/>
<path d="M12078 7223 c12 -2 32 -2 45 0 12 2 2 4 -23 4 -25 0 -35 -2 -22 -4z"/>
<path d="M12328 7213 c7 -3 16 -2 19 1 4 3 -2 6 -13 5 -11 0 -14 -3 -6 -6z"/>
<path d="M12368 7213 c6 -2 18 -2 25 0 6 3 1 5 -13 5 -14 0 -19 -2 -12 -5z"/>
<path d="M12433 7203 c15 -2 37 -2 50 0 12 2 0 4 -28 4 -27 0 -38 -2 -22 -4z"/>
<path d="M12743 7183 c15 -2 39 -2 55 0 15 2 2 4 -28 4 -30 0 -43 -2 -27 -4z"/>
<path d="M10275 7140 c-27 -7 -28 -8 -5 -8 14 0 45 3 70 7 l45 8 -40 1 c-22 0
-53 -4 -70 -8z"/>
<path d="M10150 7120 c-20 -6 -21 -8 -5 -8 11 -1 38 3 60 7 l40 9 -35 0 c-19
0 -46 -4 -60 -8z"/>
<path d="M13463 7123 c9 -2 23 -2 30 0 6 3 -1 5 -18 5 -16 0 -22 -2 -12 -5z"/>
<path d="M10055 7100 l-20 -9 20 1 c11 0 31 4 45 8 l25 8 -25 0 c-14 0 -34 -3
-45 -8z"/>
<path d="M9980 7080 c-18 -12 -2 -12 25 0 13 6 15 9 5 9 -8 0 -22 -4 -30 -9z"/>
<path d="M9925 7060 c-3 -6 1 -7 9 -4 18 7 21 14 7 14 -6 0 -13 -4 -16 -10z"/>
<path d="M9870 7040 c-9 -6 -10 -10 -3 -10 6 0 15 5 18 10 8 12 4 12 -15 0z"/>
<path d="M9755 6980 c-3 -6 1 -7 9 -4 18 7 21 14 7 14 -6 0 -13 -4 -16 -10z"/>
<path d="M14500 6965 c0 -3 24 -16 52 -30 29 -14 46 -19 38 -11 -16 16 -90 50
-90 41z"/>
<path d="M16859 5046 c14 -14 27 -26 29 -26 10 0 -26 44 -39 48 -8 3 -3 -7 10
-22z"/>
<path d="M369 4093 c-13 -16 -12 -17 4 -4 9 7 17 15 17 17 0 8 -8 3 -21 -13z"/>
<path d="M665 3771 c42 -13 145 -19 145 -9 0 4 -17 8 -39 8 -21 0 -60 2 -87 5
-40 4 -43 3 -19 -4z"/>
<path d="M840 3770 c0 -6 -3 -9 -7 -7 -5 3 -9 -6 -10 -20 0 -14 -6 -30 -11
-35 -7 -7 -10 -4 -9 8 2 17 -8 20 -88 25 -49 3 -94 3 -100 0 -14 -8 59 -20
123 -20 31 -1 52 -5 52 -12 0 -8 -28 -10 -100 -4 -69 4 -100 3 -100 -4 0 -6 8
-11 18 -12 9 0 53 -4 97 -8 44 -4 87 -4 96 0 22 11 61 87 49 94 -6 3 -10 1
-10 -5z"/>
<path d="M876 3761 c-3 -5 0 -11 8 -14 15 -6 26 1 26 15 0 11 -27 10 -34 -1z"/>
<path d="M1080 3735 c-8 -21 -16 -25 -49 -25 -22 0 -43 -4 -46 -10 -3 -5 -15
-10 -26 -10 -10 0 -19 -7 -19 -15 0 -8 7 -15 15 -15 9 0 18 7 21 15 4 10 20
15 49 15 35 0 48 5 64 26 23 29 27 44 11 44 -6 0 -15 -11 -20 -25z"/>
<path d="M1124 3739 c-4 -7 72 -19 121 -19 44 0 61 -21 32 -40 -16 -10 -47
-13 -108 -11 -49 1 -90 -2 -93 -7 -8 -13 141 -26 183 -17 48 10 80 71 49 92
-15 9 -178 11 -184 2z"/>
<path d="M889 3709 c-10 -6 -4 -9 18 -9 17 0 34 3 36 8 7 10 -38 11 -54 1z"/>
<path d="M186 3655 c4 -8 8 -15 10 -15 2 0 4 7 4 15 0 8 -4 15 -10 15 -5 0 -7
-7 -4 -15z"/>
</g>
</svg>
