<svg width="20" height="24" viewBox="0 0 20 24" fill="none" xmlns="http://www.w3.org/2000/svg">
<path d="M12.4644 0.831628C12.0685 0.753488 11.6566 0.669767 11.2553 0.630698C10.8058 0.586047 10.4046 0.563721 10.0408 0.563721C8.50521 0.563721 7.69731 0.937674 7.10342 1.32279C6.69145 1.5907 6.46138 1.90884 6.40788 2.26605C6.35438 2.64558 6.50954 3.07535 6.86266 3.49953C7.54215 4.32558 8.46776 4.75535 9.20075 5.04558C9.76789 5.26884 10.3511 5.47535 10.9182 5.6707C12.0418 6.06698 13.2081 6.47442 14.2889 7.03256C15.2787 6.88744 16.2632 6.6307 17.2102 6.27907C17.0978 6.22326 16.9801 6.16744 16.8571 6.11163C16.8143 6.09488 16.7715 6.07256 16.734 6.05581C15.589 5.54233 14.3745 5.17395 13.1974 4.81116C12.4698 4.58791 11.7154 4.35907 10.9824 4.09674C10.9129 4.07442 10.8433 4.04651 10.7791 4.02419C10.2066 3.82326 9.61273 3.61674 9.1312 3.10326L8.94928 2.90791L9.1312 2.71256C9.41476 2.41116 9.71973 2.47814 9.90699 2.51721C9.9284 2.52279 9.95515 2.52837 9.97655 2.53395C12.5554 3.00279 14.642 3.58326 16.5521 4.36465C16.5842 4.37581 16.6163 4.39256 16.6538 4.4093C17.0604 4.58233 17.1834 4.58791 17.2155 4.55442C17.2155 4.55442 17.3707 4.35349 16.9855 3.34884C16.2632 1.47349 14.5404 0.418605 13.6897 0C13.7913 0.128372 13.9037 0.31814 13.8983 0.513488C13.893 0.597209 13.8716 0.68093 13.8288 0.75907C13.6201 1.12744 13.2563 1.01023 13.1011 0.965581C13.0583 0.954419 13.0209 0.937674 12.9888 0.937674C12.8069 0.904186 12.6303 0.865116 12.4644 0.831628Z" fill="white"/>
<path d="M15.3804 15.9237C14.9845 15.8735 14.5778 15.8065 14.1712 15.734C10.549 15.0865 7.85782 13.8419 6.24737 13.0995C4.16074 12.134 2.13297 10.9619 0.212204 9.61674C0.00354093 10.32 -0.124867 11.2744 0.185452 12.2847C0.340611 12.7926 0.554625 13.1498 0.699084 13.373C1.24482 14.2158 2.01526 14.947 3.05858 15.5944C3.88788 16.1135 4.77068 16.5823 5.68024 16.9842C6.83591 17.4977 8.07718 17.9274 9.37196 18.2567C11.2339 18.7312 13.16 19.2223 15.1022 19.267C15.2359 19.2726 15.3697 19.2726 15.4981 19.267C15.6479 19.267 15.7977 19.2726 15.9422 19.2726C16.2578 19.2837 16.5628 19.2893 16.8571 19.2614C17.8576 19.1609 18.628 18.8484 19.2005 18.3181L19.2219 18.2958C19.452 18.0837 19.6874 17.866 19.8426 17.4977C20.0566 16.9953 20.0138 16.4874 19.9389 16.147C18.4194 16.1972 16.8838 16.1246 15.3804 15.9237Z" fill="white"/>
<path d="M17.7666 6.65861C16.6377 7.11628 15.4606 7.43442 14.2729 7.60186C14.2461 7.60744 14.214 7.61302 14.1873 7.61302C14.1284 7.62419 14.0696 7.62977 14.0107 7.63535C11.7047 7.92 9.35591 7.65209 7.03387 6.83721C5.61068 6.34047 4.2303 5.64837 2.91412 4.77767C2.77501 4.8614 2.64125 4.95628 2.51284 5.06233C2.43259 5.1293 2.22928 5.34698 1.96711 5.6707C1.54443 6.18977 1.36252 6.62512 1.41068 7.00465C1.45883 7.39535 1.75845 7.78605 2.32023 8.20465C2.94087 8.66791 3.65246 9.0586 4.49781 9.40465C5.42342 9.78419 6.40253 10.0688 7.35489 10.3423C7.5475 10.3981 7.73476 10.454 7.92202 10.5098C9.32381 10.9228 10.7416 10.9674 12.2397 11.0177C13.0744 11.0456 13.9358 11.0735 14.8025 11.1684C14.8614 11.1628 14.9203 11.1572 14.9791 11.1516C15.9689 11.0512 16.7875 10.8112 17.467 10.426C18.1037 10.0633 18.5157 9.56093 18.6548 8.9693C18.8099 8.29953 18.6334 7.54046 18.2 7.03256C18.0876 6.89302 17.9378 6.76465 17.7666 6.65861Z" fill="white"/>
<path d="M15.7603 12.0837C15.5195 11.933 15.268 11.8158 14.9898 11.7265C14.9363 11.7321 14.8828 11.7377 14.8293 11.7433H14.8025L14.7758 11.7377C13.9251 11.6428 13.0637 11.6149 12.229 11.587C10.763 11.5367 9.24356 11.4865 7.78292 11.0567C7.61706 11.0065 7.4512 10.9619 7.28534 10.9116C7.65986 11.1014 8.03438 11.2912 8.40355 11.4754C9.97655 12.2679 11.603 13.0828 13.1118 14.0819C13.16 14.1153 13.2081 14.1433 13.2509 14.1767C13.6683 14.4502 14.0963 14.7293 14.3638 15.2037C14.7223 15.2651 15.0808 15.3209 15.4339 15.3656C16.8624 15.5553 18.3124 15.6279 19.7516 15.5888C19.666 15.3991 19.5429 15.2037 19.3771 14.9916C18.3819 13.7135 16.9908 12.8428 15.7603 12.0837Z" fill="white"/>
<path d="M10.4367 23.7042C11.7422 23.3693 12.7962 22.8223 13.6683 22.0298C13.9358 21.7898 13.9197 21.6614 13.8823 21.5553C13.8502 21.4605 13.7967 21.4381 13.5399 21.4102C13.5131 21.4102 13.4917 21.4047 13.465 21.4047C13.1921 21.3712 12.9139 21.3433 12.6464 21.3153C11.9829 21.2484 11.2981 21.1758 10.6293 21.053C10.319 20.9916 9.9926 20.9414 9.68228 20.8912C8.61222 20.7181 7.49935 20.5395 6.37578 20.0428L5.30036 19.5684L6.46674 19.507C7.65451 19.4456 8.83693 19.4567 9.9819 19.4623C10.6988 19.4679 11.3944 19.4735 12.0846 19.4623C11.1269 19.2726 10.1799 19.0326 9.25425 18.7926C7.95413 18.4633 6.70215 18.0335 5.53578 17.52C5.12915 17.5591 4.71183 17.6651 4.29985 17.8381C3.72202 18.0781 3.34749 18.4633 3.25119 18.9209C3.14953 19.3842 3.33679 19.9088 3.77017 20.4C5.45017 22.2865 7.92202 22.7386 8.20024 22.7833C8.66572 22.8614 9.13655 22.9005 9.60203 22.9005H10.3136L9.10445 24C9.43617 23.9777 9.75719 23.8884 10.0943 23.7935C10.2066 23.7656 10.3243 23.7321 10.4367 23.7042Z" fill="white"/>
<path d="M3.49195 8.82977C3.52941 8.83535 3.57756 8.82977 3.58291 8.88558C3.55616 8.86884 3.52406 8.85209 3.49195 8.82977Z" fill="white"/>
</svg>
