<svg width="694" height="994" viewBox="0 0 694 994" fill="none" xmlns="http://www.w3.org/2000/svg">
<g opacity="0.1">
<path opacity="0.010101" d="M376.251 497.982C370.684 492.217 369.462 483.523 373.225 476.446L568.762 108.694C572.525 101.617 580.416 97.7684 588.309 99.1601L998.486 171.486C1006.38 172.877 1012.48 179.193 1013.59 187.13L1071.56 599.581C1072.68 607.518 1068.55 615.27 1061.35 618.784L686.998 801.367C679.794 804.881 671.148 803.356 665.58 797.591L376.251 497.982Z" stroke="#0276FE" stroke-width="3"/>
<path opacity="0.020202" d="M371.759 492.916C366.293 487.054 365.223 478.34 369.108 471.33L570.64 107.757C574.525 100.748 582.483 97.0371 590.35 98.5664L998.405 177.884C1006.27 179.413 1012.26 185.835 1013.24 193.79L1063.9 606.383C1064.87 614.338 1060.62 622.017 1053.35 625.404L676.608 801.083C669.345 804.47 660.726 802.795 655.26 796.934L371.759 492.916Z" stroke="#0276FE" stroke-width="3"/>
<path opacity="0.030303" d="M367.38 487.857C362.017 481.901 361.099 473.169 365.107 466.228L572.546 106.932C576.553 99.9913 584.574 96.4202 592.414 98.0865L998.227 184.345C1006.07 186.011 1011.94 192.536 1012.78 200.507L1056.15 613.113C1056.98 621.083 1052.59 628.687 1045.27 631.947L666.261 800.693C658.939 803.953 650.351 802.128 644.988 796.172L367.38 487.857Z" stroke="#0276FE" stroke-width="3"/>
<path opacity="0.040404" d="M363.115 482.808C357.857 476.759 357.091 468.012 361.219 461.142L574.479 106.219C578.607 99.3488 586.689 95.9182 594.498 97.7211L997.951 190.866C1005.76 192.668 1011.52 199.295 1012.22 207.279L1048.31 619.769C1049.01 627.753 1044.48 635.279 1037.11 638.411L655.957 800.199C648.579 803.331 640.024 801.356 634.766 795.307L363.115 482.808Z" stroke="#0276FE" stroke-width="3"/>
<path opacity="0.050505" d="M358.963 477.769C353.811 471.63 353.199 462.871 357.446 456.074L576.436 105.616C580.683 98.8192 588.824 95.5302 596.601 97.4691L997.578 197.444C1005.35 199.383 1011 206.109 1011.56 214.104L1040.38 626.35C1040.94 634.345 1036.29 641.791 1028.86 644.793L645.699 799.6C638.268 802.603 629.748 800.479 624.597 794.339L358.963 477.769Z" stroke="#0276FE" stroke-width="3"/>
<path opacity="0.0606061" d="M354.924 472.743C349.88 466.514 349.42 457.746 353.786 451.024L578.416 105.123C582.781 98.4018 590.978 95.2553 598.72 97.3296L997.106 204.077C1004.85 206.151 1010.37 212.975 1010.79 220.978L1032.38 632.853C1032.8 640.856 1028.02 648.22 1020.53 651.092L635.487 798.897C628.005 801.769 619.524 799.497 614.48 793.268L354.924 472.743Z" stroke="#0276FE" stroke-width="3"/>
<path opacity="0.0707071" d="M350.997 467.731C346.063 461.415 345.756 452.641 350.238 445.996L580.417 104.742C584.898 98.0979 593.149 95.0949 600.853 97.3041L996.534 210.764C1004.24 212.973 1009.64 219.892 1009.92 227.901L1024.29 639.277C1024.57 647.287 1019.66 654.566 1012.13 657.307L625.325 798.092C617.794 800.833 609.354 798.413 604.42 792.097L350.997 467.731Z" stroke="#0276FE" stroke-width="3"/>
<path opacity="0.0808081" d="M347.182 462.738C342.359 456.337 342.206 447.558 346.803 440.993L582.435 104.474C587.033 97.9092 595.334 95.0507 602.999 97.394L995.862 217.504C1003.53 219.847 1008.81 226.859 1008.95 234.873L1016.12 645.624C1016.26 653.637 1011.22 660.829 1003.65 663.439L615.214 797.186C607.636 799.796 599.239 797.229 594.416 790.828L347.182 462.738Z" stroke="#0276FE" stroke-width="3"/>
<path opacity="0.0909091" d="M343.479 457.763C338.768 451.279 338.768 442.499 343.479 436.015L584.471 104.317C589.182 97.8333 597.532 95.1201 605.154 97.5968L995.088 224.294C1002.71 226.771 1007.87 233.874 1007.87 241.888V651.889C1007.87 659.903 1002.71 667.007 995.088 669.483L605.154 796.18C597.532 798.657 589.182 795.944 584.471 789.46L343.479 457.763Z" stroke="#0276FE" stroke-width="3"/>
<path opacity="0.10101" d="M339.886 452.807C335.289 446.242 335.442 437.464 340.266 431.063L586.521 104.271C591.344 97.8704 599.74 95.3034 607.318 97.9127L994.212 231.131C1001.79 233.74 1006.83 240.933 1006.69 248.946L999.545 658.071C999.405 666.084 994.121 673.096 986.457 675.44L595.149 795.074C587.485 797.418 579.183 794.559 574.586 787.994L339.886 452.807Z" stroke="#0276FE" stroke-width="3"/>
<path opacity="0.111111" d="M336.403 447.877C331.922 441.232 332.228 432.458 337.162 426.142L588.583 104.339C593.517 98.0233 601.957 95.6032 609.488 98.3444L993.234 238.016C1000.77 240.758 1005.68 248.037 1005.4 256.046L991.144 664.172C990.864 672.182 985.458 679.1 977.754 681.31L585.2 793.873C577.496 796.082 569.245 793.079 564.763 786.434L336.403 447.877Z" stroke="#0276FE" stroke-width="3"/>
<path opacity="0.121212" d="M333.031 442.969C328.665 436.247 329.125 427.479 334.169 421.251L590.655 104.516C595.699 98.2876 604.18 96.0151 611.662 98.8873L992.153 244.944C999.636 247.816 1004.42 255.18 1004 263.184L982.668 670.186C982.249 678.19 976.723 685.013 968.982 687.088L575.308 792.572C567.566 794.646 559.369 791.5 555.004 784.778L333.031 442.969Z" stroke="#0276FE" stroke-width="3"/>
<path opacity="0.131313" d="M329.767 438.089C325.519 431.293 326.132 422.534 331.284 416.394L592.736 104.807C597.888 98.6676 606.407 96.5435 613.838 99.5459L990.968 251.916C998.4 254.919 1003.05 262.365 1002.49 270.36L974.12 676.117C973.561 684.112 967.917 690.838 960.141 692.777L565.475 791.178C557.698 793.117 549.557 789.828 545.31 783.031L329.767 438.089Z" stroke="#0276FE" stroke-width="3"/>
<path opacity="0.141414" d="M326.611 433.238C322.483 426.368 323.248 417.621 328.506 411.572L594.823 105.209C600.082 99.1606 608.637 97.1855 616.014 100.317L989.679 258.928C997.057 262.06 1001.58 269.586 1000.88 277.57L965.501 681.96C964.802 689.945 959.042 696.571 951.233 698.374L555.702 789.689C547.893 791.492 539.811 788.062 535.683 781.192L326.611 433.238Z" stroke="#0276FE" stroke-width="3"/>
<path opacity="0.151515" d="M323.563 428.416C319.555 421.475 320.473 412.743 325.836 406.787L596.915 105.722C602.278 99.7664 610.866 97.9409 618.188 101.201L988.285 265.979C995.607 269.239 999.997 276.842 999.159 284.813L956.813 687.716C955.975 695.686 950.1 702.211 942.26 703.878L545.991 788.107C538.152 789.774 530.131 786.202 526.123 779.261L323.563 428.416Z" stroke="#0276FE" stroke-width="3"/>
<path opacity="0.161616" d="M320.621 423.626C316.735 416.617 317.805 407.902 323.271 402.04L599.009 106.348C604.475 100.486 613.094 98.8109 620.358 102.198L986.786 273.066C994.05 276.453 998.306 284.133 997.33 292.088L948.057 693.383C947.08 701.338 941.092 707.759 933.225 709.288L536.344 786.434C528.477 787.963 520.519 784.253 516.634 777.243L320.621 423.626Z" stroke="#0276FE" stroke-width="3"/>
<path opacity="0.171717" d="M317.785 418.872C314.023 411.795 315.245 403.101 320.812 397.335L601.104 107.085C606.671 101.32 615.318 99.7949 622.521 103.308L985.181 280.189C992.385 283.703 996.507 291.455 995.391 299.392L939.235 698.96C938.12 706.897 932.021 713.213 924.128 714.605L526.762 784.671C518.869 786.063 510.978 782.214 507.215 775.137L317.785 418.872Z" stroke="#0276FE" stroke-width="3"/>
<path opacity="0.181818" d="M315.055 414.152C311.417 407.011 312.79 398.339 318.457 392.672L603.197 107.932C608.864 102.265 617.536 100.891 624.677 104.53L983.47 287.344C990.611 290.983 994.597 298.806 993.343 306.722L930.35 704.447C929.096 712.363 922.888 718.571 914.972 719.825L517.247 782.818C509.331 784.072 501.508 780.086 497.869 772.945L315.055 414.152Z" stroke="#0276FE" stroke-width="3"/>
<path opacity="0.191919" d="M312.429 409.471C308.916 402.267 310.44 393.62 316.205 388.053L605.286 108.891C611.052 103.323 619.746 102.101 626.823 105.864L981.652 294.53C988.729 298.293 992.578 306.185 991.186 314.077L921.402 709.842C920.01 717.735 913.695 723.834 905.758 724.949L507.799 780.879C499.863 781.994 492.11 777.872 488.597 770.669L312.429 409.471Z" stroke="#0276FE" stroke-width="3"/>
<path opacity="0.20202" d="M309.906 404.826C306.519 397.563 308.194 388.944 314.056 383.478L607.37 109.958C613.232 104.492 621.946 103.422 628.956 107.308L979.728 301.744C986.738 305.629 990.448 313.587 988.919 321.454L912.394 715.142C910.865 723.009 904.443 728.997 896.488 729.974L498.421 778.851C490.466 779.827 482.787 775.571 479.4 768.307L309.906 404.826Z" stroke="#0276FE" stroke-width="3"/>
<path opacity="0.212121" d="M307.486 400.226C304.226 392.904 306.052 384.316 312.008 378.953L609.447 111.138C615.403 105.775 624.135 104.858 631.076 108.865L977.697 308.987C984.637 312.994 988.209 321.015 986.542 328.855L903.327 720.352C901.661 728.191 895.136 734.066 887.165 734.904L489.114 776.741C481.144 777.579 473.54 773.189 470.28 765.867L307.486 400.226Z" stroke="#0276FE" stroke-width="3"/>
<path opacity="0.222222" d="M305.168 395.667C302.036 388.289 304.011 379.734 310.06 374.476L611.514 112.426C617.562 107.168 626.309 106.403 633.179 110.531L975.558 316.253C982.428 320.381 985.858 328.463 984.055 336.272L894.203 725.465C892.4 733.274 885.774 739.034 877.79 739.733L479.879 774.545C471.895 775.244 464.369 770.722 461.237 763.344L305.168 395.667Z" stroke="#0276FE" stroke-width="3"/>
<path opacity="0.232323" d="M302.95 391.153C299.947 383.722 302.071 375.203 308.211 370.051L613.57 113.825C619.709 108.673 628.468 108.061 635.265 112.308L973.311 323.543C980.108 327.79 983.397 335.931 981.458 343.707L885.024 730.484C883.085 738.261 876.359 743.904 868.364 744.463L470.718 772.27C462.723 772.829 455.277 768.176 452.274 760.745L302.95 391.153Z" stroke="#0276FE" stroke-width="3"/>
<path opacity="0.242424" d="M300.831 386.686C297.959 379.204 300.232 370.723 306.46 365.679L615.612 115.333C621.841 110.289 630.609 109.83 637.33 114.195L970.957 330.855C977.679 335.22 980.825 343.417 978.751 351.158L875.791 735.407C873.717 743.149 866.894 748.674 858.89 749.094L461.631 769.913C453.627 770.333 446.264 765.551 443.392 758.069L300.831 386.686Z" stroke="#0276FE" stroke-width="3"/>
<path opacity="0.252525" d="M298.812 382.266C296.07 374.735 298.49 366.295 304.806 361.36L617.639 116.948C623.955 112.014 632.73 111.708 639.374 116.189L968.495 338.184C975.139 342.666 978.142 350.916 975.933 358.62L866.507 740.233C864.298 747.937 857.379 753.343 849.37 753.622L452.62 767.477C444.611 767.757 437.332 762.847 434.59 755.316L298.812 382.266Z" stroke="#0276FE" stroke-width="3"/>
<path opacity="0.262626" d="M296.889 377.895C294.28 370.317 296.847 361.921 303.248 357.097L619.65 118.672C626.05 113.848 634.829 113.695 641.394 118.292L965.924 345.53C972.49 350.127 975.348 358.429 973.005 366.094L857.173 744.96C854.83 752.625 847.818 757.909 839.805 758.049L443.687 764.963C435.674 765.103 428.481 760.067 425.872 752.489L296.889 377.895Z" stroke="#0276FE" stroke-width="3"/>
<path opacity="0.272727" d="M295.063 373.577C292.587 365.954 295.3 357.604 301.784 352.893L621.641 120.503C628.125 115.793 636.905 115.793 643.389 120.503L963.246 352.893C969.73 357.604 972.443 365.954 969.966 373.577L847.792 749.591C845.315 757.214 838.212 762.374 830.197 762.374L434.832 762.374C426.818 762.374 419.714 757.214 417.238 749.591L295.063 373.577Z" stroke="#0276FE" stroke-width="3"/>
<path opacity="0.282828" d="M293.333 369.311C290.99 361.647 293.848 353.345 300.413 348.748L623.611 122.442C630.177 117.845 638.955 117.998 645.356 122.822L960.459 360.269C966.86 365.092 969.427 373.489 966.818 381.067L838.364 754.123C835.755 761.701 828.563 766.737 820.549 766.597L426.058 759.711C418.044 759.571 411.032 754.287 408.689 746.623L293.333 369.311Z" stroke="#0276FE" stroke-width="3"/>
<path opacity="0.292929" d="M291.697 365.1C289.488 357.396 292.49 349.146 299.135 344.664L625.559 124.488C632.204 120.006 640.978 120.313 647.294 125.247L957.564 367.657C963.88 372.591 966.3 381.031 963.559 388.562L828.892 758.556C826.151 766.087 818.872 770.997 810.862 770.717L417.363 756.976C409.354 756.696 402.435 751.291 400.226 743.586L291.697 365.1Z" stroke="#0276FE" stroke-width="3"/>
<path opacity="0.30303" d="M290.153 360.944C288.079 353.202 291.225 345.006 297.947 340.64L627.482 126.638C634.204 122.273 642.972 122.732 649.201 127.776L954.561 375.052C960.79 380.096 963.062 388.577 960.19 396.059L819.378 762.887C816.506 770.369 809.142 775.151 801.139 774.732L408.751 754.168C400.748 753.748 393.924 748.223 391.85 740.481L290.153 360.944Z" stroke="#0276FE" stroke-width="3"/>
<path opacity="0.313131" d="M288.702 356.847C286.763 349.07 290.052 340.93 296.849 336.683L629.379 128.895C636.176 124.648 644.935 125.26 651.074 130.412L951.45 382.457C957.59 387.609 959.714 396.128 956.711 403.559L809.823 767.119C806.821 774.55 799.375 779.203 791.38 778.644L400.223 751.292C392.227 750.733 385.502 745.089 383.563 737.312L288.702 356.847Z" stroke="#0276FE" stroke-width="3"/>
<path opacity="0.323232" d="M287.341 352.807C285.538 344.998 288.969 336.916 295.839 332.788L631.248 131.254C638.118 127.126 646.864 127.891 652.913 133.149L948.231 389.865C954.28 395.123 956.255 403.678 953.123 411.056L800.23 771.249C797.099 778.626 789.573 783.148 781.588 782.45L391.778 748.346C383.794 747.647 377.167 741.887 375.364 734.078L287.341 352.807Z" stroke="#0276FE" stroke-width="3"/>
<path opacity="0.333333" d="M286.07 348.83C284.403 340.99 287.975 332.969 294.916 328.962L633.087 133.718C640.028 129.711 648.76 130.629 654.716 135.992L944.904 397.278C950.86 402.641 952.685 411.229 949.425 418.551L790.6 775.278C787.34 782.6 779.737 786.99 771.766 786.152L383.418 745.335C375.448 744.497 368.923 738.622 367.257 730.783L286.07 348.83Z" stroke="#0276FE" stroke-width="3"/>
<path opacity="0.343434" d="M284.886 344.913C283.357 337.045 287.068 329.088 294.078 325.202L634.894 136.285C641.903 132.399 650.618 133.469 656.479 138.935L941.469 404.692C947.33 410.158 949.005 418.777 945.618 426.04L780.935 779.204C777.548 786.468 769.869 790.725 761.914 789.748L375.145 742.259C367.19 741.282 360.769 735.294 359.24 727.427L284.886 344.913Z" stroke="#0276FE" stroke-width="3"/>
<path opacity="0.353535" d="M283.79 341.061C282.398 333.168 286.247 325.277 293.324 321.514L636.667 138.955C643.743 135.192 652.438 136.414 658.203 141.982L937.926 412.107C943.691 417.674 945.216 426.321 941.703 433.525L771.237 783.03C767.724 790.233 759.972 794.355 752.035 793.24L366.959 739.121C359.022 738.006 352.707 731.907 351.315 724.014L283.79 341.061Z" stroke="#0276FE" stroke-width="3"/>
<path opacity="0.363636" d="M282.779 337.273C281.525 329.357 285.511 321.533 292.652 317.895L638.405 141.725C645.546 138.087 654.218 139.46 659.885 145.127L934.276 419.518C939.943 425.185 941.317 433.857 937.678 440.998L761.508 786.751C757.87 793.892 750.047 797.878 742.131 796.624L358.861 735.92C350.945 734.667 344.737 728.458 343.483 720.542L282.779 337.273Z" stroke="#0276FE" stroke-width="3"/>
<path opacity="0.373737" d="M281.852 333.552C280.737 325.615 284.859 317.863 292.062 314.349L640.106 144.597C647.31 141.084 655.956 142.608 661.524 148.374L930.519 426.927C936.087 432.692 937.309 441.387 933.546 448.463L751.751 790.371C747.988 797.447 740.096 801.296 732.204 799.904L350.852 732.662C342.959 731.27 336.86 724.954 335.745 717.018L281.852 333.552Z" stroke="#0276FE" stroke-width="3"/>
<path opacity="0.383838" d="M281.009 329.897C280.032 321.942 284.288 314.263 291.552 310.876L641.769 147.567C649.032 144.18 657.651 145.856 663.117 151.717L926.656 434.328C932.122 440.189 933.192 448.904 929.306 455.914L741.965 793.885C738.08 800.895 730.122 804.605 722.255 803.076L342.934 729.344C335.066 727.814 329.078 721.393 328.101 713.438L281.009 329.897Z" stroke="#0276FE" stroke-width="3"/>
<path opacity="0.393939" d="M280.246 326.313C279.408 318.342 283.798 310.738 291.12 307.478L643.39 150.637C650.712 147.378 659.3 149.203 664.663 155.159L922.685 441.722C928.048 447.678 928.966 456.41 924.959 463.351L732.155 797.297C728.147 804.238 720.126 807.809 712.287 806.143L335.105 725.97C327.266 724.304 321.391 717.779 320.553 709.808L280.246 326.313Z" stroke="#0276FE" stroke-width="3"/>
<path opacity="0.40404" d="M279.564 322.797C278.865 314.812 283.387 307.286 290.765 304.155L644.971 153.803C652.348 150.672 660.903 152.647 666.161 158.696L918.609 449.104C923.867 455.153 924.633 463.9 920.505 470.769L722.321 800.603C718.193 807.473 710.111 810.904 702.302 809.101L327.369 722.541C319.56 720.738 313.799 714.111 313.101 706.127L279.564 322.797Z" stroke="#0276FE" stroke-width="3"/>
<path opacity="0.414141" d="M278.96 319.354C278.401 311.359 283.054 303.913 290.485 300.911L646.506 157.069C653.937 154.067 662.457 156.191 667.608 162.33L914.427 456.477C919.579 462.617 920.191 471.376 915.944 478.172L712.465 803.807C708.218 810.604 700.077 813.893 692.3 811.954L319.724 719.061C311.948 717.122 306.304 710.396 305.745 702.401L278.96 319.354Z" stroke="#0276FE" stroke-width="3"/>
<path opacity="0.424242" d="M278.433 315.984C278.014 307.981 282.796 300.617 290.278 297.745L647.997 160.429C655.479 157.557 663.96 159.83 669.004 166.058L910.14 463.836C915.184 470.065 915.643 478.833 911.278 485.555L702.59 806.907C698.224 813.629 690.028 816.775 682.286 814.701L312.173 715.529C304.432 713.455 298.906 706.632 298.487 698.628L278.433 315.984Z" stroke="#0276FE" stroke-width="3"/>
<path opacity="0.434343" d="M277.983 312.688C277.703 304.678 282.613 297.399 290.144 294.658L649.441 163.884C656.972 161.143 665.412 163.563 670.347 169.879L905.748 471.179C910.683 477.495 910.989 486.27 906.507 492.914L692.697 809.901C688.215 816.546 679.964 819.549 672.26 817.34L304.716 711.948C297.012 709.739 291.607 702.82 291.327 694.81L277.983 312.688Z" stroke="#0276FE" stroke-width="3"/>
<path opacity="0.444444" d="M277.606 309.467C277.466 301.453 282.502 294.261 290.08 291.652L650.836 167.434C658.414 164.824 666.81 167.391 671.634 173.792L901.252 478.506C906.075 484.907 906.228 493.685 901.631 500.25L682.788 812.792C678.191 819.357 669.889 822.216 662.224 819.872L297.353 708.32C289.689 705.977 284.405 698.965 284.265 690.951L277.606 309.467Z" stroke="#0276FE" stroke-width="3"/>
<path opacity="0.454545" d="M277.303 306.323C277.303 298.308 282.463 291.205 290.086 288.728L652.181 171.077C659.803 168.6 668.154 171.313 672.865 177.797L896.652 485.814C901.363 492.298 901.363 501.078 896.652 507.562L672.865 815.578C668.154 822.062 659.804 824.776 652.181 822.299L290.086 704.647C282.463 702.17 277.303 695.067 277.303 687.053L277.303 306.323Z" stroke="#0276FE" stroke-width="3"/>
<path opacity="0.464646" d="M277.07 303.256C277.21 295.242 282.494 288.23 290.158 285.887L653.474 174.81C661.139 172.467 669.441 175.326 674.038 181.891L891.949 493.1C896.546 499.665 896.392 508.444 891.569 514.845L662.93 818.26C658.106 824.66 649.71 827.227 642.132 824.618L282.914 700.929C275.336 698.32 270.3 691.128 270.44 683.114L277.07 303.256Z" stroke="#0276FE" stroke-width="3"/>
<path opacity="0.474747" d="M276.907 300.267C277.187 292.257 282.593 285.338 290.297 283.129L654.714 178.634C662.419 176.425 670.669 179.428 675.151 186.072L887.143 500.363C891.625 507.008 891.318 515.782 886.384 522.098L652.985 820.835C648.05 827.151 639.61 829.571 632.079 826.83L275.838 697.169C268.307 694.428 263.397 687.149 263.677 679.139L276.907 300.267Z" stroke="#0276FE" stroke-width="3"/>
<path opacity="0.484848" d="M276.813 297.358C277.232 289.354 282.758 282.531 290.499 280.456L655.9 182.548C663.641 180.473 671.838 183.62 676.203 190.341L882.235 507.602C886.6 514.324 886.14 523.092 881.097 529.32L643.031 823.307C637.987 829.536 629.506 831.808 622.024 828.936L268.859 693.369C261.377 690.497 256.595 683.133 257.015 675.13L276.813 297.358Z" stroke="#0276FE" stroke-width="3"/>
<path opacity="0.494949" d="M276.785 294.529C277.344 286.533 282.988 279.808 290.764 277.869L657.029 186.549C664.805 184.61 672.946 187.899 677.193 194.696L877.226 514.815C881.473 521.611 880.86 530.37 875.709 536.51L633.071 825.674C627.919 831.814 619.4 833.938 611.969 830.935L261.978 689.53C254.547 686.527 249.894 679.082 250.453 671.086L276.785 294.529Z" stroke="#0276FE" stroke-width="3"/>
<path opacity="0.50505" d="M276.822 291.783C277.521 283.799 283.281 277.173 291.09 275.37L658.1 190.639C665.91 188.836 673.992 192.266 678.12 199.136L872.116 522.001C876.244 528.871 875.479 537.617 870.22 543.666L623.107 827.938C617.848 833.987 609.293 835.962 601.916 832.83L255.195 685.656C247.817 682.524 243.295 674.998 243.994 667.014L276.822 291.783Z" stroke="#0276FE" stroke-width="3"/>
<path opacity="0.515152" d="M276.922 289.12C277.76 281.149 283.635 274.624 291.475 272.958L659.113 194.814C666.952 193.148 674.973 196.719 678.98 203.66L866.906 529.156C870.913 536.097 869.996 544.829 864.633 550.785L613.139 830.097C607.776 836.053 599.188 837.879 591.866 834.619L248.509 681.746C241.188 678.487 236.798 670.883 237.635 662.912L276.922 289.12Z" stroke="#0276FE" stroke-width="3"/>
<path opacity="0.525253" d="M277.085 286.54C278.062 278.585 284.05 272.164 291.917 270.634L660.064 199.074C667.932 197.544 675.889 201.255 679.775 208.265L861.597 536.28C865.482 543.29 864.412 552.005 858.946 557.866L603.171 832.152C597.705 838.013 589.086 839.689 581.823 836.301L241.923 677.804C234.659 674.416 230.402 666.737 231.379 658.782L277.085 286.54Z" stroke="#0276FE" stroke-width="3"/>
<path opacity="0.535354" d="M277.307 284.045C278.423 276.108 284.522 269.792 292.415 268.401L660.955 203.417C668.847 202.025 676.739 205.874 680.502 212.951L856.189 543.372C859.952 550.448 858.73 559.143 853.163 564.908L593.204 834.103C587.637 839.868 578.99 841.393 571.787 837.88L235.436 673.83C228.232 670.317 224.11 662.564 225.225 654.628L277.307 284.045Z" stroke="#0276FE" stroke-width="3"/>
<path opacity="0.545455" d="M277.588 281.635C278.842 273.719 285.051 267.51 292.967 266.257L661.781 207.842C669.697 206.588 677.52 210.574 681.159 217.716L850.684 550.428C854.323 557.569 852.949 566.241 847.282 571.908L583.24 835.95C577.573 841.618 568.901 842.991 561.76 839.352L229.047 669.827C221.906 666.188 217.92 658.365 219.174 650.449L277.588 281.635Z" stroke="#0276FE" stroke-width="3"/>
<path opacity="0.555556" d="M277.927 279.311C279.318 271.418 285.634 265.319 293.571 264.204L662.543 212.348C670.48 211.232 678.232 215.354 681.746 222.558L845.082 557.448C848.596 564.651 847.071 573.298 841.306 578.865L573.281 837.694C567.515 843.262 558.821 844.483 551.744 840.721L222.759 665.796C215.683 662.034 211.834 654.142 213.225 646.249L277.927 279.311Z" stroke="#0276FE" stroke-width="3"/>
<path opacity="0.565657" d="M278.32 277.075C279.849 269.208 286.27 263.22 294.225 262.243L663.24 216.934C671.195 215.957 678.874 220.214 682.261 227.478L839.385 564.43C842.772 571.694 841.096 580.312 835.235 585.778L563.328 839.336C557.466 844.802 548.752 845.872 541.742 841.986L216.571 661.741C209.561 657.855 205.851 649.898 207.38 642.03L278.32 277.075Z" stroke="#0276FE" stroke-width="3"/>
<path opacity="0.575758" d="M278.767 274.927C280.433 267.087 286.958 261.212 294.929 260.374L663.869 221.597C671.84 220.759 679.443 225.149 682.703 232.471L833.592 571.371C836.851 578.693 835.026 587.281 829.07 592.644L553.383 840.873C547.427 846.236 538.695 847.154 531.755 843.147L210.483 657.66C203.542 653.653 199.971 645.632 201.637 637.792L278.767 274.927Z" stroke="#0276FE" stroke-width="3"/>
<path opacity="0.585859" d="M279.266 272.868C281.068 265.059 287.695 259.298 295.679 258.6L664.43 226.338C672.414 225.64 679.94 230.162 683.072 237.539L827.705 578.273C830.836 585.651 828.861 594.206 822.812 599.464L543.449 842.31C537.401 847.568 528.654 848.333 521.784 844.206L204.495 653.559C197.625 649.431 194.195 641.349 195.998 633.54L279.266 272.868Z" stroke="#0276FE" stroke-width="3"/>
<path opacity="0.59596" d="M279.814 270.897C281.753 263.121 288.479 257.477 296.474 256.918L664.921 231.154C672.916 230.595 680.362 235.247 683.364 242.678L821.724 585.13C824.726 592.562 822.602 601.081 816.463 606.233L533.527 843.644C527.387 848.796 518.629 849.408 511.832 845.161L198.608 649.437C191.811 645.19 188.522 637.049 190.461 629.273L279.814 270.897Z" stroke="#0276FE" stroke-width="3"/>
<path opacity="0.606061" d="M280.412 269.018C282.486 261.276 289.31 255.751 297.313 255.331L665.342 236.044C673.345 235.624 680.709 240.406 683.581 247.889L815.652 591.944C818.524 599.426 816.251 607.907 810.023 612.951L523.619 844.877C517.39 849.921 508.622 850.38 501.9 846.015L192.822 645.297C186.101 640.932 182.954 632.735 185.028 624.994L280.412 269.018Z" stroke="#0276FE" stroke-width="3"/>
<path opacity="0.616162" d="M281.056 267.229C283.265 259.524 290.184 254.119 298.194 253.839L665.69 241.006C673.7 240.726 680.979 245.636 683.72 253.167L809.488 598.711C812.229 606.243 809.809 614.683 803.493 619.617L513.726 846.008C507.41 850.942 498.635 851.249 491.991 846.767L187.137 641.141C180.492 636.659 177.49 628.408 179.699 620.704L281.056 267.229Z" stroke="#0276FE" stroke-width="3"/>
<path opacity="0.626263" d="M281.745 265.532C284.089 257.867 291.101 252.584 299.114 252.444L665.965 246.04C673.979 245.9 681.171 250.936 683.78 258.514L803.234 605.432C805.843 613.01 803.276 621.406 796.875 626.23L503.85 847.04C497.449 851.863 488.671 852.017 482.105 847.42L181.553 636.97C174.987 632.373 172.129 624.072 174.472 616.407L281.745 265.532Z" stroke="#0276FE" stroke-width="3"/>
<path opacity="0.636364" d="M282.478 263.927C284.955 256.305 292.058 251.144 300.072 251.144L666.167 251.144C674.181 251.144 681.284 256.305 683.761 263.927L796.89 612.104C799.367 619.726 796.654 628.076 790.17 632.787L493.993 847.972C487.509 852.683 478.729 852.683 472.245 847.972L176.069 632.787C169.585 628.076 166.872 619.726 169.349 612.104L282.478 263.927Z" stroke="#0276FE" stroke-width="3"/>
<path opacity="0.646465" d="M283.252 262.415C285.861 254.837 293.054 249.8 301.067 249.94L666.292 256.315C674.306 256.455 681.318 261.739 683.661 269.404L790.459 618.724C792.802 626.388 789.944 634.69 783.379 639.287L484.158 848.803C477.593 853.4 468.814 853.247 462.413 848.424L170.687 628.592C164.286 623.769 161.719 615.373 164.328 607.795L283.252 262.415Z" stroke="#0276FE" stroke-width="3"/>
<path opacity="0.656566" d="M284.066 260.996C286.807 253.464 294.086 248.555 302.096 248.834L666.342 261.554C674.352 261.834 681.271 267.239 683.48 274.944L783.941 625.293C786.15 632.997 783.147 641.247 776.502 645.729L474.345 849.537C467.7 854.019 458.926 853.712 452.61 848.778L165.405 624.389C159.09 619.455 156.67 611.015 159.411 603.484L284.066 260.996Z" stroke="#0276FE" stroke-width="3"/>
<path opacity="0.666667" d="M284.918 259.669C287.79 252.186 295.154 247.405 303.158 247.824L666.314 266.856C674.318 267.276 681.141 272.801 683.216 280.543L777.336 631.806C779.411 639.548 776.264 647.745 769.543 652.11L464.556 850.171C457.834 854.536 449.066 854.076 442.838 849.032L160.225 620.177C153.996 615.133 151.724 606.652 154.596 599.17L284.918 259.669Z" stroke="#0276FE" stroke-width="3"/>
<path opacity="0.676768" d="M285.807 258.438C288.809 251.007 296.255 246.354 304.25 246.913L666.208 272.224C674.203 272.783 680.929 278.426 682.868 286.203L770.647 638.267C772.586 646.044 769.297 654.184 762.5 658.431L454.793 850.708C447.996 854.955 439.237 854.343 433.098 849.191L155.145 615.961C149.005 610.809 146.881 602.29 149.884 594.859L285.807 258.438Z" stroke="#0276FE" stroke-width="3"/>
<path opacity="0.686869" d="M286.73 257.301C289.861 249.923 297.387 245.401 305.371 246.1L666.023 277.652C674.007 278.351 680.633 284.111 682.436 291.92L763.875 644.67C765.678 652.48 762.247 660.562 755.377 664.69L445.058 851.148C438.188 855.276 429.441 854.511 423.393 849.253L150.166 611.74C144.117 606.482 142.142 597.927 145.274 590.55L286.73 257.301Z" stroke="#0276FE" stroke-width="3"/>
<path opacity="0.69697" d="M287.686 256.258C290.945 248.936 298.549 244.546 306.52 245.384L665.757 283.142C673.727 283.979 680.252 289.854 681.919 297.694L757.02 651.016C758.686 658.856 755.115 666.877 748.174 670.884L435.352 851.492C428.411 855.499 419.679 854.581 413.723 849.218L145.288 607.518C139.331 602.155 137.506 593.567 140.766 586.245L287.686 256.258Z" stroke="#0276FE" stroke-width="3"/>
<path opacity="0.707071" d="M288.672 255.313C292.059 248.049 299.739 243.793 307.694 244.769L665.41 288.691C673.365 289.668 679.786 295.656 681.315 303.523L750.083 657.304C751.613 665.172 747.902 673.129 740.892 677.015L425.677 851.741C418.667 855.627 409.953 854.557 404.091 849.091L140.509 603.297C134.648 597.831 132.972 589.212 136.36 581.949L288.672 255.313Z" stroke="#0276FE" stroke-width="3"/>
<path opacity="0.717172" d="M289.688 254.461C293.202 247.258 300.954 243.136 308.891 244.251L664.981 294.296C672.918 295.412 679.233 301.511 680.625 309.404L743.067 663.53C744.459 671.423 740.61 679.315 733.533 683.077L416.035 851.894C408.958 855.657 400.264 854.435 394.498 848.868L135.831 599.076C130.066 593.508 128.541 584.862 132.055 577.658L289.688 254.461Z" stroke="#0276FE" stroke-width="3"/>
<path opacity="0.727273" d="M290.732 253.707C294.371 246.566 302.194 242.58 310.11 243.834L664.469 299.959C672.385 301.213 678.593 307.421 679.847 315.337L735.972 669.696C737.226 677.612 733.24 685.435 726.099 689.074L406.427 851.955C399.285 855.594 390.614 854.22 384.946 848.553L131.253 594.86C125.586 589.192 124.212 580.521 127.851 573.379L290.732 253.707Z" stroke="#0276FE" stroke-width="3"/>
<path opacity="0.737374" d="M291.802 253.049C295.564 245.972 303.456 242.123 311.349 243.515L663.874 305.675C671.767 307.067 677.866 313.382 678.981 321.319L728.8 675.799C729.915 683.735 725.793 691.488 718.59 695.001L396.855 851.922C389.651 855.435 381.004 853.911 375.437 848.146L126.775 590.648C121.207 584.883 119.985 576.188 123.748 569.112L291.802 253.049Z" stroke="#0276FE" stroke-width="3"/>
<path opacity="0.747475" d="M292.895 252.488C296.78 245.478 304.738 241.768 312.605 243.297L663.193 311.445C671.061 312.974 677.049 319.395 678.026 327.35L721.551 681.838C722.528 689.793 718.271 697.472 711.008 700.86L387.32 851.798C380.056 855.185 371.437 853.51 365.971 847.648L122.395 586.445C116.929 580.583 115.859 571.869 119.745 564.859L292.895 252.488Z" stroke="#0276FE" stroke-width="3"/>
<path opacity="0.757576" d="M294.01 252.022C298.017 245.081 306.038 241.51 313.878 243.177L662.428 317.263C670.268 318.93 676.143 325.454 676.981 333.425L714.228 687.81C715.066 695.781 710.676 703.385 703.354 706.645L377.824 851.58C370.502 854.84 361.914 853.014 356.551 847.058L118.115 582.248C112.752 576.292 111.834 567.56 115.842 560.619L294.01 252.022Z" stroke="#0276FE" stroke-width="3"/>
<path opacity="0.767677" d="M295.146 251.655C299.274 244.785 307.356 241.354 315.165 243.157L661.577 323.132C669.386 324.935 675.147 331.562 675.845 339.546L706.831 693.717C707.53 701.701 703.008 709.227 695.63 712.359L368.368 851.273C360.991 854.405 352.436 852.43 347.178 846.381L113.933 578.064C108.675 572.015 107.91 563.268 112.038 556.398L295.146 251.655Z" stroke="#0276FE" stroke-width="3"/>
<path opacity="0.777778" d="M296.3 251.385C300.548 244.588 308.688 241.299 316.465 243.238L660.639 329.05C668.416 330.989 674.06 337.715 674.619 345.71L699.362 699.557C699.921 707.552 695.268 714.998 687.837 718.001L358.955 850.878C351.524 853.88 343.005 851.756 337.853 845.616L109.849 573.892C104.698 567.752 104.085 558.994 108.332 552.197L296.3 251.385Z" stroke="#0276FE" stroke-width="3"/>
<path opacity="0.787879" d="M297.472 251.212C301.837 244.491 310.034 241.344 317.775 243.418L659.615 335.014C667.356 337.088 672.882 343.912 673.301 351.915L691.823 705.328C692.242 713.332 687.46 720.696 679.978 723.568L349.585 850.393C342.103 853.266 333.622 850.993 328.578 844.765L105.863 569.734C100.819 563.506 100.36 554.738 104.725 548.016L297.472 251.212Z" stroke="#0276FE" stroke-width="3"/>
<path opacity="0.79798" d="M298.658 251.135C303.14 244.491 311.39 241.488 319.094 243.697L658.501 341.02C666.206 343.229 671.611 350.148 671.891 358.158L684.213 711.028C684.493 719.038 679.583 726.317 672.052 729.058L340.261 849.82C332.729 852.561 324.289 850.141 319.355 843.825L101.974 565.591C97.04 559.275 96.7336 550.5 101.215 543.856L298.658 251.135Z" stroke="#0276FE" stroke-width="3"/>
<path opacity="0.808081" d="M299.858 251.157C304.455 244.592 312.756 241.733 320.421 244.077L657.3 347.071C664.964 349.414 670.248 356.426 670.388 364.44L676.536 716.658C676.676 724.671 671.64 731.864 664.062 734.473L330.982 849.161C323.404 851.771 315.008 849.204 310.185 842.803L98.1823 561.466C93.3589 555.065 93.2057 546.287 97.8027 539.721L299.858 251.157Z" stroke="#0276FE" stroke-width="3"/>
<path opacity="0.818182" d="M301.068 251.275C305.779 244.791 314.13 242.078 321.752 244.555L656.009 353.161C663.632 355.638 668.792 362.741 668.792 370.756L668.792 722.215C668.792 730.229 663.632 737.333 656.009 739.809L321.752 848.416C314.13 850.893 305.779 848.179 301.068 841.696L94.4862 557.359C89.7753 550.875 89.7753 542.095 94.4862 535.611L301.068 251.275Z" stroke="#0276FE" stroke-width="3"/>
<path opacity="0.828283" d="M302.289 251.491C307.113 245.091 315.509 242.524 323.087 245.133L654.629 359.292C662.207 361.901 667.243 369.093 667.103 377.107L660.984 727.699C660.844 735.713 655.56 742.725 647.895 745.068L312.571 847.587C304.907 849.93 296.605 847.072 292.008 840.506L90.8859 553.274C86.2889 546.709 86.4421 537.93 91.2655 531.53L302.289 251.491Z" stroke="#0276FE" stroke-width="3"/>
<path opacity="0.838384" d="M303.518 251.804C308.453 245.489 316.893 243.068 324.424 245.81L653.159 365.459C660.69 368.201 665.6 375.48 665.32 383.489L653.111 733.109C652.832 741.119 647.426 748.037 639.722 750.246L303.441 846.673C295.737 848.883 287.487 845.88 283.005 839.235L87.3809 549.211C82.8991 542.566 83.2056 533.792 88.1399 527.476L303.518 251.804Z" stroke="#0276FE" stroke-width="3"/>
<path opacity="0.848485" d="M304.753 252.215C309.797 245.987 318.278 243.714 325.76 246.587L651.598 371.664C659.08 374.536 663.862 381.9 663.443 389.903L645.177 738.445C644.757 746.448 639.232 753.272 631.49 755.346L294.363 845.679C286.622 847.753 278.425 844.607 274.06 837.885L83.97 545.173C79.6049 538.451 80.0644 529.683 85.1082 523.455L304.753 252.215Z" stroke="#0276FE" stroke-width="3"/>
<path opacity="0.858586" d="M305.993 252.722C311.144 246.583 319.664 244.459 327.095 247.461L649.946 377.902C657.377 380.904 662.03 388.35 661.471 396.345L637.181 743.703C636.622 751.698 630.978 758.424 623.202 760.363L285.339 844.602C277.562 846.541 269.421 843.252 265.174 836.455L80.6529 541.159C76.4058 534.362 77.0182 525.604 82.17 519.464L305.993 252.722Z" stroke="#0276FE" stroke-width="3"/>
<path opacity="0.868687" d="M307.235 253.327C312.493 247.279 321.048 245.303 328.426 248.435L648.203 384.172C655.58 387.304 660.102 394.83 659.404 402.814L629.127 748.886C628.428 756.87 622.668 763.496 614.859 765.299L276.369 843.446C268.56 845.248 260.478 841.818 256.35 834.948L77.4289 537.174C73.3011 530.304 74.0663 521.557 79.3244 515.508L307.235 253.327Z" stroke="#0276FE" stroke-width="3"/>
<path opacity="0.878788" d="M308.478 254.03C313.841 248.073 322.429 246.248 329.751 249.508L646.368 390.475C653.69 393.735 658.08 401.338 657.242 409.309L621.014 753.991C620.177 761.962 614.302 768.486 606.462 770.153L267.455 842.211C259.616 843.877 251.595 840.306 247.588 833.365L74.2975 533.218C70.2901 526.277 71.2079 517.545 76.5708 511.589L308.478 254.03Z" stroke="#0276FE" stroke-width="3"/>
<path opacity="0.888889" d="M309.72 254.828C315.187 248.966 323.805 247.291 331.069 250.678L644.441 396.805C651.704 400.192 655.961 407.872 654.984 415.827L612.846 759.016C611.869 766.971 605.881 773.393 598.014 774.922L258.599 840.897C250.732 842.427 242.774 838.716 238.889 831.706L71.2574 529.292C67.3718 522.282 68.4418 513.567 73.9078 507.706L309.72 254.828Z" stroke="#0276FE" stroke-width="3"/>
<path opacity="0.89899" d="M310.96 255.722C316.528 249.957 325.174 248.432 332.378 251.946L642.421 403.164C649.624 406.677 653.746 414.429 652.631 422.366L604.622 763.963C603.507 771.9 597.408 778.215 589.515 779.607L249.802 839.508C241.909 840.9 234.017 837.051 230.255 829.974L68.3084 525.398C64.5457 518.321 65.7677 509.627 71.3351 503.861L310.96 255.722Z" stroke="#0276FE" stroke-width="3"/>
<path opacity="0.909091" d="M312.196 256.714C317.864 251.047 326.535 249.674 333.677 253.312L640.308 409.549C647.45 413.187 651.436 421.011 650.182 428.927L596.346 768.831C595.093 776.747 588.884 782.955 580.968 784.209L241.064 838.044C233.148 839.298 225.325 835.312 221.686 828.171L65.4496 521.539C61.8111 514.398 63.1846 505.726 68.8518 500.059L312.196 256.714Z" stroke="#0276FE" stroke-width="3"/>
<path opacity="0.919192" d="M313.426 257.8C319.191 252.232 327.886 251.01 334.963 254.773L638.103 415.956C645.18 419.718 649.029 427.61 647.637 435.503L588.019 773.615C586.627 781.508 580.311 787.607 572.374 788.722L232.388 836.504C224.451 837.62 216.699 833.498 213.185 826.294L62.6802 517.713C59.1668 510.51 60.6914 501.863 66.4567 496.295L313.426 257.8Z" stroke="#0276FE" stroke-width="3"/>
<path opacity="0.929293" d="M314.648 258.982C320.51 253.516 329.224 252.446 336.234 256.332L635.805 422.386C642.814 426.272 646.525 434.229 644.996 442.096L579.641 778.318C578.111 786.186 571.69 792.174 563.735 793.151L223.773 834.893C215.818 835.869 208.139 831.613 204.752 824.349L59.9991 513.925C56.612 506.661 58.2872 498.043 64.1488 492.577L314.648 258.982Z" stroke="#0276FE" stroke-width="3"/>
<path opacity="0.939394" d="M315.861 260.26C321.817 254.897 330.549 253.979 337.49 257.986L633.413 428.837C640.353 432.844 643.925 440.865 642.258 448.705L571.215 782.94C569.548 790.779 563.023 796.654 555.053 797.492L215.223 833.21C207.252 834.047 199.648 829.657 196.388 822.336L57.4056 510.175C54.1458 502.854 55.9712 494.266 61.9273 488.903L315.861 260.26Z" stroke="#0276FE" stroke-width="3"/>
<path opacity="0.949495" d="M317.063 261.633C323.112 256.375 331.858 255.61 338.728 259.738L630.927 435.308C637.797 439.436 641.228 447.518 639.425 455.328L562.741 787.479C560.939 795.289 554.312 801.049 546.328 801.747L206.736 831.458C198.752 832.156 191.226 827.634 188.095 820.257L54.8989 506.467C51.7673 499.089 53.7424 490.534 59.7911 485.276L317.063 261.633Z" stroke="#0276FE" stroke-width="3"/>
<path opacity="0.959596" d="M318.252 263.099C324.392 257.947 333.151 257.335 339.948 261.582L628.348 441.794C635.145 446.041 638.434 454.182 636.495 461.959L554.223 791.933C552.284 799.709 545.558 805.353 537.563 805.912L198.316 829.635C190.321 830.194 182.875 825.541 179.873 818.11L52.4781 502.797C49.4758 495.366 51.5998 486.847 57.7394 481.695L318.252 263.099Z" stroke="#0276FE" stroke-width="3"/>
<path opacity="0.969697" d="M319.427 264.66C325.656 259.616 334.424 259.156 341.146 263.522L625.675 448.297C632.397 452.662 635.543 460.859 633.469 468.601L545.661 796.303C543.587 804.045 536.764 809.57 528.76 809.99L189.962 827.745C181.959 828.165 174.595 823.383 171.723 815.901L50.1421 499.172C47.2699 491.689 49.5423 483.208 55.7709 478.165L319.427 264.66Z" stroke="#0276FE" stroke-width="3"/>
<path opacity="0.979798" d="M320.586 266.312C326.902 261.378 335.677 261.071 342.321 265.553L622.909 454.812C629.553 459.293 632.556 467.544 630.347 475.248L537.058 800.587C534.848 808.291 527.93 813.696 519.92 813.976L181.677 825.788C173.667 826.068 166.388 821.158 163.647 813.627L47.8901 495.588C45.1489 488.057 47.569 479.617 53.8846 474.682L320.586 266.312Z" stroke="#0276FE" stroke-width="3"/>
<path opacity="0.989899" d="M321.728 268.059C328.129 263.236 336.907 263.083 343.473 267.68L620.048 461.34C626.613 465.937 629.472 474.239 627.129 481.903L528.413 804.787C526.07 812.451 519.058 817.735 511.044 817.875L173.459 823.768C165.446 823.907 158.254 818.871 155.645 811.293L45.7208 492.052C43.1115 484.474 45.6785 476.077 52.0793 471.254L321.728 268.059Z" stroke="#0276FE" stroke-width="3"/>
<path d="M322.85 269.899C329.334 265.188 338.114 265.188 344.598 269.899L617.094 467.879C623.578 472.59 626.291 480.94 623.814 488.562L519.73 808.9C517.254 816.523 510.15 821.683 502.136 821.683H165.312C157.298 821.683 150.195 816.523 147.718 808.9L43.6338 488.562C41.1571 480.94 43.8703 472.59 50.3543 467.879L322.85 269.899Z" stroke="#0276FE" stroke-width="3"/>
</g>
</svg>
