<svg width="166" height="77" viewBox="0 0 166 77" fill="none" xmlns="http://www.w3.org/2000/svg">
<path d="M155.04 0C150.233 0 146.165 3.09007 144.697 7.36784L124.842 8.69647C123.425 4.3281 119.306 1.16758 114.438 1.16758C108.396 1.16758 103.498 6.03922 103.498 12.0482C103.498 15.2088 104.864 18.0573 107.03 20.0401L88.9759 44.811C87.9841 44.5191 86.9317 44.348 85.8387 44.348C82.4687 44.348 79.4529 45.8678 77.439 48.2634L53.9705 38.4396C54.0211 38.0269 54.0515 37.6243 54.0515 37.2016C54.0515 31.1925 49.1533 26.3209 43.1116 26.3209C37.0699 26.3209 32.1718 31.1925 32.1718 37.2016C32.1718 38.802 32.526 40.3218 33.1535 41.6907L16.5767 56.8089C14.9271 55.8225 13.0043 55.2387 10.9398 55.2387C4.89813 55.2387 0 60.1103 0 66.1193C0 72.1284 4.89813 77 10.9398 77C16.9815 77 21.8797 72.1284 21.8797 66.1193C21.8797 64.3982 21.4647 62.7877 20.7563 61.3383L37.2015 46.351C38.9118 47.4481 40.9358 48.0923 43.1217 48.0923C46.5322 48.0923 49.5683 46.5422 51.5822 44.1165L75.0001 53.9201C74.9495 54.3529 74.909 54.7958 74.909 55.2488C74.909 61.2578 79.8071 66.1294 85.8488 66.1294C91.8905 66.1294 96.7886 61.2578 96.7886 55.2488C96.7886 52.5512 95.7969 50.0953 94.1675 48.1929L112.687 22.788C113.264 22.8786 113.851 22.939 114.448 22.939C119.518 22.939 123.769 19.5067 125.003 14.8565L144.464 13.548C145.659 18.2686 149.939 21.7613 155.06 21.7613C161.102 21.7613 166 16.8897 166 10.8807C166 4.87163 161.102 0 155.06 0H155.04Z" fill="white"/>
</svg>
