<svg width="335" height="188" viewBox="0 0 335 188" fill="none" xmlns="http://www.w3.org/2000/svg">
  <!-- Definição do gradiente para o ícone -->
  <defs>
    <linearGradient id="iconGradient" x1="0%" y1="0%" x2="100%" y2="0%">
      <stop offset="0" style="stop-color:#FE0202A5;" />
      <stop offset="0.50" style="stop-color:#6464645A;" />
    </linearGradient>
  </defs>
  <!-- Ícone -->
  <g style="mix-blend-mode:overlay">
    <path d="M308.128 0C296.342 0 286.367 7.54458 282.77 17.989L234.087 21.2329C230.614 10.5673 220.515 2.85072 208.58 2.85072C193.767 2.85072 181.758 14.7451 181.758 29.4165C181.758 37.1331 185.107 44.0878 190.417 48.9291L146.152 109.409C143.72 108.696 141.14 108.278 138.46 108.278C130.197 108.278 122.803 111.989 117.866 117.838L60.3253 93.8525C60.4493 92.845 60.5237 91.862 60.5237 90.8298C60.5237 76.1584 48.5145 64.2641 33.7014 64.2641C18.8883 64.2641 6.87905 76.1584 6.87905 90.8298C6.87905 94.7373 7.7475 98.4481 9.28587 101.79L-31.3571 138.702C-35.4015 136.294 -40.1159 134.869 -45.1777 134.869C-59.9907 134.869 -72 146.763 -72 161.434C-72 176.106 -59.9907 188 -45.1777 188C-30.3646 188 -18.3553 176.106 -18.3553 161.434C-18.3553 157.232 -19.3726 153.3 -21.1095 149.761L19.2109 113.169C23.4042 115.847 28.3667 117.42 33.7262 117.42C42.088 117.42 49.5318 113.636 54.4695 107.713L111.886 131.649C111.762 132.706 111.662 133.787 111.662 134.893C111.662 149.564 123.672 161.459 138.485 161.459C153.298 161.459 165.307 149.564 165.307 134.893C165.307 128.307 162.875 122.311 158.881 117.666L204.288 55.6382C205.702 55.8593 207.141 56.0068 208.605 56.0068C221.036 56.0068 231.457 47.6267 234.484 36.2729L282.199 33.0782C285.127 44.6039 295.623 53.1315 308.178 53.1315C322.991 53.1315 335 41.2371 335 26.5658C335 11.8944 322.991 0 308.178 0H308.128Z" fill="url(#iconGradient)"/>
  </g>

</svg>
